<svg
  width="313"
  height="73"
  viewBox="0 0 313 73"
  fill="none"
  xmlns="http://www.w3.org/2000/svg"
>
  <g clip-path="url(#cLogo)">
    <path
      d="M49.634 8.65999C52.0918 8.65526 54.5265 9.13478 56.7989 10.0711C59.0714 11.0075 61.1371 12.3824 62.8781 14.1173C64.6191 15.8521 66.0012 17.913 66.9456 20.1821C67.89 22.4512 68.3781 24.8842 68.382 27.342L30.957 27.408C30.9523 24.9506 31.4316 22.5164 32.3677 20.2442C33.3037 17.9721 34.6782 15.9066 36.4125 14.1657C38.1468 12.4248 40.2071 11.0425 42.4757 10.0978C44.7442 9.15317 47.1766 8.66458 49.634 8.65999V8.65999Z"
      fill="#EDEEEF"
    />
    <path
      d="M10.65 16.778C12.0512 16.7754 13.4392 17.0488 14.7348 17.5825C16.0303 18.1163 17.2081 18.9001 18.2007 19.889C19.1934 20.878 19.9815 22.0527 20.5202 23.3463C21.0588 24.6398 21.3374 26.0268 21.34 27.428L1.87812e-05 27.468C-0.00261012 26.0668 0.270771 24.6788 0.804561 23.3832C1.33835 22.0877 2.1221 20.91 3.11104 19.9173C4.09999 18.9246 5.27476 18.1365 6.5683 17.5979C7.86184 17.0592 9.24882 16.7806 10.65 16.778V16.778Z"
      fill="#EDEEEF"
    />
    <path
      d="M30.923 7.83899C33.4948 7.8311 36.043 8.33026 38.4217 9.30792C40.8004 10.2856 42.9631 11.7226 44.7861 13.5367C46.609 15.3508 48.0565 17.5065 49.0457 19.8805C50.0349 22.2545 50.5464 24.8002 50.551 27.372L11.415 27.439C11.4065 22.2541 13.4561 17.2777 17.1138 13.6028C20.7715 9.92791 25.7381 7.85488 30.923 7.83899V7.83899Z"
      fill="#EDEEEF"
    />
    <path
      d="M72.839 50.775C71.4204 50.7724 70.0151 51.0495 68.7037 51.5906C67.3923 52.1317 66.2004 52.926 65.1964 53.9282C64.1923 54.9304 63.3957 56.1208 62.8522 57.4312C62.3088 58.7416 62.029 60.1463 62.029 61.565H83.61C83.61 58.7066 82.4758 55.965 80.4564 53.942C78.437 51.9191 75.6974 50.78 72.839 50.775V50.775Z"
      fill="#EDEEEF"
    />
    <path
      d="M247.36 55.972C249.539 55.9682 251.697 56.394 253.71 57.2251C255.724 58.0561 257.554 59.2761 259.096 60.8153C260.638 62.3544 261.861 64.1825 262.696 66.1948C263.53 68.2072 263.96 70.3644 263.96 72.543H230.819C230.819 68.1534 232.561 63.9432 235.662 60.8364C238.763 57.7297 242.97 55.9802 247.36 55.972V55.972Z"
      fill="#EDEEEF"
    />
    <path
      d="M255.898 0.935988C253.089 0.931386 250.307 1.48061 247.711 2.55224C245.115 3.62388 242.756 5.19688 240.768 7.18126C238.78 9.16564 237.204 11.5225 236.128 14.1169C235.052 16.7113 234.498 19.4923 234.498 22.301H277.228C277.228 16.6407 274.982 11.2117 270.983 7.20601C266.984 3.2003 261.558 0.94526 255.898 0.935988V0.935988Z"
      fill="#EDEEEF"
    />
    <path
      d="M95.332 55.456C94.5244 55.4547 93.7244 55.6125 92.9778 55.9203C92.2311 56.2282 91.5524 56.6801 90.9804 57.2502C90.4084 57.8204 89.9543 58.4976 89.644 59.2432C89.3337 59.9889 89.1733 60.7884 89.172 61.596H101.482C101.479 59.9666 100.83 58.4049 99.6772 57.2538C98.5241 56.1026 96.9614 55.456 95.332 55.456V55.456Z"
      fill="#EDEEEF"
    />
    <path
      d="M212.818 63.16C214.058 63.1579 215.287 63.4001 216.434 63.8729C217.581 64.3457 218.623 65.0397 219.502 65.9154C220.38 66.7911 221.078 67.8312 221.554 68.9765C222.031 70.1217 222.277 71.3496 222.279 72.59H203.379C203.383 70.0887 204.379 67.691 206.149 65.9232C207.918 64.1553 210.317 63.1616 212.818 63.16V63.16Z"
      fill="#EDEEEF"
    />
    <path
      d="M300.432 10.204C298.833 10.201 297.248 10.513 295.77 11.1224C294.291 11.7317 292.947 12.6264 291.814 13.7553C290.681 14.8843 289.781 16.2253 289.167 17.7019C288.552 19.1785 288.235 20.7616 288.232 22.361H312.597C312.592 19.137 311.308 16.0467 309.028 13.7677C306.747 11.4888 303.656 10.2072 300.432 10.204V10.204Z"
      fill="#EDEEEF"
    />
    <path
      d="M83.631 50.303C80.6392 50.2987 77.7681 51.4828 75.6491 53.5949C73.5301 55.707 72.3366 58.5742 72.331 61.566L94.899 61.606C94.9015 60.1239 94.612 58.6558 94.0471 57.2857C93.4821 55.9155 92.6528 54.67 91.6064 53.6204C90.56 52.5707 89.3171 51.7375 87.9487 51.1683C86.5803 50.5991 85.1131 50.3051 83.631 50.303V50.303Z"
      fill="#EDEEEF"
    />
    <path
      d="M230.787 55.246C233.063 55.2419 235.317 55.6862 237.421 56.5534C239.526 57.4206 241.438 58.6938 243.05 60.3003C244.662 61.9068 245.942 63.8151 246.817 65.9162C247.691 68.0173 248.143 70.2701 248.147 72.546L213.489 72.608C213.485 70.3321 213.929 68.0778 214.796 65.9736C215.664 63.8695 216.937 61.9568 218.543 60.3447C220.15 58.7327 222.058 57.4529 224.159 56.5784C226.26 55.7039 228.513 55.2518 230.789 55.248L230.787 55.246Z"
      fill="#EDEEEF"
    />
    <path
      d="M277.265 -7.62939e-06C271.34 -0.0106261 265.653 2.33281 261.456 6.51481C257.258 10.6968 254.894 16.3749 254.883 22.3L299.566 22.38C299.577 16.455 297.233 10.7684 293.051 6.57115C288.869 2.37392 283.191 0.00985699 277.266 -0.00100708L277.265 -7.62939e-06Z"
      fill="#EDEEEF"
    />
    <g clip-path="url(#clip1)">
      <path
        d="M155.249 13.3V24.154L151.649 22.093V15.374L155.249 13.3Z"
        fill="#006CC4"
      />
      <path
        d="M147.042 30.171V24.78L150.603 22.691V21.745H144.691L139.834 26.6V30.171H147.042Z"
        fill="#0085F4"
      />
      <path
        d="M148.008 25.339L151.645 23.231L155.245 25.339V30.171H148.005L148.008 25.339Z"
        fill="#006CC4"
      />
      <path
        d="M156.267 17.723L160.227 20.023V25.265L156.267 27.505V17.723Z"
        fill="#0085F4"
      />
      <path
        d="M156.267 28.689L163.588 24.518V30.171H156.267V28.689Z"
        fill="#0085F4"
      />
      <path
        d="M166.241 24.52L166.228 30.171H171.862L166.241 24.52Z"
        fill="#006CC4"
      />
      <path
        d="M161.267 24.682L163.347 23.506H166.654L173.325 30.195V26.595L168.483 21.745H161.269L161.267 24.682Z"
        fill="#0885E4"
      />
      <path
        d="M166.241 24.52H164.599V30.167H166.224L166.241 24.52Z"
        fill="#006CC4"
      />
      <path
        d="M117.903 41.219C117.954 41.218 118.004 41.228 118.051 41.2482C118.098 41.2683 118.14 41.2983 118.174 41.336L118.941 42.157C118.57 42.6348 118.086 43.0128 117.532 43.257C116.899 43.5209 116.218 43.6487 115.532 43.632C114.884 43.6421 114.242 43.52 113.643 43.273C113.102 43.0458 112.616 42.7047 112.218 42.273C111.819 41.832 111.513 41.3155 111.318 40.754C110.963 39.7075 110.906 38.5829 111.154 37.506C111.249 37.1015 111.397 36.7114 111.595 36.346C111.785 35.9974 112.02 35.6756 112.295 35.389C112.568 35.1047 112.879 34.86 113.22 34.662C113.572 34.4581 113.951 34.3036 114.345 34.203C114.77 34.0951 115.207 34.042 115.645 34.045C115.972 34.0434 116.299 34.0736 116.621 34.135C116.915 34.1915 117.203 34.2759 117.481 34.387C117.74 34.4908 117.988 34.6219 118.219 34.778C118.437 34.9249 118.641 35.0924 118.828 35.278L118.177 36.17C118.137 36.2279 118.087 36.2783 118.029 36.319C117.956 36.3658 117.87 36.3885 117.784 36.384C117.671 36.3808 117.561 36.3423 117.471 36.274C117.366 36.2007 117.237 36.1187 117.084 36.028C116.902 35.9249 116.71 35.8424 116.51 35.782C116.226 35.7016 115.932 35.6645 115.637 35.672C115.267 35.6676 114.9 35.7401 114.56 35.885C114.237 36.0247 113.949 36.2357 113.719 36.502C113.473 36.7928 113.287 37.1301 113.174 37.494C113.039 37.9269 112.974 38.3786 112.981 38.832C112.974 39.29 113.045 39.7459 113.191 40.18C113.315 40.5477 113.51 40.8875 113.765 41.18C114 41.4457 114.29 41.6564 114.616 41.797C114.945 41.9379 115.299 42.0094 115.657 42.007C115.857 42.0084 116.058 41.9977 116.257 41.975C116.427 41.9558 116.595 41.9189 116.757 41.865C116.908 41.8142 117.053 41.7472 117.189 41.665C117.335 41.5751 117.472 41.4713 117.598 41.355C117.643 41.3162 117.693 41.2827 117.746 41.255C117.795 41.2316 117.849 41.2193 117.903 41.219V41.219Z"
        fill="black"
      />
      <path
        d="M129.893 38.834C129.899 39.4857 129.782 40.1327 129.548 40.741C129.331 41.3109 128.998 41.8296 128.571 42.2641C128.143 42.6986 127.629 43.0395 127.063 43.265C125.802 43.7519 124.405 43.7519 123.144 43.265C122.576 43.0358 122.061 42.6939 121.629 42.26C121.203 41.8259 120.871 41.3088 120.653 40.741C120.193 39.5127 120.193 38.1593 120.653 36.931C120.871 36.3643 121.204 35.8484 121.629 35.415C122.061 34.9813 122.576 34.6394 123.144 34.41C124.405 33.9232 125.802 33.9232 127.063 34.41C127.629 34.6369 128.142 34.9786 128.57 35.4135C128.998 35.8484 129.331 36.3671 129.548 36.937C129.782 37.5419 129.899 38.1856 129.893 38.834V38.834ZM127.914 38.834C127.921 38.3859 127.855 37.9395 127.721 37.512C127.606 37.1438 127.416 36.8033 127.163 36.512C126.92 36.2385 126.618 36.024 126.28 35.885C125.521 35.5963 124.683 35.5963 123.924 35.885C123.585 36.0236 123.282 36.2381 123.038 36.512C122.785 36.8033 122.595 37.1438 122.48 37.512C122.222 38.3765 122.222 39.2975 122.48 40.162C122.595 40.5278 122.785 40.8656 123.038 41.154C123.282 41.4265 123.585 41.64 123.924 41.778C124.683 42.0666 125.521 42.0666 126.28 41.778C126.618 41.6393 126.92 41.426 127.163 41.154C127.416 40.8656 127.606 40.5278 127.721 40.162C127.856 39.7325 127.921 39.2842 127.914 38.834V38.834Z"
        fill="black"
      />
      <path
        d="M142.653 34.148V43.526H140.945V37.767C140.945 37.6463 140.948 37.517 140.955 37.379C140.962 37.241 140.973 37.101 140.99 36.959L138.315 42.045C138.256 42.1741 138.161 42.2829 138.04 42.3577C137.92 42.4325 137.78 42.4698 137.638 42.465H137.367C137.225 42.4694 137.086 42.4319 136.965 42.3572C136.845 42.2825 136.749 42.1739 136.69 42.045L134.002 36.939C134.015 37.0903 134.026 37.2357 134.034 37.375C134.042 37.5143 134.046 37.6447 134.047 37.766V43.525H132.339V34.147H133.809C133.891 34.147 133.964 34.147 134.028 34.153C134.087 34.1561 134.144 34.1682 134.199 34.189C134.25 34.2093 134.296 34.2399 134.334 34.279C134.382 34.3299 134.422 34.3875 134.453 34.45L137.07 39.45C137.151 39.6007 137.228 39.7557 137.299 39.915C137.37 40.0743 137.437 40.238 137.499 40.406C137.566 40.2333 137.632 40.0667 137.699 39.906C137.766 39.7453 137.842 39.588 137.928 39.434L140.528 34.451C140.559 34.3879 140.601 34.3302 140.65 34.28C140.69 34.2412 140.737 34.2106 140.789 34.19C140.843 34.1694 140.899 34.1572 140.957 34.154C141.019 34.154 141.093 34.148 141.179 34.148H142.653Z"
        fill="black"
      />
      <path
        d="M155.953 34.148V43.526H154.245V37.767C154.245 37.6463 154.248 37.517 154.255 37.379C154.262 37.241 154.273 37.101 154.29 36.959L151.615 42.045C151.556 42.1741 151.461 42.2829 151.34 42.3577C151.22 42.4325 151.08 42.4698 150.938 42.465H150.667C150.525 42.4694 150.386 42.4319 150.265 42.3572C150.145 42.2825 150.049 42.1739 149.99 42.045L147.301 36.94C147.314 37.0913 147.324 37.2367 147.333 37.376C147.342 37.5153 147.346 37.6457 147.346 37.767V43.526H145.638V34.148H147.108C147.19 34.148 147.263 34.148 147.327 34.154C147.386 34.1571 147.443 34.1692 147.498 34.19C147.549 34.2103 147.595 34.241 147.633 34.28C147.681 34.3309 147.721 34.3885 147.752 34.451L150.369 39.451C150.45 39.6017 150.527 39.7567 150.598 39.916C150.669 40.0753 150.736 40.239 150.798 40.407C150.865 40.2343 150.931 40.0677 150.998 39.907C151.065 39.7463 151.141 39.589 151.227 39.435L153.827 34.452C153.858 34.3889 153.9 34.3312 153.949 34.281C153.989 34.2422 154.036 34.2116 154.088 34.191C154.142 34.1704 154.198 34.1582 154.256 34.155C154.318 34.155 154.392 34.149 154.478 34.149L155.953 34.148Z"
        fill="black"
      />
      <path
        d="M162.767 41.975C163.056 41.9798 163.343 41.926 163.611 41.817C163.853 41.7169 164.069 41.5635 164.243 41.368C164.421 41.1641 164.554 40.9258 164.636 40.668C164.73 40.3667 164.775 40.0525 164.771 39.737V34.153H166.705V39.737C166.711 40.2718 166.618 40.803 166.431 41.304C166.259 41.7683 165.99 42.1904 165.641 42.5421C165.293 42.8938 164.873 43.1668 164.41 43.343C163.347 43.7308 162.182 43.7308 161.119 43.343C160.656 43.1676 160.235 42.8948 159.886 42.5431C159.537 42.1914 159.267 41.7688 159.095 41.304C158.908 40.803 158.815 40.2718 158.821 39.737V34.153H160.755V39.737C160.751 40.0525 160.796 40.3668 160.89 40.668C160.972 40.9258 161.105 41.1641 161.283 41.368C161.457 41.5635 161.673 41.717 161.915 41.817C162.185 41.9267 162.475 41.9805 162.767 41.975V41.975Z"
        fill="black"
      />
      <path
        d="M177.592 34.148V43.526H176.592C176.461 43.5301 176.332 43.5048 176.212 43.452C176.095 43.3896 175.992 43.3026 175.912 43.197L171.252 37.251C171.265 37.4017 171.274 37.5503 171.281 37.697C171.288 37.8437 171.291 37.9793 171.291 38.104V43.527H169.583V34.149H170.601C170.671 34.1485 170.741 34.1519 170.81 34.159C170.865 34.1645 170.918 34.1798 170.968 34.204C171.017 34.2293 171.062 34.2609 171.103 34.298C171.154 34.3459 171.202 34.3977 171.245 34.453L175.938 40.425C175.921 40.261 175.908 40.103 175.899 39.95C175.89 39.797 175.886 39.65 175.886 39.514V34.15L177.592 34.148Z"
        fill="black"
      />
      <path d="M182.53 43.526H180.583V34.148H182.53V43.526Z" fill="black" />
      <path
        d="M192.14 35.712H189.407V43.526H187.467V35.712H184.734V34.148H192.14V35.712Z"
        fill="black"
      />
      <path
        d="M198.567 39.92V43.526H196.633V39.92L193.233 34.148H194.933C195.076 34.1415 195.217 34.1838 195.333 34.268C195.436 34.3504 195.519 34.4554 195.575 34.575L197.113 37.528C197.216 37.728 197.31 37.9133 197.393 38.084C197.476 38.2546 197.55 38.427 197.615 38.601C197.675 38.4283 197.745 38.255 197.824 38.081C197.903 37.907 197.992 37.7227 198.091 37.528L199.612 34.574C199.67 34.4628 199.748 34.364 199.844 34.283C199.956 34.1892 200.098 34.1407 200.244 34.147H201.959L198.567 39.92Z"
        fill="black"
      />
      <path
        d="M148.025 6.00999L147.703 9.32201L147.203 9.46901L145.145 6.85899L145.586 6.72899C145.627 6.71466 145.672 6.71466 145.713 6.72899C145.75 6.74352 145.782 6.7677 145.807 6.799L147.034 8.399C147.074 8.451 147.115 8.50901 147.157 8.57301C147.199 8.63701 147.241 8.70366 147.282 8.77299C147.276 8.69166 147.272 8.613 147.27 8.537C147.268 8.46628 147.27 8.3955 147.276 8.325L147.437 6.31499C147.44 6.27699 147.453 6.24058 147.476 6.21001C147.501 6.17359 147.539 6.14736 147.582 6.136L148.025 6.00999Z"
        fill="black"
      />
      <path
        d="M150.217 8.71201L149.654 8.82902L149.026 5.80801L149.589 5.69001L150.217 8.71201Z"
        fill="black"
      />
      <path
        d="M153.131 5.624L152.211 5.745L152.55 8.337L151.982 8.41201L151.643 5.82L150.723 5.941L150.662 5.473L153.07 5.156L153.131 5.624Z"
        fill="black"
      />
      <path
        d="M158.34 5.04601L158.286 8.131L157.711 8.121L157.735 6.772L156.29 6.74701L156.266 8.09601L155.691 8.086L155.745 5L156.32 5.01001L156.297 6.33701L157.742 6.362L157.765 5.035L158.34 5.04601Z"
        fill="black"
      />
      <path
        d="M162.011 8.56001L161.572 8.503C161.529 8.49908 161.488 8.48037 161.457 8.45C161.43 8.42213 161.41 8.38771 161.399 8.35L161.252 7.69601L159.987 7.53201L159.679 8.12701C159.661 8.16019 159.634 8.18785 159.602 8.20701C159.565 8.22997 159.52 8.23883 159.477 8.232L159.034 8.17501L160.634 5.275L161.212 5.35L162.011 8.56001ZM161.157 7.27401L160.917 6.208C160.904 6.16067 160.892 6.10467 160.881 6.04C160.87 5.97533 160.859 5.90567 160.848 5.831C160.82 5.9 160.793 5.96601 160.765 6.02601C160.737 6.08601 160.711 6.13801 160.687 6.18301L160.187 7.14901L161.157 7.27401Z"
        fill="black"
      />
      <path
        d="M164.973 8.50301C164.988 8.50677 165.002 8.5136 165.015 8.52306C165.027 8.53252 165.037 8.5444 165.045 8.558L165.208 8.84901C165.053 8.97012 164.871 9.05239 164.677 9.089C164.455 9.12583 164.228 9.11493 164.01 9.05702C163.804 9.01128 163.609 8.9238 163.438 8.8C163.283 8.68636 163.154 8.54118 163.059 8.37401C162.964 8.20282 162.905 8.01391 162.886 7.81902C162.864 7.60429 162.88 7.38746 162.932 7.17802C162.98 6.96603 163.066 6.76463 163.187 6.584C163.297 6.41984 163.439 6.2797 163.605 6.17201C163.77 6.06684 163.954 5.99704 164.147 5.96703C164.356 5.93521 164.569 5.9454 164.774 5.99702C164.974 6.04104 165.163 6.12504 165.329 6.244C165.474 6.34846 165.597 6.47905 165.694 6.62901L165.446 6.84401C165.431 6.85815 165.413 6.86932 165.393 6.877C165.368 6.88502 165.342 6.88502 165.317 6.877C165.295 6.87121 165.274 6.85988 165.257 6.84401C165.238 6.82701 165.217 6.807 165.195 6.783C165.173 6.759 165.147 6.73303 165.118 6.70403C165.085 6.6723 165.049 6.64352 165.011 6.61803C164.964 6.58691 164.915 6.55979 164.863 6.537C164.799 6.50843 164.732 6.48601 164.663 6.47002C164.537 6.43838 164.406 6.43295 164.278 6.45403C164.157 6.4746 164.042 6.52208 163.942 6.593C163.835 6.67027 163.745 6.76824 163.677 6.88103C163.596 7.01432 163.538 7.1599 163.504 7.31203C163.465 7.46475 163.453 7.62311 163.468 7.78001C163.481 7.91232 163.52 8.04073 163.583 8.158C163.642 8.26591 163.723 8.35973 163.822 8.433C163.923 8.50814 164.038 8.5616 164.161 8.59001C164.23 8.60693 164.3 8.61928 164.37 8.627C164.43 8.633 164.489 8.633 164.549 8.627C164.605 8.62176 164.66 8.61036 164.713 8.593C164.769 8.57425 164.824 8.55015 164.876 8.52101C164.892 8.51204 164.909 8.50532 164.927 8.50102C164.942 8.49844 164.958 8.4991 164.973 8.50301V8.50301Z"
        fill="black"
      />
      <path
        d="M167.033 8.03001L167.159 8.07499C167.202 8.09171 167.247 8.09988 167.293 8.09901C167.332 8.0965 167.37 8.08373 167.403 8.06199L168.561 7.32899C168.602 7.30088 168.649 7.28304 168.698 7.27699C168.748 7.27445 168.799 7.28265 168.846 7.301L169.312 7.46601L167.912 8.32999C167.842 8.37826 167.762 8.41036 167.678 8.42399C167.717 8.45469 167.751 8.49191 167.778 8.534C167.805 8.58083 167.826 8.63134 167.839 8.684L168.368 10.403L167.892 10.235C167.841 10.2206 167.795 10.1938 167.758 10.157C167.732 10.1262 167.715 10.0894 167.707 10.05L167.264 8.68501C167.254 8.64399 167.232 8.60662 167.202 8.577C167.162 8.5438 167.115 8.51899 167.065 8.50401L166.894 8.44401L166.444 9.72401L165.904 9.533L166.928 6.62299L167.468 6.814L167.033 8.03001Z"
        fill="black"
      />
      <path
        d="M188.399 32.252C187.388 28.0065 185.548 24.0026 182.985 20.4706C180.421 16.9386 177.185 13.9481 173.462 11.671C172.397 11.0193 171.295 10.4303 170.162 9.90701L170.362 9.46799C171.514 9.99919 172.633 10.5972 173.715 11.259C177.492 13.5696 180.776 16.604 183.376 20.1879C185.977 23.7717 187.844 27.8343 188.869 32.142L188.399 32.252Z"
        fill="black"
      />
      <path
        d="M124.448 32.252L123.979 32.141C125.222 26.8654 127.729 21.9712 131.284 17.8801C134.84 13.789 139.336 10.6237 144.387 8.65699L144.561 9.107C139.583 11.0452 135.151 14.1647 131.648 18.1968C128.144 22.2289 125.673 27.0525 124.448 32.252Z"
        fill="black"
      />
      <path
        d="M141.664 67.091L141.285 67.806L142.185 68.286L141.985 68.655L141.085 68.175L140.698 68.904L141.839 69.513L141.639 69.896L140.018 69.031L141.385 66.454L143.006 67.319L142.806 67.7L141.664 67.091Z"
        fill="black"
      />
      <path
        d="M145.689 70.051C145.616 70.2386 145.507 70.4103 145.369 70.557C145.242 70.6937 145.086 70.8018 144.914 70.874C144.742 70.9462 144.556 70.981 144.369 70.976C144.163 70.9712 143.959 70.9275 143.769 70.847L142.741 70.429L143.841 67.724L144.869 68.142C145.061 68.2174 145.237 68.3287 145.388 68.47C145.524 68.598 145.632 68.7525 145.706 68.924C145.778 69.0952 145.814 69.2794 145.811 69.465C145.808 69.6663 145.767 69.8652 145.689 70.051V70.051ZM145.174 69.842C145.23 69.7073 145.264 69.5644 145.274 69.419C145.283 69.2943 145.267 69.1689 145.225 69.051C145.184 68.9378 145.118 68.8352 145.032 68.751C144.937 68.6599 144.825 68.5885 144.703 68.541L144.179 68.328L143.408 70.228L143.932 70.441C144.053 70.4924 144.183 70.5192 144.314 70.52C144.433 70.5198 144.551 70.4928 144.659 70.441C144.771 70.3855 144.87 70.3072 144.95 70.211C145.044 70.1007 145.119 69.9762 145.174 69.842V69.842Z"
        fill="black"
      />
      <path
        d="M146.785 71.918L146.266 71.757L147.128 68.968L147.647 69.129L146.785 71.918Z"
        fill="black"
      />
      <path
        d="M150.591 70.328L149.735 70.128L149.183 72.539L148.655 72.418L149.207 70.007L148.351 69.807L148.451 69.372L150.69 69.888L150.591 70.328Z"
        fill="black"
      />
      <path
        d="M151.623 72.992L151.086 72.91L151.525 70.024L152.062 70.106L151.623 72.992Z"
        fill="black"
      />
      <path
        d="M155.825 71.901C155.814 72.1039 155.766 72.303 155.682 72.488C155.604 72.6596 155.493 72.8136 155.354 72.941C155.214 73.0674 155.049 73.1631 154.87 73.2221C154.474 73.3455 154.047 73.3181 153.67 73.145C153.5 73.0633 153.348 72.9472 153.225 72.804C153.103 72.6599 153.011 72.4926 152.955 72.312C152.837 71.92 152.864 71.4988 153.031 71.125C153.11 70.9532 153.222 70.7991 153.362 70.672C153.502 70.5458 153.668 70.4501 153.847 70.391C154.043 70.3268 154.25 70.302 154.455 70.318C154.595 70.326 154.734 70.3523 154.868 70.396C154.991 70.4364 155.108 70.4929 155.216 70.564C155.32 70.6327 155.413 70.7154 155.494 70.81C155.574 70.9049 155.642 71.0102 155.694 71.1231C155.748 71.2399 155.787 71.3633 155.809 71.4901C155.831 71.6259 155.836 71.7639 155.825 71.901ZM155.272 71.866C155.283 71.7203 155.271 71.5737 155.235 71.432C155.204 71.3105 155.149 71.1966 155.073 71.0971C154.999 71.0032 154.905 70.9272 154.798 70.875C154.557 70.7651 154.285 70.7477 154.032 70.8261C153.92 70.8647 153.817 70.9279 153.732 71.0111C153.645 71.1004 153.577 71.2065 153.532 71.323C153.428 71.5978 153.409 71.8973 153.477 72.1831C153.508 72.3045 153.563 72.4183 153.64 72.517C153.714 72.6104 153.809 72.6859 153.916 72.738C154.156 72.8477 154.429 72.8652 154.681 72.7871C154.794 72.7491 154.896 72.6862 154.981 72.603C155.068 72.5141 155.136 72.4083 155.181 72.292C155.235 72.156 155.266 72.0121 155.273 71.866H155.272Z"
        fill="black"
      />
      <path
        d="M159.29 70.304L159.444 73.219L159.167 73.234C159.13 73.2374 159.093 73.2323 159.058 73.219C159.024 73.2034 158.995 73.1806 158.971 73.152L157.35 71.289C157.363 71.377 157.371 71.459 157.375 71.534L157.47 73.324L156.993 73.349L156.839 70.434L157.123 70.419C157.143 70.4179 157.162 70.4179 157.182 70.419C157.197 70.4199 157.213 70.4233 157.227 70.429C157.241 70.435 157.254 70.4431 157.266 70.453C157.281 70.4663 157.296 70.4807 157.309 70.496L158.936 72.366C158.929 72.3194 158.924 72.273 158.919 72.227C158.914 72.181 158.91 72.139 158.908 72.1L158.814 70.328L159.29 70.304Z"
        fill="black"
      />
      <path
        d="M163.918 72.019C163.963 72.0073 164.012 72.0142 164.052 72.038C164.071 72.05 164.087 72.0658 164.099 72.0844C164.111 72.103 164.119 72.124 164.123 72.146L164.183 72.438L162.227 72.844L162.194 72.682C162.187 72.6463 162.187 72.6097 162.194 72.574C162.201 72.5336 162.216 72.4953 162.24 72.462L162.926 71.412C162.983 71.3233 163.034 71.2393 163.077 71.16C163.117 71.0868 163.151 71.0101 163.177 70.931C163.201 70.86 163.216 70.7865 163.223 70.712C163.229 70.638 163.224 70.5636 163.209 70.491C163.197 70.4291 163.175 70.3698 163.142 70.316C163.114 70.2704 163.076 70.2315 163.031 70.202C162.987 70.1736 162.936 70.1555 162.884 70.149C162.825 70.142 162.766 70.1451 162.708 70.158C162.653 70.1688 162.6 70.1883 162.552 70.216C162.507 70.2423 162.468 70.2761 162.435 70.316C162.403 70.3529 162.378 70.3948 162.36 70.44C162.342 70.4856 162.331 70.5339 162.328 70.583C162.324 70.6352 162.302 70.6844 162.266 70.722C162.222 70.7533 162.169 70.7695 162.115 70.768L161.849 70.776C161.839 70.6463 161.853 70.5159 161.889 70.391C161.922 70.2817 161.975 70.1798 162.047 70.091C162.119 70.003 162.207 69.9293 162.306 69.874C162.413 69.8146 162.529 69.7721 162.649 69.748C162.771 69.7213 162.898 69.7159 163.022 69.732C163.133 69.746 163.24 69.7824 163.336 69.839C163.429 69.8945 163.508 69.9692 163.57 70.058C163.636 70.1546 163.682 70.2639 163.704 70.379C163.725 70.4776 163.73 70.5789 163.718 70.679C163.705 70.7758 163.682 70.8707 163.647 70.962C163.611 71.0573 163.566 71.1494 163.514 71.237C163.46 71.3283 163.403 71.4213 163.343 71.516L162.836 72.308C162.893 72.2772 162.952 72.2502 163.012 72.227C163.068 72.2055 163.125 72.1885 163.183 72.176L163.918 72.019Z"
        fill="black"
      />
      <path
        d="M166.774 70.172C166.843 70.3849 166.882 70.6064 166.889 70.83C166.895 71.0039 166.868 71.1774 166.809 71.341C166.757 71.4795 166.673 71.6033 166.563 71.702C166.454 71.7989 166.324 71.8706 166.184 71.912C166.045 71.9557 165.898 71.9683 165.754 71.949C165.609 71.9277 165.472 71.8718 165.354 71.786C165.214 71.6829 165.096 71.5539 165.005 71.406C164.775 71.0202 164.643 70.5843 164.619 70.136C164.613 69.9629 164.639 69.79 164.698 69.627C164.749 69.4891 164.832 69.3656 164.941 69.267C165.05 69.1708 165.179 69.0994 165.318 69.058C165.458 69.0141 165.605 69.0011 165.75 69.02C165.896 69.0405 166.035 69.0961 166.155 69.182C166.295 69.2845 166.414 69.4128 166.506 69.56C166.624 69.7505 166.714 69.9565 166.774 70.172V70.172ZM166.283 70.322C166.234 70.1524 166.167 69.9885 166.083 69.833C166.028 69.7283 165.955 69.6336 165.868 69.553C165.806 69.4954 165.73 69.4562 165.647 69.44C165.575 69.428 165.502 69.4327 165.432 69.454C165.363 69.4753 165.301 69.5123 165.249 69.562C165.19 69.622 165.149 69.6971 165.131 69.779C165.105 69.8944 165.098 70.0134 165.111 70.131C165.155 70.4794 165.258 70.8176 165.416 71.131C165.471 71.236 165.543 71.331 165.629 71.412C165.69 71.4699 165.766 71.5094 165.848 71.526C165.919 71.5384 165.991 71.5339 166.06 71.513C166.13 71.4917 166.193 71.4543 166.246 71.404C166.305 71.3443 166.347 71.2691 166.366 71.187C166.393 71.0714 166.4 70.9521 166.388 70.834C166.371 70.6601 166.336 70.4885 166.283 70.322V70.322Z"
        fill="black"
      />
      <path
        d="M169.623 70.12C169.665 70.1003 169.714 70.0981 169.758 70.114C169.778 70.1225 169.797 70.1351 169.812 70.1512C169.828 70.1672 169.839 70.1862 169.847 70.2071L169.96 70.484L168.111 71.242L168.049 71.089C168.036 71.0552 168.029 71.0193 168.029 70.9831C168.028 70.9424 168.037 70.902 168.054 70.865L168.537 69.7071C168.577 69.6097 168.61 69.518 168.637 69.432C168.664 69.3526 168.683 69.2709 168.695 69.188C168.706 69.1138 168.708 69.0387 168.701 68.964C168.694 68.8901 168.675 68.8177 168.647 68.7491C168.624 68.6901 168.59 68.6359 168.547 68.589C168.511 68.5493 168.466 68.5179 168.417 68.497C168.368 68.4774 168.316 68.4688 168.263 68.472C168.204 68.4758 168.146 68.4897 168.091 68.513C168.039 68.5338 167.991 68.5628 167.949 68.599C167.872 68.6638 167.82 68.7526 167.8 68.851C167.79 68.8991 167.788 68.9484 167.794 68.997C167.8 69.0491 167.787 69.1016 167.758 69.1451C167.721 69.1841 167.671 69.2097 167.618 69.2181L167.358 69.274C167.325 69.1486 167.314 69.0182 167.327 68.889C167.339 68.7752 167.372 68.6648 167.427 68.5641C167.481 68.4634 167.554 68.3743 167.643 68.302C167.737 68.2238 167.843 68.1607 167.957 68.115C168.073 68.066 168.196 68.0373 168.321 68.0301C168.432 68.0238 168.544 68.0401 168.649 68.078C168.751 68.1158 168.843 68.1748 168.92 68.2511C169.003 68.334 169.067 68.433 169.11 68.542C169.149 68.6358 169.173 68.7356 169.179 68.8371C169.184 68.9344 169.178 69.0321 169.161 69.128C169.142 69.2285 169.115 69.3272 169.08 69.4231C169.043 69.5224 169.004 69.6241 168.963 69.7281L168.609 70.599C168.659 70.5584 168.712 70.521 168.767 70.487C168.818 70.4555 168.871 70.4281 168.926 70.4051L169.623 70.12Z"
        fill="black"
      />
      <path
        d="M172.094 67.782C172.201 67.9787 172.279 68.1894 172.327 68.408C172.365 68.5778 172.369 68.7534 172.341 68.925C172.316 69.0706 172.255 69.2079 172.165 69.325C172.075 69.4401 171.96 69.5343 171.83 69.601C171.701 69.6695 171.559 69.7091 171.414 69.717C171.267 69.7229 171.121 69.693 170.989 69.63C170.833 69.5545 170.692 69.4496 170.576 69.321C170.281 68.9833 170.072 68.5791 169.968 68.143C169.93 67.9739 169.925 67.7991 169.953 67.628C169.977 67.4827 170.037 67.3454 170.126 67.228C170.216 67.1131 170.329 67.0193 170.459 66.953C170.588 66.8847 170.73 66.8451 170.876 66.837C171.023 66.8302 171.17 66.8594 171.304 66.922C171.46 66.9972 171.601 67.1018 171.718 67.23C171.869 67.3955 171.995 67.5813 172.094 67.782ZM171.638 68.02C171.56 67.8623 171.465 67.7135 171.355 67.576C171.282 67.4829 171.193 67.4027 171.093 67.339C171.022 67.2937 170.939 67.2691 170.855 67.268C170.783 67.2694 170.711 67.2875 170.647 67.321C170.584 67.3542 170.529 67.4018 170.487 67.46C170.44 67.5296 170.413 67.611 170.41 67.695C170.405 67.8133 170.42 67.9316 170.454 68.045C170.56 68.3812 170.723 68.6965 170.937 68.977C171.01 69.0701 171.098 69.1502 171.198 69.214C171.268 69.2598 171.35 69.2847 171.434 69.286C171.506 69.2851 171.576 69.2673 171.64 69.234C171.704 69.2002 171.76 69.1519 171.803 69.093C171.851 69.0231 171.878 68.9415 171.882 68.857C171.887 68.7384 171.873 68.6198 171.839 68.506C171.79 68.337 171.723 68.1737 171.639 68.019L171.638 68.02Z"
        fill="black"
      />
      <path
        d="M173.565 67.334L173.31 66.925C177.124 64.5322 180.389 61.3607 182.892 57.6182C185.395 53.8757 187.079 49.6466 187.834 45.208L188.309 45.288C187.543 49.7939 185.833 54.0871 183.293 57.8863C180.752 61.6856 177.437 64.9051 173.565 67.334V67.334Z"
        fill="black"
      />
      <path
        d="M138.928 67.109C135.15 64.6661 131.921 61.4654 129.444 57.7096C126.967 53.9538 125.297 49.7247 124.54 45.29L125.015 45.209C125.761 49.5777 127.406 53.7438 129.846 57.4437C132.286 61.1436 135.467 64.2966 139.189 66.703L138.928 67.109Z"
        fill="black"
      />
      <path
        d="M156.422 68.547C149.686 68.5394 143.158 66.2069 137.943 61.9435C132.727 57.6801 129.143 51.7472 127.796 45.147L128.032 45.099C129.362 51.6478 132.915 57.5354 138.089 61.7644C143.263 65.9933 149.74 68.3036 156.423 68.3036C163.105 68.3036 169.582 65.9933 174.756 61.7644C179.93 57.5354 183.483 51.6478 184.813 45.099L185.049 45.147C183.702 51.7475 180.118 57.6807 174.903 61.9442C169.687 66.2077 163.159 68.5399 156.423 68.547H156.422Z"
        fill="black"
      />
      <path
        d="M128.297 32.226L128.063 32.168C129.632 25.8884 133.225 20.3004 138.288 16.268C143.445 12.173 149.837 9.94402 156.423 9.94402C163.008 9.94402 169.4 12.173 174.557 16.268C179.62 20.3002 183.213 25.8884 184.78 32.168L184.546 32.226C182.997 25.9372 179.384 20.3492 174.286 16.3545C169.188 12.3599 162.898 10.1892 156.421 10.1892C149.944 10.1892 143.654 12.3599 138.556 16.3545C133.458 20.3492 129.845 25.9372 128.296 32.226H128.297Z"
        fill="black"
      />
      <path
        d="M157.444 60.078H157.48L157.708 60.064C157.52 60.077 157.326 60.087 157.13 60.092H157.1C157.215 60.089 157.33 60.084 157.444 60.078Z"
        fill="black"
      />
      <path
        d="M157.101 60.173L157.093 60.012H157.119C157.245 60.012 157.367 60.003 157.487 59.996L157.702 59.983L157.712 60.144L157.495 60.157H157.447C157.333 60.1643 157.218 60.1697 157.101 60.173Z"
        fill="black"
      />
      <path
        d="M154.848 60.033L155.054 60.05H155.019L154.848 60.033Z"
        fill="black"
      />
      <path
        d="M155.048 60.13L154.841 60.113L154.854 59.953L155.06 59.97L155.048 60.13Z"
        fill="black"
      />
      <path
        d="M156.42 60.101H156.415C156.637 60.101 156.86 60.101 157.08 60.091H157.11C156.884 60.098 156.651 60.102 156.42 60.101Z"
        fill="black"
      />
      <path
        d="M156.447 60.184H156.161L156.396 60.021H156.42C156.651 60.021 156.882 60.021 157.107 60.011L157.115 60.172H157.084C156.884 60.181 156.67 60.184 156.447 60.184Z"
        fill="black"
      />
      <path
        d="M155.037 60.052H155.075H155.112C155.307 60.066 155.512 60.077 155.712 60.085H155.691C155.47 60.077 155.249 60.065 155.037 60.052Z"
        fill="black"
      />
      <path
        d="M155.713 60.169C155.505 60.161 155.302 60.15 155.106 60.136L155.03 60.129L155.046 59.969C155.246 59.985 155.471 59.998 155.701 60.007H155.722L155.714 60.146L155.713 60.169Z"
        fill="black"
      />
      <path
        d="M155.714 60.087H155.734C155.952 60.096 156.174 60.1 156.396 60.101C156.17 60.101 155.94 60.096 155.714 60.087Z"
        fill="black"
      />
      <path
        d="M156.402 60.182C156.166 60.182 155.942 60.182 155.728 60.169H155.708L155.717 60.041V60.008C155.946 60.017 156.177 60.022 156.401 60.022H156.634L156.434 60.179L156.402 60.182ZM155.717 60.038L155.711 60.086L155.718 60.055L155.717 60.038Z"
        fill="black"
      />
      <path
        d="M160.085 59.414L159.706 59.445L159.657 59.474L160.03 59.443C160.369 59.413 160.684 59.379 160.973 59.343L161.043 59.312C160.748 59.3493 160.429 59.3833 160.085 59.414Z"
        fill="black"
      />
      <path
        d="M159.338 59.582L159.682 59.367H159.701L160.057 59.338H160.08C160.42 59.308 160.741 59.273 161.034 59.238L161.548 59.171L161.079 59.39L161.007 59.422L160.986 59.428C160.695 59.466 160.376 59.5 160.039 59.528L159.714 59.555L159.338 59.582Z"
        fill="black"
      />
      <path
        d="M158.177 59.528L158.15 59.555C158.65 59.539 159.141 59.513 159.614 59.478L159.663 59.449C159.185 59.485 158.687 59.511 158.177 59.528Z"
        fill="black"
      />
      <path
        d="M157.952 59.642L158.145 59.448H158.177C158.696 59.431 159.195 59.404 159.659 59.369L159.982 59.345L159.641 59.558H159.621C159.164 59.592 158.671 59.618 158.154 59.635L157.952 59.642Z"
        fill="black"
      />
      <path
        d="M154.977 59.517C154.477 59.497 153.977 59.469 153.507 59.433L153.547 59.463C154.014 59.498 154.499 59.526 154.995 59.546L154.977 59.517Z"
        fill="black"
      />
      <path
        d="M155.144 59.63H154.992C154.506 59.611 154.018 59.583 153.541 59.547H153.517L153.246 59.338L153.513 59.358C153.999 59.395 154.492 59.423 154.98 59.442H155.019L155.042 59.474L155.062 59.504L155.144 59.63Z"
        fill="black"
      />
      <path
        d="M158.135 59.529C157.628 59.546 157.112 59.553 156.596 59.552C156.596 59.561 156.596 59.57 156.596 59.579C157.104 59.579 157.613 59.574 158.112 59.558L158.135 59.529Z"
        fill="black"
      />
      <path
        d="M156.758 59.659H156.5L156.527 59.485L156.597 59.472C157.13 59.472 157.647 59.466 158.133 59.449L158.322 59.443L158.195 59.584C158.184 59.595 158.175 59.606 158.163 59.617L158.141 59.638H158.111C157.66 59.652 157.205 59.659 156.758 59.659Z"
        fill="black"
      />
      <path
        d="M149.687 58.79L149.807 58.838C149.877 58.865 149.954 58.891 150.037 58.917L149.945 58.88C149.851 58.85 149.767 58.82 149.687 58.79Z"
        fill="black"
      />
      <path
        d="M150.013 58.993C149.928 58.967 149.849 58.94 149.778 58.912L149.657 58.864L149.716 58.714C149.792 58.744 149.876 58.773 149.969 58.801L150.069 58.84L150.013 58.993Z"
        fill="black"
      />
      <path
        d="M150.224 58.959C150.132 58.935 150.046 58.911 149.966 58.886L150.058 58.923C150.136 58.947 150.221 58.971 150.312 58.995C150.512 59.047 150.73 59.0957 150.966 59.141L150.887 59.108C150.647 59.061 150.424 59.011 150.224 58.959Z"
        fill="black"
      />
      <path
        d="M150.951 59.22C150.709 59.174 150.487 59.12 150.291 59.073C150.199 59.049 150.113 59.025 150.034 59.001L149.934 58.961L149.989 58.81C150.068 58.834 150.152 58.859 150.243 58.882C150.437 58.933 150.659 58.982 150.901 59.029L150.949 59.048L150.994 59.067L150.951 59.22Z"
        fill="black"
      />
      <path
        d="M156.554 59.546C156.039 59.546 155.524 59.533 155.02 59.514C155.027 59.523 155.033 59.5323 155.039 59.542C155.539 59.561 156.039 59.572 156.55 59.574C156.551 59.569 156.553 59.561 156.554 59.546Z"
        fill="black"
      />
      <path
        d="M156.549 59.659C156.049 59.659 155.54 59.646 155.035 59.627H154.992L154.969 59.591C154.965 59.5837 154.96 59.5767 154.955 59.57L154.849 59.434L155.021 59.44C155.55 59.459 156.065 59.47 156.553 59.472H156.643L156.618 59.649L156.549 59.659Z"
        fill="black"
      />
      <path
        d="M162.783 58.964L162.897 58.922C162.654 59.0075 162.405 59.0763 162.153 59.128L162.067 59.161C162.31 59.1114 162.549 59.0456 162.783 58.964Z"
        fill="black"
      />
      <path
        d="M162.084 59.239L162.039 59.085L162.125 59.052C162.378 58.9999 162.627 58.9311 162.87 58.846L162.926 58.997L162.811 59.04C162.573 59.1223 162.33 59.1888 162.084 59.239Z"
        fill="black"
      />
      <path
        d="M150.917 59.113L150.994 59.147C151.342 59.213 151.728 59.271 152.143 59.323L152.082 59.292C151.661 59.24 151.271 59.18 150.917 59.113Z"
        fill="black"
      />
      <path
        d="M152.601 59.461L152.134 59.403C151.71 59.35 151.321 59.291 150.98 59.226L150.961 59.22L150.884 59.186L150.303 58.915L150.932 59.034C151.281 59.1 151.671 59.16 152.092 59.212L152.117 59.22L152.601 59.461Z"
        fill="black"
      />
      <path
        d="M161.077 59.308L161.007 59.339C161.399 59.287 161.744 59.2297 162.042 59.167L162.128 59.133C161.826 59.197 161.475 59.261 161.077 59.308Z"
        fill="black"
      />
      <path
        d="M160.464 59.491L160.99 59.258L161.042 59.234L161.066 59.227C161.45 59.177 161.801 59.119 162.111 59.053L162.158 59.206L162.072 59.24C161.756 59.308 161.406 59.366 161.018 59.417L160.464 59.491Z"
        fill="black"
      />
      <path
        d="M152.119 59.296L152.179 59.328C152.595 59.379 153.041 59.423 153.506 59.458L153.466 59.429C152.994 59.392 152.542 59.348 152.119 59.296Z"
        fill="black"
      />
      <path
        d="M153.788 59.56L153.504 59.539C153.034 59.503 152.586 59.459 152.173 59.408L152.145 59.399L152.083 59.366L151.727 59.166L152.132 59.216C152.543 59.267 152.995 59.316 153.476 59.349H153.498L153.788 59.56Z"
        fill="black"
      />
      <path
        d="M165.05 57.486L164.975 57.543C165.348 57.4664 165.716 57.3645 166.075 57.238C166.103 57.218 166.132 57.2 166.159 57.179C165.797 57.307 165.426 57.4096 165.05 57.486V57.486Z"
        fill="black"
      />
      <path
        d="M164.638 57.699L165.038 57.408C165.411 57.3338 165.779 57.2335 166.138 57.108L166.676 56.908L166.213 57.247L166.148 57.293L166.109 57.316C165.745 57.4438 165.373 57.5468 164.995 57.624L164.638 57.699Z"
        fill="black"
      />
      <path
        d="M145.979 56.76L146.066 56.822C146.335 56.9735 146.62 57.093 146.917 57.178L146.837 57.119C146.538 57.0331 146.25 56.9126 145.979 56.76V56.76Z"
        fill="black"
      />
      <path
        d="M147.323 57.387L146.893 57.252C146.59 57.1649 146.299 57.0427 146.024 56.888L146.006 56.876L145.933 56.825L146.019 56.689C146.285 56.8378 146.567 56.9552 146.86 57.039L146.884 57.051L147.323 57.387Z"
        fill="black"
      />
      <path
        d="M154.345 58.067C153.594 58.038 152.858 57.996 152.152 57.942L152.186 57.994C152.886 58.047 153.615 58.089 154.36 58.118L154.345 58.067Z"
        fill="black"
      />
      <path
        d="M154.358 58.199C153.609 58.169 152.877 58.128 152.181 58.075H152.142L151.998 57.854L152.158 57.866C152.873 57.92 153.61 57.966 154.348 57.991H154.405L154.47 58.198L154.358 58.199Z"
        fill="black"
      />
      <path
        d="M165.012 57.495C164.562 57.59 164.039 57.678 163.445 57.756L163.384 57.809C163.973 57.733 164.492 57.6449 164.937 57.5509L165.012 57.495Z"
        fill="black"
      />
      <path
        d="M163.134 57.923L163.411 57.68H163.434C164.016 57.603 164.541 57.516 164.995 57.42L165.337 57.348L165.061 57.563L165 57.609L164.954 57.634C164.495 57.734 163.97 57.819 163.394 57.894L163.134 57.923Z"
        fill="black"
      />
      <path
        d="M145.89 56.701L145.984 56.768L146.05 56.811L145.963 56.749L145.89 56.701Z"
        fill="black"
      />
      <path
        d="M146.007 56.879L145.944 56.838L145.849 56.771H145.843L145.936 56.64L146.002 56.684L146.092 56.748L146.007 56.879Z"
        fill="black"
      />
      <path
        d="M152.092 57.938C151.392 57.884 150.713 57.817 150.083 57.738L150.135 57.792C150.76 57.868 151.43 57.934 152.127 57.992L152.092 57.938Z"
        fill="black"
      />
      <path
        d="M152.287 58.08L152.121 58.067C151.421 58.013 150.75 57.946 150.121 57.867H150.093L149.861 57.629L150.089 57.657C150.725 57.734 151.399 57.801 152.094 57.857H152.133L152.287 58.08Z"
        fill="black"
      />
      <path
        d="M148.311 57.514L148.244 57.458C147.885 57.39 147.553 57.315 147.253 57.237C147.12 57.201 146.992 57.1647 146.869 57.128L146.949 57.187C147.068 57.224 147.194 57.26 147.33 57.295C147.627 57.372 147.955 57.446 148.311 57.514Z"
        fill="black"
      />
      <path
        d="M148.611 57.652L148.296 57.592C147.948 57.525 147.616 57.451 147.309 57.372C147.172 57.336 147.044 57.3 146.924 57.263L146.9 57.251L146.428 56.91L146.892 57.051C147.011 57.087 147.138 57.123 147.274 57.159C147.574 57.238 147.908 57.312 148.259 57.379H148.28L148.296 57.393L148.361 57.448L148.611 57.652Z"
        fill="black"
      />
      <path
        d="M156.698 58.119C155.929 58.119 155.162 58.1 154.41 58.071C154.41 58.089 154.42 58.105 154.425 58.122C155.171 58.15 155.932 58.167 156.694 58.17C156.695 58.154 156.696 58.137 156.698 58.119Z"
        fill="black"
      />
      <path
        d="M156.77 58.251H156.694C155.951 58.251 155.187 58.232 154.422 58.203H154.366L154.349 58.149C154.343 58.131 154.338 58.113 154.333 58.094L154.306 57.994H154.414C155.156 58.023 155.924 58.039 156.699 58.042H156.787L156.779 58.13C156.779 58.147 156.779 58.162 156.779 58.178L156.77 58.251Z"
        fill="black"
      />
      <path
        d="M150.028 57.733C149.399 57.655 148.815 57.566 148.289 57.466L148.356 57.522C148.878 57.622 149.456 57.709 150.081 57.787L150.028 57.733Z"
        fill="black"
      />
      <path
        d="M150.295 57.888L150.072 57.867C149.432 57.787 148.85 57.698 148.342 57.601H148.322L148.292 57.576L148.237 57.53L148.012 57.33L148.304 57.385C148.827 57.485 149.411 57.574 150.038 57.651H150.067L150.295 57.888Z"
        fill="black"
      />
      <path
        d="M163.334 57.816L163.394 57.763C162.955 57.8196 162.479 57.8707 161.965 57.916C161.779 57.932 161.591 57.948 161.401 57.962L161.357 58.014C161.546 58 161.732 57.985 161.917 57.968C162.426 57.9213 162.899 57.8707 163.334 57.816Z"
        fill="black"
      />
      <path
        d="M161.171 58.109L161.362 57.885H161.395C161.585 57.871 161.773 57.855 161.959 57.839C162.454 57.795 162.933 57.739 163.384 57.686L163.641 57.653L163.368 57.896H163.343C162.901 57.953 162.424 58.005 161.923 58.049C161.738 58.066 161.551 58.08 161.362 58.095L161.171 58.109Z"
        fill="black"
      />
      <path
        d="M159.059 58.087C158.302 58.112 157.532 58.122 156.759 58.119C156.759 58.137 156.759 58.153 156.759 58.17C157.521 58.17 158.285 58.162 159.036 58.137C159.043 58.121 159.051 58.105 159.059 58.087Z"
        fill="black"
      />
      <path
        d="M156.965 58.251H156.665L156.686 58.039H156.759C157.536 58.039 158.308 58.031 159.052 58.007H159.181L159.081 58.221H159.03C158.365 58.24 157.672 58.251 156.965 58.251Z"
        fill="black"
      />
      <path
        d="M161.34 57.968C160.624 58.021 159.88 58.06 159.123 58.085C159.115 58.102 159.107 58.12 159.099 58.136C159.849 58.111 160.586 58.073 161.299 58.02L161.34 57.968Z"
        fill="black"
      />
      <path
        d="M158.966 58.22L159.072 58.006H159.121C159.886 57.981 160.631 57.942 161.334 57.889L161.526 57.875L161.336 58.099H161.303C160.596 58.151 159.855 58.191 159.103 58.215L158.966 58.22Z"
        fill="black"
      />
      <path
        d="M169.772 54.267L169.85 54.183C169.833 54.202 169.814 54.221 169.793 54.24L169.719 54.32C169.738 54.301 169.756 54.284 169.772 54.267Z"
        fill="black"
      />
      <path
        d="M169.773 54.378L169.661 54.263L169.712 54.209L169.735 54.184C169.755 54.165 169.771 54.15 169.785 54.135L169.792 54.127L169.91 54.236L169.902 54.244L169.832 54.321C169.814 54.34 169.794 54.359 169.773 54.378Z"
        fill="black"
      />
      <path
        d="M144.219 54.618C143.836 54.509 143.466 54.3552 143.119 54.16L143.19 54.24C143.535 54.4344 143.901 54.5871 144.282 54.695L144.219 54.618Z"
        fill="black"
      />
      <path
        d="M144.529 54.857L144.259 54.773C143.872 54.663 143.499 54.5076 143.149 54.31L143.131 54.295L143.06 54.216L142.68 53.799L143.161 54.093C143.502 54.2845 143.865 54.4355 144.241 54.543L144.264 54.55L144.279 54.568L144.343 54.644L144.529 54.857Z"
        fill="black"
      />
      <path
        d="M162.764 55.705C161.848 55.773 160.897 55.823 159.93 55.855L159.91 55.927C160.872 55.895 161.817 55.845 162.728 55.778L162.764 55.705Z"
        fill="black"
      />
      <path
        d="M159.804 56.008L159.868 55.774H159.927C160.898 55.742 161.851 55.691 162.758 55.624L162.899 55.614L162.78 55.854H162.734C161.846 55.92 160.897 55.97 159.912 56.004L159.804 56.008Z"
        fill="black"
      />
      <path
        d="M146.073 55.129L146.018 55.053C145.559 54.965 145.135 54.871 144.752 54.77C144.577 54.724 144.413 54.6776 144.26 54.631L144.325 54.709C144.477 54.756 144.64 54.802 144.814 54.848C145.195 54.947 145.613 55.041 146.073 55.129Z"
        fill="black"
      />
      <path
        d="M146.256 55.246L146.056 55.208C145.589 55.118 145.164 55.023 144.791 54.926C144.612 54.879 144.447 54.832 144.299 54.786L144.277 54.779L144.02 54.474L144.281 54.554C144.433 54.601 144.596 54.646 144.77 54.692C145.137 54.792 145.561 54.883 146.031 54.973L146.062 54.979L146.256 55.246Z"
        fill="black"
      />
      <path
        d="M168.963 54.685L168.894 54.763C169.187 54.6666 169.461 54.5204 169.704 54.331L169.777 54.251C169.533 54.4414 169.257 54.5882 168.963 54.685V54.685Z"
        fill="black"
      />
      <path
        d="M168.625 54.951L168.917 54.618L168.936 54.611C169.221 54.5173 169.489 54.3752 169.726 54.191L169.839 54.305L169.771 54.38L169.759 54.392C169.509 54.5881 169.226 54.7393 168.924 54.839L168.625 54.951Z"
        fill="black"
      />
      <path
        d="M150.938 55.667C150.038 55.597 149.175 55.512 148.368 55.414L148.411 55.488C149.211 55.588 150.071 55.67 150.967 55.74L150.938 55.667Z"
        fill="black"
      />
      <path
        d="M151.089 55.83L150.962 55.82C150.062 55.749 149.196 55.665 148.402 55.568H148.362L148.218 55.32L148.378 55.34C149.173 55.44 150.036 55.522 150.944 55.593H150.994L151.089 55.83Z"
        fill="black"
      />
      <path
        d="M159.848 55.858C158.88 55.889 157.896 55.903 156.912 55.9C156.912 55.923 156.912 55.947 156.912 55.971C157.889 55.971 158.869 55.961 159.832 55.93L159.848 55.858Z"
        fill="black"
      />
      <path
        d="M157.166 56.052H156.825L156.834 55.82H156.911C157.898 55.82 158.884 55.809 159.844 55.778H159.952L159.889 56.012H159.83C158.972 56.038 158.077 56.052 157.166 56.052Z"
        fill="black"
      />
      <path
        d="M165.341 55.516L165.391 55.442C164.83 55.5147 164.221 55.5813 163.564 55.642C163.326 55.663 163.085 55.683 162.842 55.701L162.806 55.773C163.047 55.755 163.287 55.735 163.524 55.715C164.177 55.655 164.782 55.5887 165.341 55.516Z"
        fill="black"
      />
      <path
        d="M162.675 55.861L162.795 55.621H162.84C163.083 55.603 163.323 55.583 163.561 55.562C164.213 55.504 164.827 55.438 165.385 55.362L165.558 55.34L165.391 55.591H165.355C164.796 55.664 164.183 55.73 163.535 55.791C163.297 55.812 163.058 55.832 162.816 55.85L162.675 55.861Z"
        fill="black"
      />
      <path
        d="M148.3 55.405C147.5 55.305 146.749 55.191 146.076 55.064L146.131 55.139C146.801 55.266 147.543 55.38 148.343 55.479L148.3 55.405Z"
        fill="black"
      />
      <path
        d="M148.493 55.579L148.332 55.559C147.525 55.459 146.78 55.344 146.115 55.218L146.084 55.212L145.884 54.946L146.084 54.984C146.739 55.108 147.484 55.223 148.303 55.325H148.342L148.493 55.579Z"
        fill="black"
      />
      <path
        d="M167.461 55.101C166.886 55.2223 166.219 55.3333 165.461 55.434L165.411 55.508C166.166 55.4086 166.831 55.2983 167.404 55.177L167.461 55.101Z"
        fill="black"
      />
      <path
        d="M165.239 55.611L165.339 55.463L165.388 55.39L165.408 55.359H165.444C166.192 55.259 166.864 55.149 167.444 55.027L167.667 54.98L167.443 55.254L167.416 55.26C166.836 55.383 166.164 55.495 165.416 55.593L165.239 55.611Z"
        fill="black"
      />
      <path
        d="M156.827 55.898C155.844 55.898 154.863 55.874 153.901 55.836C153.901 55.86 153.91 55.884 153.913 55.907C154.869 55.944 155.845 55.965 156.823 55.969C156.825 55.946 156.826 55.922 156.827 55.898Z"
        fill="black"
      />
      <path
        d="M156.898 56.05H156.823C155.846 56.05 154.866 56.026 153.91 55.989H153.844L153.805 55.755H153.905C154.859 55.792 155.842 55.813 156.828 55.817H156.911V55.9C156.911 55.925 156.911 55.95 156.911 55.974L156.898 56.05Z"
        fill="black"
      />
      <path
        d="M153.819 55.833C152.858 55.795 151.919 55.742 151.019 55.673L151.047 55.745C151.947 55.814 152.88 55.867 153.835 55.905C153.828 55.881 153.823 55.857 153.819 55.833Z"
        fill="black"
      />
      <path
        d="M153.926 55.989H153.826C152.867 55.951 151.926 55.897 151.035 55.829H150.985L150.89 55.591L151.018 55.601C151.918 55.67 152.861 55.724 153.818 55.761H153.884L153.926 55.989Z"
        fill="black"
      />
      <path
        d="M168.931 54.698C168.466 54.8613 167.991 54.9926 167.508 55.091C167.487 55.116 167.468 55.141 167.446 55.166C167.926 55.0686 168.399 54.9382 168.862 54.776L168.931 54.698Z"
        fill="black"
      />
      <path
        d="M167.232 55.295L167.386 55.114L167.421 55.072L167.465 55.019L167.492 55.013C167.971 54.9152 168.443 54.7849 168.904 54.623L169.211 54.51L168.991 54.752L168.923 54.829L168.91 54.845L168.891 54.852C168.425 55.0158 167.949 55.1474 167.465 55.246L167.232 55.295Z"
        fill="black"
      />
      <path
        d="M150.049 52.714C148.995 52.633 147.986 52.533 147.042 52.414L147.073 52.505C148.014 52.621 149.019 52.72 150.073 52.805C150.062 52.774 150.056 52.739 150.049 52.714Z"
        fill="black"
      />
      <path
        d="M150.173 52.893L150.064 52.885C149.013 52.804 148.004 52.704 147.064 52.585L147.014 52.579L146.927 52.319L147.053 52.335C147.994 52.45 149.004 52.55 150.053 52.635H150.111L150.173 52.893Z"
        fill="black"
      />
      <path
        d="M169.379 52.051C168.706 52.193 167.925 52.323 167.035 52.441C167.022 52.471 167.01 52.502 166.998 52.532C167.883 52.416 168.664 52.285 169.335 52.143L169.379 52.051Z"
        fill="black"
      />
      <path
        d="M166.871 52.63L166.921 52.503L166.959 52.41L166.977 52.367L167.023 52.361C167.893 52.247 168.68 52.116 169.361 51.972L169.523 51.938L169.388 52.214L169.35 52.222C168.667 52.367 167.879 52.498 167.007 52.612L166.871 52.63Z"
        fill="black"
      />
      <path
        d="M163.883 52.758C162.811 52.838 161.699 52.896 160.567 52.934L160.553 53.023C161.68 52.985 162.789 52.923 163.853 52.848L163.883 52.758Z"
        fill="black"
      />
      <path
        d="M160.459 53.107L160.5 52.856H160.565C161.715 52.817 162.83 52.756 163.878 52.68L163.994 52.671L163.919 52.926H163.864C162.82 53.004 161.708 53.063 160.557 53.101L160.459 53.107Z"
        fill="black"
      />
      <path
        d="M166.921 52.542C166.934 52.512 166.946 52.481 166.958 52.451C166.301 52.5363 165.589 52.613 164.82 52.681C164.541 52.7063 164.26 52.7293 163.975 52.75L163.949 52.84C164.233 52.8193 164.514 52.7963 164.791 52.771C165.556 52.7037 166.266 52.6273 166.921 52.542Z"
        fill="black"
      />
      <path
        d="M163.839 52.929L163.914 52.674H163.97C164.254 52.6533 164.535 52.6303 164.814 52.605C165.574 52.538 166.292 52.461 166.949 52.375L167.087 52.357L166.978 52.62L166.932 52.626C166.254 52.713 165.532 52.791 164.799 52.855C164.521 52.8797 164.24 52.9026 163.956 52.924L163.839 52.929Z"
        fill="black"
      />
      <path
        d="M172.091 51.057C171.805 51.2805 171.483 51.4527 171.138 51.566L171.087 51.66C171.431 51.5472 171.752 51.3756 172.037 51.153L172.091 51.057Z"
        fill="black"
      />
      <path
        d="M170.915 51.81L171.082 51.501L171.11 51.491C171.445 51.381 171.759 51.2138 172.038 50.997L172.388 50.687L172.088 51.213C171.796 51.4419 171.466 51.6186 171.113 51.735L170.915 51.81Z"
        fill="black"
      />
      <path
        d="M171.1 51.579C170.557 51.7706 170.001 51.9243 169.436 52.039L169.391 52.131C169.953 52.0162 170.507 51.8631 171.049 51.673L171.1 51.579Z"
        fill="black"
      />
      <path
        d="M169.245 52.245L169.381 51.969L169.419 51.961C169.98 51.8469 170.532 51.6942 171.072 51.504L171.272 51.429L171.102 51.739L171.074 51.749C170.529 51.9402 169.971 52.0943 169.405 52.21L169.245 52.245Z"
        fill="black"
      />
      <path
        d="M144.332 52.087L144.292 51.995C143.755 51.895 143.259 51.781 142.811 51.664C142.605 51.61 142.411 51.556 142.236 51.501C142.251 51.533 142.267 51.564 142.283 51.596C142.461 51.651 142.652 51.704 142.856 51.758C143.303 51.875 143.792 51.985 144.332 52.087Z"
        fill="black"
      />
      <path
        d="M144.467 52.195L144.317 52.166C143.779 52.066 143.281 51.952 142.835 51.835C142.629 51.781 142.435 51.726 142.259 51.672L142.227 51.662L142.212 51.632C142.196 51.6 142.179 51.568 142.164 51.532L142.085 51.366L142.26 51.42C142.424 51.471 142.611 51.52 142.831 51.582C143.275 51.698 143.772 51.809 144.307 51.912L144.349 51.92L144.467 52.195Z"
        fill="black"
      />
      <path
        d="M142.188 51.487C141.74 51.3593 141.309 51.1794 140.903 50.951L140.955 51.051C141.359 51.2785 141.789 51.4577 142.235 51.585L142.188 51.487Z"
        fill="black"
      />
      <path
        d="M142.394 51.714L142.212 51.657C141.759 51.5278 141.323 51.3458 140.912 51.115L140.894 51.104L140.689 50.726L140.944 50.882C141.344 51.1068 141.77 51.2841 142.211 51.41L142.243 51.42L142.394 51.714Z"
        fill="black"
      />
      <path
        d="M146.962 52.407C146.022 52.29 145.148 52.156 144.362 52.007L144.402 52.1C145.187 52.249 146.058 52.381 146.995 52.5L146.962 52.407Z"
        fill="black"
      />
      <path
        d="M147.109 52.594L146.983 52.578C146.029 52.459 145.155 52.325 144.383 52.178L144.341 52.17L144.222 51.898L144.372 51.926C145.149 52.073 146.023 52.207 146.972 52.326L147.022 52.332L147.109 52.594Z"
        fill="black"
      />
      <path
        d="M156.938 52.985C155.788 52.98 154.638 52.956 153.515 52.912L153.524 53.001C154.645 53.044 155.789 53.069 156.935 53.074C156.936 53.044 156.937 53.014 156.938 52.985Z"
        fill="black"
      />
      <path
        d="M157.014 53.155H156.936C155.805 53.155 154.656 53.126 153.522 53.082H153.453L153.427 52.831H153.519C154.642 52.874 155.792 52.899 156.939 52.904H157.022L157.014 53.155Z"
        fill="black"
      />
      <path
        d="M153.419 52.907C152.295 52.863 151.195 52.8 150.138 52.72L150.159 52.81C151.211 52.89 152.308 52.952 153.428 52.997L153.419 52.907Z"
        fill="black"
      />
      <path
        d="M153.518 53.082H153.425C152.281 53.036 151.181 52.973 150.153 52.895H150.095L150.035 52.641L150.144 52.649C151.21 52.73 152.313 52.793 153.422 52.836H153.492L153.518 53.082Z"
        fill="black"
      />
      <path
        d="M160.471 52.937C159.338 52.973 158.187 52.989 157.037 52.985C157.037 53.015 157.037 53.045 157.037 53.074C158.183 53.074 159.331 53.062 160.46 53.026L160.471 52.937Z"
        fill="black"
      />
      <path
        d="M157.379 53.155H156.946V53.072C156.946 53.041 156.946 53.012 156.946 52.981V52.904H157.023C158.179 52.904 159.334 52.892 160.455 52.856H160.555L160.515 53.107H160.449C159.446 53.139 158.407 53.155 157.379 53.155Z"
        fill="black"
      />
      <path
        d="M140.84 47.828C140.224 47.637 139.451 47.313 139.461 47.349C139.905 47.5992 140.378 47.7963 140.868 47.936C140.858 47.897 140.848 47.861 140.84 47.828Z"
        fill="black"
      />
      <path
        d="M140.982 48.049L140.843 48.006C140.346 47.8626 139.868 47.6613 139.418 47.406L139.391 47.39L139.369 47.312L139.405 47.277C139.452 47.234 139.452 47.234 139.905 47.403C140.174 47.503 140.541 47.64 140.861 47.74L140.905 47.753L140.916 47.797C140.925 47.833 140.934 47.868 140.943 47.904L140.982 48.049Z"
        fill="black"
      />
      <path
        d="M153.164 49.386C151.931 49.337 150.723 49.268 149.564 49.18C149.564 49.215 149.572 49.25 149.576 49.28C150.732 49.368 151.938 49.437 153.169 49.486C153.167 49.455 153.165 49.421 153.164 49.386Z"
        fill="black"
      />
      <path
        d="M153.255 49.574H153.166C151.935 49.525 150.726 49.456 149.566 49.368L149.501 49.363L149.492 49.298C149.492 49.263 149.484 49.227 149.48 49.191L149.47 49.091L149.57 49.098C150.726 49.186 151.936 49.255 153.17 49.304H153.244V49.394C153.244 49.423 153.244 49.452 153.244 49.482L153.255 49.574Z"
        fill="black"
      />
      <path
        d="M143.172 48.49L143.149 48.384C142.56 48.271 142.016 48.15 141.524 48.021C141.299 47.961 141.089 47.902 140.893 47.842C140.902 47.878 140.911 47.913 140.92 47.949C141.12 48.009 141.32 48.069 141.55 48.127C142.041 48.257 142.584 48.377 143.172 48.49Z"
        fill="black"
      />
      <path
        d="M143.276 48.592L143.157 48.569C142.557 48.453 142.007 48.331 141.529 48.205C141.303 48.146 141.09 48.086 140.896 48.026L140.853 48.013L140.778 47.723L140.916 47.765C141.099 47.821 141.305 47.88 141.544 47.943C142.029 48.07 142.574 48.191 143.164 48.304L143.216 48.314L143.276 48.592Z"
        fill="black"
      />
      <path
        d="M172.565 47.928C171.969 48.1366 171.358 48.3037 170.739 48.428C170.73 48.464 170.72 48.499 170.712 48.535C171.33 48.4099 171.939 48.2428 172.535 48.035C172.545 48 172.555 47.964 172.565 47.928Z"
        fill="black"
      />
      <path
        d="M170.602 48.644L170.673 48.363L170.722 48.353C171.338 48.2284 171.944 48.0614 172.537 47.853L172.682 47.8L172.602 48.1L172.563 48.114C171.964 48.324 171.351 48.4931 170.729 48.62L170.602 48.644Z"
        fill="black"
      />
      <path
        d="M164.631 49.326C164.637 49.291 164.642 49.256 164.647 49.221C163.47 49.309 162.247 49.373 161.008 49.414C161.008 49.449 161.002 49.484 160.999 49.519C162.239 49.477 163.457 49.413 164.631 49.326V49.326Z"
        fill="black"
      />
      <path
        d="M160.911 49.602L160.936 49.335H161.006C162.271 49.293 163.494 49.228 164.641 49.142L164.741 49.134L164.697 49.403H164.634C163.476 49.489 162.253 49.554 160.999 49.596L160.911 49.602Z"
        fill="black"
      />
      <path
        d="M172.608 47.9129C172.598 47.9489 172.588 47.9849 172.577 48.0199C172.955 47.8958 173.308 47.7074 173.622 47.463C173.633 47.427 173.084 47.7339 172.608 47.9129Z"
        fill="black"
      />
      <path
        d="M172.451 48.151L172.538 47.851L172.576 47.837C172.845 47.737 173.142 47.592 173.338 47.496C173.607 47.365 173.622 47.358 173.67 47.396L173.71 47.43L173.689 47.505L173.672 47.52C173.351 47.771 172.989 47.9645 172.602 48.092L172.451 48.151Z"
        fill="black"
      />
      <path
        d="M157.025 49.47C155.763 49.465 154.503 49.437 153.269 49.39C153.269 49.425 153.269 49.46 153.269 49.49C154.501 49.538 155.759 49.564 157.018 49.569C157.025 49.539 157.025 49.505 157.025 49.47Z"
        fill="black"
      />
      <path
        d="M157.101 49.655H157.023C155.768 49.65 154.505 49.623 153.271 49.576H153.199V49.503C153.199 49.471 153.199 49.44 153.199 49.403V49.316L153.285 49.308C154.526 49.356 155.785 49.382 157.039 49.388H157.12V49.469C157.12 49.498 157.12 49.526 157.12 49.556L157.101 49.655Z"
        fill="black"
      />
      <path
        d="M170.677 48.446C169.938 48.602 169.077 48.746 168.104 48.874L168.082 48.98C169.055 48.853 169.913 48.709 170.65 48.553L170.677 48.446Z"
        fill="black"
      />
      <path
        d="M167.98 49.074L168.036 48.801L168.093 48.793C169.053 48.668 169.916 48.524 170.66 48.366L170.786 48.339L170.716 48.62L170.667 48.63C169.922 48.788 169.055 48.93 168.093 49.058L167.98 49.074Z"
        fill="black"
      />
      <path
        d="M149.465 49.172C148.309 49.083 147.202 48.972 146.165 48.847C146.17 48.882 146.176 48.918 146.182 48.953C147.216 49.08 148.322 49.189 149.476 49.278C149.474 49.243 149.47 49.207 149.465 49.172Z"
        fill="black"
      />
      <path
        d="M149.568 49.365L149.468 49.357C148.3 49.266 147.19 49.157 146.168 49.032L146.108 49.024L146.066 48.753L146.166 48.766C147.196 48.892 148.304 49.002 149.461 49.091H149.526L149.535 49.156C149.535 49.192 149.543 49.228 149.547 49.263L149.568 49.365Z"
        fill="black"
      />
      <path
        d="M146.078 48.837C145.046 48.709 144.087 48.562 143.223 48.398C143.231 48.434 143.238 48.469 143.245 48.505C144.108 48.668 145.065 48.815 146.095 48.943C146.089 48.906 146.083 48.871 146.078 48.837Z"
        fill="black"
      />
      <path
        d="M146.086 49.022C145.053 48.894 144.092 48.746 143.231 48.584L143.179 48.574L143.12 48.297L143.239 48.32C144.087 48.481 145.046 48.628 146.089 48.758L146.149 48.765L146.158 48.825C146.158 48.855 146.168 48.884 146.173 48.914L146.191 49.021L146.086 49.022Z"
        fill="black"
      />
      <path
        d="M167.998 48.99C168.005 48.955 168.013 48.92 168.02 48.884C167.299 48.9773 166.518 49.0616 165.675 49.137C165.369 49.1643 165.06 49.1896 164.748 49.213C164.742 49.248 164.737 49.283 164.732 49.318C165.044 49.294 165.352 49.2687 165.657 49.242C166.498 49.1673 167.279 49.0833 167.998 48.99Z"
        fill="black"
      />
      <path
        d="M164.636 49.407L164.679 49.138H164.742C165.054 49.114 165.362 49.089 165.668 49.062C166.509 48.987 167.297 48.902 168.01 48.81L168.121 48.795L168.066 49.068L168.009 49.076C167.291 49.169 166.502 49.254 165.664 49.329C165.359 49.3557 165.05 49.381 164.738 49.405L164.636 49.407Z"
        fill="black"
      />
      <path
        d="M160.902 49.416C159.659 49.456 158.395 49.473 157.133 49.469C157.133 49.504 157.133 49.539 157.133 49.569C158.393 49.569 159.655 49.556 160.896 49.517C160.896 49.482 160.9 49.451 160.902 49.416Z"
        fill="black"
      />
      <path
        d="M157.508 49.655H157.048V49.572C157.048 49.539 157.048 49.504 157.048 49.472V49.391H157.128C158.418 49.391 159.685 49.377 160.894 49.338H160.983L160.962 49.604H160.89C159.78 49.637 158.642 49.655 157.508 49.655Z"
        fill="black"
      />
      <path d="M146.464 57.095L146.508 57.123L146.464 57.095Z" fill="black" />
      <path
        d="M146.463 57.19L146.428 57.167L146.464 57.095L146.507 57.027L146.464 57.095L146.507 57.027L146.464 57.095L146.514 57.031L146.553 57.057L146.463 57.19Z"
        fill="black"
      />
      <path d="M152.831 59.813L152.8 59.655L152.831 59.813Z" fill="black" />
      <path
        d="M153.088 59.789C152.998 59.772 152.909 59.754 152.819 59.734C152.893 59.75 152.966 59.766 153.04 59.78L153.088 59.789Z"
        fill="black"
      />
      <path
        d="M153.073 59.868L153.025 59.859L152.854 59.824L152.801 59.813L152.835 59.656L152.886 59.667C152.958 59.682 153.029 59.697 153.101 59.71L153.073 59.868Z"
        fill="black"
      />
      <path d="M163.335 58.745L163.286 58.766L163.335 58.745Z" fill="black" />
      <path
        d="M163.304 58.6714L163.254 58.692L163.315 58.8408L163.365 58.8202L163.304 58.6714Z"
        fill="black"
      />
      <path
        d="M163.013 58.878C163.104 58.842 163.194 58.804 163.285 58.767C163.16 58.819 163.033 58.867 162.906 58.919L163.013 58.878Z"
        fill="black"
      />
      <path
        d="M162.935 58.994L162.877 58.844L162.941 58.819L163.126 58.745L163.168 58.728L163.254 58.693L163.315 58.842L163.186 58.895L163.041 58.953L162.998 58.97L162.934 58.995L162.935 58.994Z"
        fill="black"
      />
      <path
        d="M160.662 59.692L160.625 59.536C161.097 59.4158 161.561 59.2676 162.015 59.092L162.098 59.058C163.094 58.6579 164.033 58.1297 164.892 57.487C164.915 57.47 164.938 57.452 164.962 57.432C165.844 56.7614 166.642 55.9868 167.338 55.125L167.4 55.048C168.126 54.1383 168.751 53.1521 169.264 52.107C169.279 52.075 169.293 52.044 169.31 52.013C169.846 50.8978 170.27 49.7317 170.573 48.532L170.599 48.432C170.682 48.097 170.755 47.768 170.817 47.452L170.876 47.463V47.451L171.033 47.482C170.963 47.831 170.892 48.149 170.816 48.455C170.816 48.474 170.806 48.495 170.801 48.516L170.79 48.561C170.483 49.774 170.053 50.9527 169.508 52.079C169.491 52.111 169.477 52.14 169.464 52.17C168.942 53.2272 168.308 54.2246 167.571 55.145L167.509 55.222C166.801 56.0928 165.992 56.8757 165.098 57.554C165.075 57.574 165.049 57.593 165.02 57.613C164.147 58.2646 163.193 58.8001 162.182 59.206L162.139 59.223L162.093 59.24C161.64 59.4159 161.178 59.5642 160.707 59.684L160.662 59.692Z"
        fill="black"
      />
      <path
        d="M164.089 58.492L164.019 58.347C164.719 58.007 165.392 57.6142 166.032 57.172L166.085 57.134L166.115 57.113C167.099 56.4208 168 55.6182 168.801 54.721L168.871 54.642C169.681 53.7195 170.387 52.7108 170.977 51.634C170.993 51.604 171.01 51.573 171.028 51.539C171.63 50.4184 172.108 49.2358 172.454 48.012L172.485 47.905C172.527 47.753 172.568 47.598 172.607 47.443L172.763 47.482C172.724 47.638 172.683 47.795 172.64 47.949L172.609 48.057C172.259 49.2923 171.777 50.4859 171.169 51.617L171.118 51.711C170.522 52.7993 169.809 53.8188 168.99 54.751L168.92 54.83C168.111 55.7359 167.2 56.5461 166.207 57.245L166.176 57.267C166.159 57.279 166.142 57.29 166.126 57.303C165.478 57.7506 164.797 58.148 164.089 58.492V58.492Z"
        fill="black"
      />
      <path
        d="M159.079 59.993L159.058 59.834C159.707 59.7261 160.339 59.5366 160.94 59.27L161.008 59.24C161.835 58.8614 162.6 58.3612 163.279 57.756L163.339 57.703C164.073 57.0404 164.723 56.2909 165.275 55.471L165.324 55.398C165.927 54.4898 166.437 53.5233 166.846 52.513L166.883 52.421C167.329 51.3045 167.676 50.1511 167.92 48.974C167.92 48.956 167.927 48.936 167.931 48.916L167.94 48.87C168.033 48.423 168.116 47.946 168.187 47.452L168.269 47.464V47.452L168.428 47.475C168.358 47.962 168.274 48.438 168.18 48.891C168.174 48.923 168.166 48.957 168.158 48.991C167.911 50.1798 167.56 51.3444 167.107 52.471C167.092 52.504 167.08 52.533 167.068 52.563C166.652 53.5852 166.133 54.5625 165.52 55.48C165.501 55.506 165.486 55.528 165.471 55.55C164.907 56.3833 164.243 57.1445 163.495 57.817L163.434 57.87C162.737 58.4861 161.952 58.995 161.105 59.38C161.092 59.388 161.071 59.397 161.052 59.405L161.038 59.409C160.426 59.6781 159.782 59.8712 159.123 59.984L159.079 59.993Z"
        fill="black"
      />
      <path
        d="M158.06 60.109L158.041 59.949C158.104 59.941 158.168 59.93 158.231 59.918C158.719 59.8287 159.189 59.6554 159.618 59.406L159.665 59.377C160.284 59 160.835 58.5217 161.296 57.962L161.342 57.91C161.888 57.2402 162.356 56.5101 162.736 55.734C162.749 55.71 162.761 55.686 162.773 55.662C163.217 54.745 163.585 53.7931 163.873 52.816V52.8C163.88 52.776 163.887 52.75 163.895 52.724C164.221 51.6021 164.472 50.46 164.648 49.305L164.655 49.256C164.655 49.236 164.661 49.217 164.664 49.197C164.749 48.637 164.821 48.05 164.878 47.455L165.038 47.47C164.981 48.07 164.908 48.658 164.823 49.223C164.823 49.243 164.817 49.261 164.814 49.279L164.806 49.331C164.629 50.4934 164.376 51.6429 164.048 52.772C164.04 52.798 164.033 52.821 164.027 52.843L164.022 52.861C163.73 53.8471 163.359 54.8077 162.91 55.733C162.897 55.759 162.885 55.784 162.872 55.807C162.486 56.5939 162.012 57.334 161.458 58.013L161.412 58.065C160.94 58.6378 160.376 59.1273 159.742 59.513L159.695 59.543C159.251 59.8013 158.766 59.981 158.261 60.074C158.193 60.089 158.127 60.101 158.06 60.109Z"
        fill="black"
      />
      <path
        d="M169.177 54.992L169.064 54.877C169.164 54.777 169.264 54.677 169.364 54.577C169.464 54.477 169.552 54.377 169.645 54.277C169.664 54.258 169.68 54.241 169.695 54.223L169.718 54.198C170.579 53.2563 171.333 52.2224 171.966 51.115L172.021 51.015C172.659 49.8824 173.17 48.6828 173.544 47.438L173.697 47.485C173.32 48.7413 172.805 49.952 172.161 51.095L172.106 51.195C171.467 52.3127 170.706 53.3564 169.837 54.307L169.815 54.331C169.798 54.35 169.78 54.37 169.761 54.389C169.669 54.489 169.574 54.589 169.48 54.689C169.386 54.789 169.279 54.891 169.177 54.992Z"
        fill="black"
      />
      <path
        d="M163.367 58.819L163.304 58.671C163.538 58.571 163.777 58.463 164.016 58.349L164.034 58.341C164.738 58.0014 165.415 57.6079 166.059 57.164L166.082 57.147C166.103 57.132 166.123 57.117 166.144 57.103C167.129 56.4105 168.031 55.608 168.834 54.711C168.858 54.685 168.879 54.659 168.901 54.634C169.716 53.7113 170.426 52.7003 171.016 51.62L171.036 51.583C171.046 51.565 171.056 51.547 171.065 51.529C171.67 50.408 172.15 49.2243 172.497 47.999C172.506 47.971 172.512 47.948 172.518 47.924L172.527 47.891C172.568 47.742 172.608 47.591 172.647 47.444L172.802 47.484C172.763 47.634 172.722 47.784 172.681 47.934L172.673 47.965C172.666 47.992 172.659 48.018 172.65 48.046C172.3 49.2807 171.816 50.4734 171.207 51.603C171.198 51.622 171.186 51.642 171.175 51.662L171.156 51.697C170.56 52.7873 169.844 53.8076 169.022 54.739C168.999 54.766 168.976 54.793 168.952 54.82C168.141 55.7264 167.228 56.5373 166.233 57.237C166.212 57.251 166.194 57.264 166.176 57.277L166.15 57.296C165.499 57.7451 164.814 58.1433 164.102 58.487L164.088 58.501H164.069C163.835 58.614 163.602 58.721 163.367 58.819Z"
        fill="black"
      />
      <path
        d="M157.824 60.134L157.811 59.974H157.836C157.903 59.968 157.971 59.962 158.036 59.952C158.101 59.942 158.165 59.932 158.228 59.921C158.702 59.8277 159.157 59.6553 159.573 59.411C159.591 59.4 159.609 59.389 159.626 59.38C160.236 59.0024 160.779 58.5255 161.232 57.969L161.276 57.917C161.816 57.2467 162.278 56.5174 162.653 55.743L162.688 55.671C163.13 54.7554 163.494 53.8044 163.777 52.828C163.777 52.811 163.787 52.793 163.793 52.774L163.804 52.738C164.127 51.6149 164.376 50.4717 164.549 49.316L164.556 49.267C164.556 49.247 164.562 49.227 164.565 49.208C164.647 48.662 164.717 48.088 164.776 47.458L164.936 47.473C164.876 48.107 164.806 48.683 164.723 49.234C164.723 49.254 164.717 49.272 164.714 49.29L164.706 49.342C164.532 50.5042 164.281 51.6537 163.956 52.783L163.945 52.821C163.945 52.837 163.935 52.854 163.93 52.871C163.644 53.857 163.276 54.8174 162.83 55.742L162.795 55.814C162.413 56.6 161.944 57.34 161.395 58.02L161.351 58.073C160.885 58.6444 160.327 59.1339 159.7 59.521C159.681 59.531 159.668 59.539 159.654 59.547C159.223 59.8006 158.752 59.9798 158.261 60.077C158.187 60.09 158.12 60.103 158.053 60.111C157.986 60.119 157.913 60.127 157.842 60.134H157.824Z"
        fill="black"
      />
      <path
        d="M157.099 60.173V60.012H157.114C157.492 59.9628 157.84 59.781 158.096 59.499L158.109 59.485L158.122 59.471C158.495 59.0654 158.801 58.6025 159.028 58.1C159.035 58.085 159.042 58.07 159.048 58.056C159.367 57.3614 159.628 56.6416 159.829 55.904L159.847 55.835C160.104 54.9044 160.312 53.9611 160.471 53.009L160.485 52.923C160.664 51.865 160.808 50.718 160.915 49.512V49.46C160.915 49.441 160.915 49.422 160.92 49.403C160.978 48.743 161.02 48.088 161.057 47.459L161.217 47.467C161.184 48.098 161.138 48.755 161.08 49.419L161.07 49.527C160.963 50.735 160.818 51.887 160.638 52.947L160.624 53.033C160.464 53.9905 160.255 54.9391 159.997 55.875L159.979 55.946C159.775 56.6906 159.51 57.4171 159.186 58.118C159.179 58.1357 159.172 58.1531 159.163 58.17C158.929 58.6881 158.613 59.1653 158.227 59.583L158.214 59.598L158.2 59.613C157.92 59.92 157.539 60.1174 157.127 60.17C157.118 60.1717 157.108 60.1727 157.099 60.173Z"
        fill="black"
      />
      <path
        d="M156.405 60.185H156.386V60.102H156.319V60.051L156.362 60.03C156.416 59.8812 156.45 59.7258 156.462 59.568L156.506 59.555H156.465C156.514 59.2256 156.561 58.7636 156.606 58.169C156.605 58.1507 156.605 58.1323 156.606 58.114C156.652 57.473 156.694 56.751 156.73 55.97C156.73 55.946 156.73 55.925 156.73 55.904C156.77 55.038 156.807 54.087 156.838 53.076C156.838 53.062 156.838 53.046 156.838 53.03V52.99C156.873 51.942 156.901 50.79 156.924 49.577C156.924 49.541 156.924 49.507 156.924 49.477C156.936 48.8283 156.948 48.159 156.959 47.469H157.069H157.23C157.22 48.159 157.208 48.828 157.193 49.476V49.576C157.169 50.695 157.137 51.843 157.099 52.99V53.034C157.099 53.05 157.099 53.066 157.099 53.081C157.062 54.122 157.021 55.074 156.977 55.905C156.977 55.925 156.977 55.952 156.977 55.979C156.93 56.85 156.883 57.553 156.834 58.127C156.833 58.1416 156.833 58.1563 156.834 58.171C156.778 58.8 156.724 59.254 156.669 59.571C156.67 59.579 156.67 59.587 156.669 59.595C156.602 59.981 156.542 60.115 156.478 60.164V60.187L156.405 60.185Z"
        fill="black"
      />
      <path
        d="M157.089 60.175H157.05V60.014H157.111C157.476 59.962 157.81 59.7806 158.052 59.503L158.069 59.486C158.438 59.0768 158.74 58.6109 158.961 58.106L158.985 58.056C159.297 57.3633 159.552 56.6462 159.748 55.912C159.755 55.891 159.759 55.875 159.763 55.859L159.768 55.84C160.018 54.9098 160.221 53.9676 160.377 53.017C160.377 52.987 160.385 52.957 160.392 52.925C160.565 51.867 160.707 50.72 160.813 49.518L160.821 49.418C160.876 48.767 160.921 48.11 160.954 47.465L161.114 47.473C161.081 48.12 161.036 48.778 160.981 49.429L160.973 49.529C160.866 50.736 160.724 51.887 160.549 52.953C160.543 52.985 160.539 53.012 160.535 53.041C160.378 53.998 160.174 54.9465 159.922 55.883V55.901C159.917 55.92 159.912 55.939 159.905 55.959C159.707 56.7005 159.45 57.4246 159.134 58.124C159.126 58.143 159.117 58.16 159.108 58.177C158.881 58.6933 158.573 59.1699 158.196 59.589C158.185 59.6006 158.174 59.6117 158.162 59.622C157.893 59.9261 157.523 60.1223 157.12 60.174H157.11H157.098L157.089 60.175Z"
        fill="black"
      />
      <path
        d="M155.052 60.13H155.028C154.474 60.0709 153.946 59.8637 153.5 59.53L153.461 59.502C152.933 59.0959 152.479 58.6016 152.12 58.041C152.106 58.0229 152.093 58.0039 152.082 57.984C151.635 57.2892 151.262 56.5495 150.969 55.777L150.941 55.707C150.586 54.7702 150.298 53.809 150.081 52.831L150.071 52.79C150.071 52.775 150.064 52.759 150.06 52.745C149.81 51.6063 149.621 50.455 149.496 49.296L149.484 49.189C149.422 48.606 149.374 48.027 149.341 47.469L149.501 47.46C149.534 48.016 149.582 48.592 149.644 49.172L149.656 49.278C149.781 50.4296 149.967 51.5736 150.216 52.705C150.216 52.718 150.224 52.735 150.228 52.753L150.238 52.792C150.453 53.7626 150.738 54.7164 151.091 55.646L151.119 55.716C151.408 56.4804 151.777 57.2124 152.219 57.9C152.228 57.9157 152.239 57.9308 152.25 57.945C152.598 58.4912 153.038 58.9732 153.55 59.37L153.581 59.392C154.006 59.712 154.51 59.9113 155.039 59.969H155.056L155.052 60.13Z"
        fill="black"
      />
      <path
        d="M155.765 60.171H155.697C155.535 60.1352 155.383 60.0651 155.25 59.9654C155.118 59.8656 155.008 59.7387 154.929 59.593L154.91 59.566C154.64 59.1231 154.429 58.6462 154.284 58.148L154.278 58.126C154.278 58.115 154.271 58.103 154.268 58.09C154.053 57.3794 153.881 56.6564 153.753 55.925L153.741 55.852C153.592 55.022 153.46 54.066 153.348 53.011V52.969C153.348 52.952 153.348 52.935 153.348 52.918C153.238 51.828 153.154 50.677 153.099 49.499L153.093 49.399C153.067 48.834 153.046 48.222 153.027 47.474H153.188H153.296C153.311 48.174 153.332 48.802 153.359 49.399V49.499C153.417 50.737 153.498 51.885 153.6 52.913L153.61 53C153.71 54.035 153.839 54.986 153.985 55.831L153.997 55.902C154.118 56.6289 154.283 57.3479 154.491 58.055C154.495 58.071 154.5 58.0867 154.506 58.102C154.641 58.5869 154.838 59.0521 155.093 59.486L155.111 59.512C155.173 59.6349 155.26 59.7435 155.367 59.8305C155.473 59.9175 155.597 59.9811 155.73 60.017H155.771L155.765 60.171Z"
        fill="black"
      />
      <path
        d="M152.482 59.739C151.962 59.6066 151.452 59.4334 150.959 59.221L150.932 59.209L150.884 59.189C149.953 58.7749 149.084 58.2345 148.301 57.583L148.234 57.528C147.418 56.8383 146.688 56.0523 146.061 55.187L146.006 55.112C145.341 54.1812 144.775 53.1826 144.32 52.133C144.307 52.101 144.294 52.07 144.28 52.04C143.796 50.9048 143.421 49.7262 143.161 48.52C143.155 48.489 143.149 48.462 143.143 48.433V48.414C143.078 48.107 143.018 47.792 142.964 47.476L143.122 47.449C143.175 47.762 143.234 48.075 143.299 48.379V48.397C143.306 48.428 143.313 48.458 143.318 48.488C143.576 49.6825 143.947 50.8497 144.426 51.974C144.44 52.004 144.455 52.038 144.468 52.074C144.918 53.1119 145.477 54.0994 146.135 55.02L146.189 55.095C146.808 55.9496 147.529 56.7259 148.335 57.407L148.402 57.462C149.173 58.1032 150.028 58.6351 150.944 59.043L150.994 59.064L151.02 59.075C151.506 59.284 152.007 59.4546 152.52 59.585L152.482 59.739Z"
        fill="black"
      />
      <path
        d="M154.227 60.048H154.2C154.166 60.048 154.136 60.04 154.105 60.035C154.096 60.0344 154.086 60.0327 154.077 60.03L154.026 60.022L153.958 60.011C153.87 59.996 153.792 59.982 153.713 59.965C153.154 59.8488 152.614 59.6578 152.106 59.397L152.045 59.366C151.296 58.9679 150.614 58.4551 150.023 57.846C150.001 57.824 149.983 57.806 149.967 57.787C149.311 57.1035 148.74 56.3429 148.267 55.522L148.224 55.448C147.695 54.5177 147.255 53.5394 146.911 52.526L146.88 52.435C146.499 51.3004 146.209 50.1374 146.011 48.957L145.993 48.857C145.92 48.41 145.856 47.947 145.802 47.478L145.961 47.46V47.47L146.05 47.46C146.097 47.894 146.159 48.345 146.239 48.84C146.239 48.876 146.249 48.909 146.255 48.94C146.449 50.1119 146.735 51.2668 147.11 52.394L147.141 52.486C147.48 53.4879 147.912 54.4558 148.431 55.377L148.474 55.45C148.935 56.2597 149.492 57.0107 150.133 57.687L150.152 57.707C150.162 57.717 150.171 57.727 150.181 57.736C150.754 58.3335 151.419 58.8367 152.149 59.227L152.17 59.239L152.212 59.262C152.695 59.5089 153.209 59.6921 153.739 59.807C153.811 59.822 153.883 59.836 153.956 59.849H153.961H153.971L154.045 59.86L154.131 59.874L154.231 59.887L154.227 60.048Z"
        fill="black"
      />
      <path
        d="M155.067 60.131H155.01C154.449 60.0722 153.914 59.8651 153.46 59.531L153.418 59.502C152.885 59.0966 152.426 58.6032 152.059 58.043C152.048 58.026 152.038 58.01 152.026 57.995C151.571 57.2972 151.191 56.5538 150.891 55.777C150.884 55.756 150.877 55.741 150.87 55.724L150.862 55.706C150.503 54.7692 150.211 53.8077 149.99 52.829C149.982 52.803 149.976 52.77 149.969 52.738C149.713 51.6018 149.521 50.4519 149.396 49.294L149.384 49.194C149.323 48.638 149.273 48.061 149.236 47.48L149.396 47.47C149.432 48.049 149.482 48.623 149.543 49.176L149.555 49.276C149.68 50.4283 149.87 51.5725 150.125 52.703C150.131 52.735 150.137 52.763 150.144 52.789C150.363 53.7609 150.652 54.7157 151.009 55.646L151.015 55.661C151.024 55.681 151.032 55.701 151.039 55.721C151.334 56.4844 151.708 57.215 152.155 57.901C152.166 57.915 152.18 57.936 152.191 57.954C152.547 58.4981 152.993 58.9773 153.51 59.371L153.548 59.398C153.979 59.7181 154.488 59.9173 155.022 59.975H155.04H155.079L155.067 60.131Z"
        fill="black"
      />
      <path
        d="M145.933 56.824C145.806 56.732 145.679 56.639 145.554 56.545C145.169 56.253 144.793 55.945 144.437 55.617C143.98 55.2 143.546 54.7584 143.137 54.294L143.067 54.216C142.229 53.2552 141.498 52.2053 140.889 51.085L140.863 51.036L140.837 50.987C140.242 49.8744 139.769 48.701 139.425 47.487L139.58 47.443C139.92 48.647 140.39 49.8107 140.98 50.914L141.005 50.96C141.015 50.977 141.024 50.994 141.033 51.012C141.636 52.121 142.359 53.1605 143.188 54.112L143.258 54.19C143.665 54.6506 144.097 55.0886 144.552 55.502C144.904 55.823 145.276 56.132 145.657 56.421C145.781 56.515 145.907 56.607 146.034 56.699L145.933 56.824Z"
        fill="black"
      />
      <path
        d="M150.801 59.281C150.744 59.264 150.689 59.245 150.632 59.224C150.594 59.212 150.552 59.197 150.51 59.182L150.459 59.164C150.31 59.112 150.159 59.054 150.007 58.993L149.978 58.981L149.914 58.955C148.833 58.5102 147.811 57.9349 146.87 57.242L146.789 57.181C145.842 56.4721 144.982 55.6552 144.224 54.747C144.21 54.732 144.195 54.714 144.18 54.695L144.159 54.669C143.383 53.7285 142.714 52.7049 142.164 51.617C142.156 51.603 142.148 51.586 142.14 51.57C142.132 51.554 142.125 51.539 142.117 51.525C141.549 50.3851 141.105 49.188 140.791 47.954C140.78 47.916 140.77 47.879 140.762 47.844C140.732 47.724 140.703 47.602 140.676 47.481L140.833 47.446C140.86 47.566 140.888 47.686 140.918 47.806C140.926 47.84 140.936 47.875 140.945 47.906C141.256 49.1296 141.697 50.3166 142.259 51.447C142.267 51.462 142.275 51.479 142.284 51.496L142.306 51.539C142.851 52.6165 143.514 53.6304 144.282 54.562L144.305 54.589C144.318 54.605 144.331 54.621 144.345 54.636C145.095 55.5362 145.948 56.3456 146.886 57.048L146.967 57.108C147.898 57.793 148.908 58.3615 149.977 58.801L150.038 58.825L150.069 58.837C150.219 58.897 150.369 58.954 150.515 59.006L150.567 59.025C150.606 59.039 150.645 59.054 150.685 59.066C150.743 59.087 150.794 59.105 150.847 59.121L150.801 59.281Z"
        fill="black"
      />
      <path
        d="M150.895 59.314L150.786 59.277C150.742 59.266 150.686 59.246 150.63 59.225C150.592 59.213 150.55 59.198 150.508 59.183L150.457 59.164C150.313 59.112 150.169 59.057 150.025 58.999L149.933 58.962C148.855 58.5188 147.836 57.9448 146.899 57.253C146.869 57.23 146.845 57.212 146.821 57.195C145.877 56.4858 145.018 55.6697 144.261 54.763L144.239 54.736C144.226 54.72 144.213 54.703 144.199 54.688C143.425 53.7462 142.758 52.7215 142.21 51.633C142.193 51.602 142.176 51.57 142.161 51.533C141.596 50.3948 141.154 49.2001 140.84 47.969C140.83 47.928 140.823 47.897 140.814 47.864C140.783 47.736 140.752 47.609 140.723 47.482L140.879 47.446C140.907 47.573 140.938 47.699 140.968 47.823C140.977 47.856 140.985 47.889 140.993 47.923C141.305 49.147 141.745 50.3345 142.306 51.466C142.321 51.501 142.336 51.529 142.352 51.558C142.895 52.6354 143.555 53.6496 144.32 54.582C144.333 54.596 144.348 54.615 144.364 54.634L144.385 54.66C145.133 55.5566 145.982 56.3636 146.916 57.065C146.94 57.082 146.966 57.101 146.992 57.121C147.919 57.8061 148.926 58.3747 149.992 58.814L150.083 58.851C150.225 58.908 150.367 58.963 150.509 59.014L150.561 59.033C150.6 59.048 150.639 59.062 150.679 59.074C150.737 59.095 150.788 59.113 150.841 59.129L150.941 59.162L150.895 59.314Z"
        fill="black"
      />
      <path
        d="M152.8 59.813C152.725 59.797 152.65 59.779 152.575 59.761H152.506V59.742H152.49C151.959 59.6094 151.44 59.4339 150.938 59.217L150.898 59.201L150.861 59.186C149.925 58.7715 149.05 58.2304 148.261 57.578L148.194 57.523C147.373 56.8316 146.639 56.0439 146.006 55.177C145.987 55.149 145.969 55.125 145.951 55.102C145.28 54.1706 144.711 53.1706 144.251 52.119L144.211 52.024C143.724 50.89 143.348 49.712 143.086 48.506C143.086 48.487 143.077 48.467 143.073 48.446L143.063 48.399C142.999 48.099 142.942 47.799 142.889 47.475L143.047 47.449C143.1 47.77 143.156 48.069 143.22 48.365L143.23 48.414C143.23 48.433 143.238 48.451 143.242 48.47C143.502 49.6671 143.876 50.8365 144.359 51.962L144.398 52.056C144.851 53.0957 145.413 54.0846 146.075 55.006C146.093 55.03 146.112 55.056 146.131 55.083C146.755 55.9371 147.478 56.7134 148.287 57.395L148.354 57.45C149.13 58.0919 149.99 58.6245 150.91 59.033L150.986 59.064C151.481 59.2776 151.993 59.4505 152.516 59.581L152.65 59.615L152.823 59.654L152.8 59.813Z"
        fill="black"
      />
      <path
        d="M146.418 57.161L146.238 57.039L146.199 57.01C146.15 56.978 146.09 56.936 146.029 56.893L146.007 56.878C145.984 56.86 145.969 56.849 145.954 56.838L145.921 56.816C145.796 56.725 145.675 56.636 145.554 56.543C145.169 56.252 144.794 55.943 144.438 55.615C143.971 55.1958 143.529 54.7501 143.113 54.28C143.089 54.254 143.064 54.224 143.04 54.197C142.2 53.2371 141.469 52.1874 140.86 51.067C140.847 51.045 140.833 51.019 140.82 50.994L140.809 50.972C140.215 49.8629 139.741 48.6937 139.396 47.484L139.55 47.44C139.892 48.6389 140.362 49.7978 140.95 50.897L140.962 50.92C140.974 50.943 140.986 50.966 140.999 50.988C141.603 52.0977 142.328 53.1374 143.161 54.088C143.184 54.115 143.207 54.143 143.231 54.168C143.643 54.6338 144.082 55.0756 144.545 55.491C144.898 55.812 145.27 56.121 145.651 56.41C145.771 56.502 145.891 56.59 146.011 56.678L146.046 56.702C146.064 56.715 146.083 56.728 146.1 56.742L146.3 56.881L146.327 56.899L146.509 57.022L146.418 57.161Z"
        fill="black"
      />
      <path
        d="M169.151 55.01L169.115 54.938L169.058 54.882L169.08 54.864L169.158 55.005L169.119 54.935L169.177 54.99L169.151 55.01Z"
        fill="black"
      />
      <path d="M173.621 47.383H139.431V47.544H173.621V47.383Z" fill="black" />
      <path
        d="M178.748 47.435L179.098 48.514H180.228L179.313 49.181L179.663 50.26L178.748 49.593L177.833 50.26L178.182 49.181L177.267 48.514H178.398L178.748 47.435Z"
        fill="black"
      />
      <path
        d="M176.03 52.409L176.38 53.488H177.511L176.596 54.155L176.945 55.234L176.03 54.567L175.115 55.234L175.464 54.155L174.549 53.488H175.68L176.03 52.409Z"
        fill="black"
      />
      <path
        d="M172.262 56.583L172.612 57.662H173.743L172.828 58.329L173.178 59.408L172.263 58.741L171.348 59.408L171.698 58.329L170.783 57.662H171.914L172.262 56.583Z"
        fill="black"
      />
      <path
        d="M167.623 59.78L167.973 60.859H169.104L168.189 61.526L168.538 62.605L167.623 61.938L166.708 62.605L167.057 61.526L166.142 60.859H167.274L167.623 59.78Z"
        fill="black"
      />
      <path
        d="M162.286 61.825L162.636 62.904H163.767L162.852 63.571L163.202 64.65L162.287 63.983L161.372 64.65L161.722 63.571L160.807 62.904H161.938L162.286 61.825Z"
        fill="black"
      />
      <path
        d="M156.423 62.548L156.772 63.627H157.899L156.984 64.294L157.334 65.373L156.419 64.706L155.504 65.373L155.854 64.294L154.939 63.627H156.07L156.423 62.548Z"
        fill="black"
      />
      <path
        d="M150.561 61.825L150.91 62.904H152.044L151.129 63.571L151.478 64.65L150.563 63.983L149.648 64.65L149.997 63.571L149.082 62.904H150.213L150.561 61.825Z"
        fill="black"
      />
      <path
        d="M145.222 59.78L145.571 60.859H146.702L145.787 61.526L146.137 62.605L145.222 61.938L144.307 62.605L144.656 61.526L143.741 60.859H144.872L145.222 59.78Z"
        fill="black"
      />
      <path
        d="M140.583 56.583L140.933 57.662H142.064L141.149 58.329L141.499 59.408L140.584 58.741L139.669 59.408L140.018 58.329L139.103 57.662H140.234L140.583 56.583Z"
        fill="black"
      />
      <path
        d="M136.817 52.409L137.167 53.488H138.298L137.383 54.155L137.733 55.234L136.818 54.567L135.903 55.234L136.253 54.155L135.338 53.488H136.469L136.817 52.409Z"
        fill="black"
      />
      <path
        d="M134.1 47.435L134.45 48.514H135.581L134.666 49.181L135.015 50.26L134.1 49.593L133.185 50.26L133.535 49.181L132.62 48.514H133.751L134.1 47.435Z"
        fill="black"
      />
    </g>
  </g>
  <defs>
    <clipPath id="cLogo">
      <rect width="312.6" height="72.606" fill="white" />
    </clipPath>
    <clipPath id="cLogo">
      <rect
        width="90.964"
        height="68.349"
        fill="white"
        transform="translate(111 5)"
      />
    </clipPath>
  </defs>
</svg>
