<svg
  width="490"
  height="302"
  viewBox="0 0 490 302"
  fill="none"
  xmlns="http://www.w3.org/2000/svg"
  class="md:absolute bottom-0 md:right-0 md:bottom-auto md:mr-35 h-40 sm:h-auto md:w-96 mb-20 sm:mb-0"
>
  <g clip-path="url(#cm)">
    <path
      d="M328.665 293.297V280.567L316.934 291.331L313.02 257.56L282.216 279.587L278.307 264.897L267.55 275.668V258.055L254.349 273.718L242.617 238.479L227.947 274.723L206.436 247.777L190.3 284.489V266.875L181.005 284.01L174.648 261.002L157.054 288.42L130.166 254.643L121.852 287.928L114.03 278.623L108.162 301.67H334.044L336.001 292.814L328.665 293.297Z"
      fill="#EDEEEF"
    />
    <path
      d="M235.319 110.083C235.319 110.083 346.69 251.632 147.946 246.544L140.062 253.309V205.828L208.164 190.755L200.167 103.384"
      fill="#E3AB4E"
    />
    <path
      d="M205.782 164.727C226.345 165.809 242.81 193.263 242.81 226.978C242.81 227.716 242.81 228.45 242.785 229.183C227.621 238.949 203.908 245.517 168.172 246.544C166.876 240.1 166.228 233.542 166.24 226.968C166.197 217.542 167.556 208.161 170.271 199.135L208.179 190.745L205.782 164.727Z"
      fill="black"
    />
    <path
      d="M225.304 112.542C225.304 112.542 232.881 236.367 211.473 294.994L215.945 301.569H177.903C177.903 301.569 173.743 144.069 173.743 110.078L225.304 112.542Z"
      fill="#FEC85C"
    />
    <path
      d="M196.381 16.7414V32.8347L216.298 37.7333V10.5816L196.381 5.68294V16.7414Z"
      fill="#FFE5BB"
    />
    <path
      d="M207.631 22.3113C207.925 22.3113 208.164 22.0725 208.164 21.7779C208.164 21.4833 207.925 21.2445 207.631 21.2445C207.337 21.2445 207.098 21.4833 207.098 21.7779C207.098 22.0725 207.337 22.3113 207.631 22.3113Z"
      fill="black"
    />
    <path
      d="M199.45 22.3113C199.744 22.3113 199.983 22.0725 199.983 21.7779C199.983 21.4833 199.744 21.2445 199.45 21.2445C199.156 21.2445 198.917 21.4833 198.917 21.7779C198.917 22.0725 199.156 22.3113 199.45 22.3113Z"
      fill="black"
    />
    <path
      d="M201.855 24.9567V16.7414H197.739"
      stroke="black"
      stroke-width="0.5"
      stroke-linecap="round"
      stroke-linejoin="round"
    />
    <path
      d="M208.634 16.7414H204.521"
      stroke="black"
      stroke-width="0.5"
      stroke-linecap="round"
      stroke-linejoin="round"
    />
    <path
      d="M214.982 20.952V23.8035C215.72 23.8035 216.427 23.5101 216.949 22.9878C217.471 22.4655 217.764 21.7571 217.764 21.0185V20.7676C217.715 20.4172 217.536 20.0983 217.262 19.8749C216.988 19.6516 216.64 19.5404 216.287 19.5638C215.935 19.5872 215.604 19.7433 215.362 20.0009C215.12 20.2585 214.984 20.5983 214.982 20.952V20.952Z"
      fill="#FFE5BB"
    />
    <path
      d="M214.982 23.8035C215.72 23.8035 216.427 23.5101 216.949 22.9878C217.471 22.4655 217.764 21.7571 217.764 21.0185"
      stroke="black"
      stroke-width="0.5"
      stroke-linecap="round"
      stroke-linejoin="round"
    />
    <path
      d="M203.651 26.9823C204.399 26.9823 205.117 26.6846 205.646 26.1549C206.175 25.6251 206.472 24.9066 206.472 24.1574"
      stroke="black"
      stroke-width="0.5"
      stroke-linecap="round"
      stroke-linejoin="round"
    />
    <path
      d="M196.381 32.8347L216.293 37.7333"
      stroke="black"
      stroke-width="0.5"
      stroke-linecap="round"
      stroke-linejoin="round"
    />
    <path
      d="M201.853 24.9617L203.651 25.402"
      stroke="black"
      stroke-width="0.5"
      stroke-linecap="round"
      stroke-linejoin="round"
    />
    <path
      d="M235.318 66.5302V110.066L173.845 125.187L173.707 76.7378C173.707 68.3842 176.504 60.2719 181.652 53.6977C186.8 47.1236 194.001 42.4673 202.104 40.4734V40.4734C206.052 39.4994 210.169 39.4373 214.144 40.2919C218.12 41.1466 221.849 42.8954 225.049 45.4062C228.249 47.9169 230.837 51.1237 232.617 54.7838C234.396 58.4438 235.32 62.4612 235.319 66.5318L235.318 66.5302Z"
      fill="#FA7E58"
    />
    <path
      d="M225.304 112.549C225.304 112.549 232.881 236.373 211.473 295"
      stroke="black"
      stroke-width="0.5"
      stroke-linecap="round"
      stroke-linejoin="round"
    />
    <path
      d="M216.961 19.6543C216.961 19.6543 219.634 10.7759 215.424 7.11528C211.213 3.45461 192.519 4.39181 192.519 4.39181C192.519 4.39181 191.208 17.3528 210.444 14.2588C210.516 15.2362 210.889 16.1672 211.511 16.9239C212.133 17.6806 212.974 18.2258 213.918 18.4844"
      stroke="black"
      stroke-width="0.5"
      stroke-linecap="round"
      stroke-linejoin="round"
    />
    <path
      d="M183.098 101.286L183.43 101.224L226.604 93.2698C228.566 89.2635 232.141 88.0072 233.894 88.4393C235.646 88.8713 232.079 91.8607 231.902 92.0285"
      stroke="black"
      stroke-width="0.5"
      stroke-linecap="round"
      stroke-linejoin="round"
    />
    <path
      d="M231.897 92.0152C241.158 86.7577 248.661 90.5197 246.656 95.0262C245.989 96.0146 245.205 96.9185 244.32 97.7181C231.646 110.267 172.341 156.794 167.587 112.545C166.98 107.089 166.797 101.593 167.04 96.1079C168.731 59.5661 190.414 45.6329 190.414 45.6329"
      stroke="black"
      stroke-width="0.5"
      stroke-linecap="round"
      stroke-linejoin="round"
    />
    <path
      d="M234.07 89.32H277.444L296.465 45.3006"
      stroke="black"
      stroke-width="0.5"
      stroke-linecap="round"
      stroke-linejoin="round"
    />
    <path
      d="M293.8 50.0513L226.606 13.5975"
      stroke="#FA7E58"
      stroke-width="0.5"
      stroke-miterlimit="10"
    />
    <path
      d="M227.035 47.1533C227.035 47.1533 242.43 61.6979 246.983 89.3216"
      stroke="black"
      stroke-width="0.5"
      stroke-linecap="round"
      stroke-linejoin="round"
    />
    <path
      d="M268.433 89.3216C268.433 89.3216 257.414 120.576 244.622 123.647"
      stroke="black"
      stroke-width="0.5"
      stroke-linecap="round"
      stroke-linejoin="round"
    />
    <path
      d="M251.159 89.3216C251.159 89.3216 256.594 81.7411 260.194 79.988C263.794 78.2349 274.681 82.2446 273.307 84.1223C272.832 84.6542 272.203 85.0246 271.508 85.1819C270.813 85.3391 270.086 85.2754 269.429 84.9996C269.429 84.9996 270.055 86.8773 268.916 87.3791"
      stroke="black"
      stroke-width="0.5"
      stroke-linecap="round"
      stroke-linejoin="round"
    />
    <path
      d="M483.729 258.945C482.093 254.349 477.286 260.419 477.286 260.419C477.286 260.419 483.072 248.123 477.286 245.323C474.428 243.944 472.956 245.566 472.141 247.56C475.102 229.663 475.744 195.154 463.792 193.949C450.74 192.64 455.209 225.788 455.209 225.788C455.209 225.788 451.606 216.25 447.017 220.534C442.428 224.818 451.277 252.702 451.277 252.702C450.29 249.746 445.05 247.448 443.085 252.702C441.12 257.957 448.662 269.116 448.662 269.116L474.566 273.382C474.566 273.382 485.366 263.548 483.729 258.945Z"
      fill="black"
    />
    <path
      d="M481.806 300.972H444.713L436.51 267.789H490L481.806 300.972Z"
      fill="#FF6498"
    />
    <path
      d="M436.509 267.787H489.998"
      stroke="black"
      stroke-width="0.5"
      stroke-miterlimit="10"
    />
    <path
      d="M351.382 217.35V290.732L346.549 301.154H379.711L390.45 198.352L351.382 217.35Z"
      fill="#FFC9BD"
    />
    <path
      d="M358.753 110.448L410.233 107.457V301.154H375.434L379.713 293.48L358.753 110.448Z"
      fill="#FFC9BD"
    />
    <path
      d="M361.273 18.8849V25.7693C361.264 28.3637 362.127 30.8858 363.722 32.9303C365.317 34.9748 367.553 36.423 370.07 37.042L381.024 39.7007V12.8148L371.922 10.5782C370.661 10.2688 369.346 10.2496 368.077 10.522C366.807 10.7944 365.616 11.3513 364.592 12.151C363.569 12.9506 362.739 13.9721 362.167 15.1387C361.594 16.3054 361.293 17.5867 361.286 18.8866L361.273 18.8849Z"
      fill="#FFC9BD"
    />
    <path
      d="M361.273 25.7427C361.264 28.3371 362.127 30.8592 363.722 32.9037C365.317 34.9482 367.553 36.3964 370.07 37.0155L381.024 39.6941"
      stroke="black"
      stroke-width="0.5"
      stroke-linecap="round"
      stroke-linejoin="round"
    />
    <path
      d="M372.428 24.3718C372.72 24.3718 372.956 24.1352 372.956 23.8434C372.956 23.5515 372.72 23.3149 372.428 23.3149C372.137 23.3149 371.9 23.5515 371.9 23.8434C371.9 24.1352 372.137 24.3718 372.428 24.3718Z"
      fill="black"
    />
    <path
      d="M364.32 24.3718C364.612 24.3718 364.848 24.1352 364.848 23.8434C364.848 23.5515 364.612 23.3149 364.32 23.3149C364.029 23.3149 363.793 23.5515 363.793 23.8434C363.793 24.1352 364.029 24.3718 364.32 24.3718Z"
      fill="black"
    />
    <path
      d="M366.694 27.0005V18.8583H362.624"
      stroke="black"
      stroke-width="0.5"
      stroke-linecap="round"
      stroke-linejoin="round"
    />
    <path
      d="M373.416 18.8583H369.344"
      stroke="black"
      stroke-width="0.5"
      stroke-linecap="round"
      stroke-linejoin="round"
    />
    <path
      d="M379.713 23.0358V25.8274C380.438 25.8253 381.132 25.5373 381.646 25.0259C382.16 24.5145 382.452 23.821 382.458 23.0956V22.8447C382.416 22.4931 382.241 22.1712 381.969 21.9454C381.696 21.7197 381.348 21.6075 380.995 21.632C380.642 21.6566 380.312 21.816 380.074 22.0773C379.835 22.3386 379.706 22.6818 379.713 23.0358V23.0358Z"
      fill="#FFC9BD"
    />
    <path
      d="M379.713 25.8224C380.438 25.8203 381.132 25.5323 381.646 25.0209C382.16 24.5095 382.452 23.816 382.458 23.0906"
      stroke="black"
      stroke-width="0.5"
      stroke-linecap="round"
      stroke-linejoin="round"
    />
    <path
      d="M368.92 29.7057C369.089 29.8778 369.292 30.0144 369.515 30.1077C369.737 30.2009 369.977 30.2489 370.218 30.2489C370.46 30.2489 370.699 30.2009 370.922 30.1077C371.145 30.0144 371.347 29.8778 371.517 29.7057"
      stroke="black"
      stroke-width="0.5"
      stroke-linecap="round"
      stroke-linejoin="round"
    />
    <path
      d="M366.695 27.0005L368.48 27.4425"
      stroke="black"
      stroke-width="0.5"
      stroke-linecap="round"
      stroke-linejoin="round"
    />
    <path
      d="M381.705 27.8497C381.705 28.244 381.588 28.6296 381.369 28.9575C381.15 29.2854 380.839 29.541 380.475 29.6919C380.111 29.8428 379.711 29.8823 379.324 29.8054C378.938 29.7284 378.583 29.5385 378.305 29.2596C378.026 28.9808 377.836 28.6255 377.76 28.2387C377.683 27.8519 377.722 27.4509 377.873 27.0866C378.024 26.7222 378.279 26.4108 378.606 26.1917C378.934 25.9726 379.319 25.8557 379.713 25.8557"
      stroke="#FF6498"
      stroke-width="0.5"
      stroke-linecap="round"
      stroke-linejoin="round"
    />
    <path
      d="M361.275 29.3751C361.027 29.5724 360.736 29.7077 360.425 29.7698C360.115 29.8319 359.794 29.8191 359.49 29.7323C359.185 29.6456 358.906 29.4874 358.674 29.2709C358.443 29.0544 358.267 28.7859 358.16 28.4875C358.053 28.1892 358.019 27.8696 358.06 27.5554C358.101 27.2411 358.216 26.9412 358.397 26.6805C358.577 26.4198 358.816 26.2058 359.095 26.0563C359.374 25.9068 359.685 25.826 360.002 25.8208"
      stroke="#FF6498"
      stroke-width="0.5"
      stroke-linecap="round"
      stroke-linejoin="round"
    />
    <path
      d="M410.233 68.22V111.367L349.183 126.402V78.3396C349.186 70.0624 351.959 62.0248 357.061 55.5113C362.163 48.9977 369.298 44.3841 377.326 42.4076V42.4076C381.239 41.4421 385.32 41.3808 389.259 42.2281C393.199 43.0754 396.895 44.8093 400.066 47.2983C403.237 49.7873 405.801 52.9661 407.563 56.5941C409.326 60.2221 410.24 64.204 410.238 68.2383L410.233 68.22Z"
      fill="#EE5A98"
    />
    <path
      d="M410.233 111.367L349.183 126.389V220.888L441.965 206.265L410.233 111.367Z"
      fill="#FA7E58"
    />
    <path
      d="M375.432 301.154L379.711 293.48L367.915 190.514"
      stroke="black"
      stroke-width="0.5"
      stroke-linecap="round"
      stroke-linejoin="round"
    />
    <path
      d="M401.506 48.486C401.506 48.486 430.658 73.7003 411.561 108.956C392.463 144.212 330.954 93.8082 330.209 89.8368C329.463 85.8653 335.917 84.8684 341.372 87.8511C341.372 87.8511 340.627 83.7849 343.606 84.9465C345.591 85.9208 347.17 87.5632 348.066 89.5858L389.984 91.3206L384.528 68.2234"
      stroke="black"
      stroke-width="0.5"
      stroke-linecap="round"
      stroke-linejoin="round"
    />
    <path
      d="M361.993 90.1774L343.57 41.6116L301.412 53.0922L327.455 111.369L350.753 106.643"
      stroke="black"
      stroke-width="0.5"
      stroke-linecap="round"
      stroke-linejoin="round"
    />
    <path
      d="M357.47 110.691C357.47 110.691 380.993 141.229 415.767 127.894L410.123 111.299C398.8 128.137 375.874 121.086 357.47 110.691Z"
      fill="black"
    />
    <path
      d="M361.673 50.603L350.725 60.4617"
      stroke="black"
      stroke-width="0.5"
      stroke-linecap="round"
      stroke-linejoin="round"
    />
    <path
      d="M311.397 75.435C311.397 75.435 304.469 101.326 320.924 112.313C337.379 123.3 349.185 115.137 349.185 115.137"
      stroke="black"
      stroke-width="0.5"
      stroke-linecap="round"
      stroke-linejoin="round"
    />
    <path
      d="M361.273 20.7327C359.874 20.0575 358.733 18.9436 358.023 17.5602C357.313 16.1768 357.074 14.5994 357.341 13.0674C358.207 7.5008 374.506 -7.66364 385.497 6.87601C396.488 21.4157 414.684 48.8865 414.684 48.8865L402.681 50.7326C399.934 51.1553 397.129 50.9783 394.457 50.2137C391.786 49.4492 389.31 48.1152 387.202 46.3032C385.093 44.4912 383.401 42.2441 382.242 39.716C381.082 37.1878 380.482 34.4385 380.483 31.6566V24.0876"
      stroke="black"
      stroke-width="0.5"
      stroke-linecap="round"
      stroke-linejoin="round"
    />
    <path
      d="M361.082 18.6855C361.082 18.6855 366.279 15.9537 367.205 11.3409C367.213 11.3066 367.232 11.2761 367.26 11.2543C367.288 11.2324 367.322 11.2205 367.357 11.2205C367.392 11.2205 367.426 11.2324 367.454 11.2543C367.481 11.2761 367.501 11.3066 367.509 11.3409C368.149 13.3432 370.817 18.6074 381.202 19.8636"
      stroke="black"
      stroke-width="0.5"
      stroke-linecap="round"
      stroke-linejoin="round"
    />
    <path
      d="M38.0138 97.8926C38.0138 97.8926 41.9624 118.996 27.9589 115.764C13.9554 112.532 2.89629 68.1868 13.5039 63.1071C24.1115 58.0273 38.0055 68.4577 36.7839 74.9598C36.3302 78.6995 36.2463 82.4748 36.5333 86.2309"
      stroke="black"
      stroke-width="0.5"
      stroke-miterlimit="10"
    />
    <path
      d="M8.40177 286.022C8.40177 225.188 42.4039 123.949 42.4039 123.949L63.981 108.662L75.1363 177.031L36.9117 301.803L0 291.311L8.40177 286.022Z"
      fill="#CA256A"
    />
    <path
      d="M46.6313 186.794C46.6313 163.105 55.1626 142.487 67.747 131.777L75.1346 177.03L58.5568 231.146C51.1874 219.776 46.6313 204.1 46.6313 186.794Z"
      fill="black"
    />
    <path
      d="M52.1301 107.735L96.4627 104.69L104.526 107.977L108.31 301.803H67.1312L71.4881 293.993L52.1301 107.735Z"
      fill="#FF6498"
    />
    <path
      d="M82.7015 14.548V21.4838C82.702 24.1166 81.8206 26.6735 80.1981 28.7454C78.5756 30.8174 76.3059 32.2848 73.752 32.9128L62.6183 35.6861V8.30005L71.8765 6.02023C73.1636 5.70317 74.5058 5.68338 75.8017 5.96236C77.0975 6.24134 78.313 6.81179 79.3561 7.63053C80.3992 8.44926 81.2427 9.49483 81.8225 10.6881C82.4024 11.8814 82.7036 13.191 82.7032 14.518L82.7015 14.548Z"
      fill="#F9C5DB"
    />
    <path
      d="M82.7015 21.4854C82.702 24.1182 81.8206 26.6751 80.1981 28.7471C78.5756 30.8191 76.3059 32.2864 73.752 32.9144L62.6183 35.6878"
      stroke="black"
      stroke-width="0.5"
      stroke-linecap="round"
      stroke-linejoin="round"
    />
    <path
      d="M71.357 20.1345C71.654 20.1345 71.8947 19.8935 71.8947 19.5961C71.8947 19.2988 71.654 19.0577 71.357 19.0577C71.06 19.0577 70.8192 19.2988 70.8192 19.5961C70.8192 19.8935 71.06 20.1345 71.357 20.1345Z"
      fill="black"
    />
    <path
      d="M79.6027 20.1345C79.8997 20.1345 80.1405 19.8935 80.1405 19.5961C80.1405 19.2988 79.8997 19.0577 79.6027 19.0577C79.3057 19.0577 79.065 19.2988 79.065 19.5961C79.065 19.8935 79.3057 20.1345 79.6027 20.1345Z"
      fill="black"
    />
    <path
      d="M77.1861 22.8032V14.523H81.3256"
      stroke="black"
      stroke-width="0.5"
      stroke-linecap="round"
      stroke-linejoin="round"
    />
    <path
      d="M70.3445 14.523H74.4923"
      stroke="black"
      stroke-width="0.5"
      stroke-linecap="round"
      stroke-linejoin="round"
    />
    <path
      d="M63.9444 18.762V21.64C63.2 21.64 62.4862 21.3439 61.9598 20.817C61.4334 20.29 61.1377 19.5753 61.1377 18.8301C61.1377 18.7437 61.1377 18.66 61.1377 18.5792C61.162 18.2066 61.333 17.8588 61.6133 17.6125C61.8936 17.3662 62.2602 17.2414 62.6324 17.2656C63.0046 17.2899 63.3519 17.4611 63.598 17.7417C63.844 18.0224 63.9686 18.3893 63.9444 18.762V18.762Z"
      fill="#F9C5DB"
    />
    <path
      d="M63.9444 21.6416C63.2 21.6416 62.4862 21.3456 61.9598 20.8186C61.4334 20.2917 61.1377 19.577 61.1377 18.8318"
      stroke="black"
      stroke-width="0.5"
      stroke-linecap="round"
      stroke-linejoin="round"
    />
    <path
      d="M74.9172 23.7736C74.5695 24.1123 74.1036 24.3018 73.6184 24.3018C73.1333 24.3018 72.6673 24.1123 72.3197 23.7736"
      stroke="black"
      stroke-width="0.5"
      stroke-linecap="round"
      stroke-linejoin="round"
    />
    <path
      d="M77.1861 22.8115L75.367 23.2535"
      stroke="black"
      stroke-width="0.5"
      stroke-linecap="round"
      stroke-linejoin="round"
    />
    <path
      d="M104.537 64.7521V108.655L42.4138 123.943V75.0529C42.4147 66.6288 45.2363 58.4481 50.4277 51.8184C55.6191 45.1888 62.8806 40.4928 71.0516 38.4811C75.0314 37.5013 79.1816 37.4403 83.1884 38.3028C87.1952 39.1653 90.9537 40.9286 94.1795 43.4594C97.4054 45.9902 100.014 49.2223 101.809 52.9111C103.603 56.6 104.536 60.6491 104.537 64.7521Z"
      fill="#AD7FE1"
    />
    <path
      d="M83.1264 18.6573C73.3487 17.3828 71.8665 9.38014 71.8665 9.38014C71.8665 9.38014 72.6964 17.5223 62.9718 17.9727"
      stroke="black"
      stroke-width="0.5"
      stroke-linecap="round"
      stroke-linejoin="round"
    />
    <path
      d="M62.9652 27.0521C62.9652 27.0521 50.0953 11.8527 65.3038 2.59221C78.1919 -5.21766 90.6718 11.4888 88.8726 19.5961C87.0734 27.7034 81.3023 27.0354 81.3023 27.0354"
      stroke="black"
      stroke-width="0.5"
      stroke-linecap="round"
      stroke-linejoin="round"
    />
    <path
      d="M90.8278 18.6589C90.5248 20.9687 89.6076 23.1547 88.1721 24.9883"
      stroke="#FF6498"
      stroke-width="0.5"
      stroke-linecap="round"
      stroke-linejoin="round"
    />
    <path
      d="M92.2204 20.1328C92.2204 20.1328 101.86 19.4682 103.281 27.8065C104.702 36.1447 107.447 35.6878 107.447 35.6878C107.447 35.6878 90.4626 38.8267 89.0767 25.7426"
      stroke="black"
      stroke-width="0.5"
      stroke-linecap="round"
      stroke-linejoin="round"
    />
    <path
      d="M71.4881 293.99L53.5509 121.415"
      stroke="black"
      stroke-width="0.5"
      stroke-linecap="round"
      stroke-linejoin="round"
    />
    <path
      d="M84.3646 69.4663L87.1962 72.233L95.978 80.8172L90.6004 81.1994C75.3305 82.3011 32.7291 85.5347 30.8485 87.1565C28.5796 89.1771 36.1482 92.7148 36.1482 92.7148V92.8527C36.6401 95.436 37.7289 97.8681 39.3275 99.9548C40.9262 102.041 42.9903 103.725 45.355 104.87C63.3087 113.471 86.5024 113.125 104.474 108.193C119.64 104.039 131.097 96.6347 132.596 88.5972C132.947 86.7451 132.748 84.8307 132.025 83.0904C127.824 72.685 118.964 63.2433 111.022 56.3058C106.122 52.0132 100.911 48.0892 95.432 44.5661"
      stroke="black"
      stroke-width="0.5"
      stroke-linecap="round"
      stroke-linejoin="round"
    />
    <path
      d="M90.5938 81.1911L84.3663 69.4597L87.1979 72.2263L95.9797 80.8105L90.5938 81.1911Z"
      fill="black"
      stroke="black"
      stroke-width="0.5"
      stroke-linecap="round"
      stroke-linejoin="round"
    />
    <path
      d="M104.529 108.193V108.609C86.7049 113.261 64.0838 119.993 46.5019 111.565C45.0089 110.848 43.6311 109.913 42.4138 108.79V102.991C43.3468 103.715 44.3545 104.337 45.4197 104.847C63.3535 113.482 86.5389 113.135 104.529 108.193Z"
      fill="black"
    />
    <path
      d="M53.5509 48.2866C53.5509 48.2866 43.911 58.8299 36.4287 78.8082"
      stroke="black"
      stroke-width="0.5"
      stroke-linecap="round"
      stroke-linejoin="round"
    />
    <path
      d="M39.2868 133.59C39.2868 133.59 21.514 131.856 9.39763 109.885C-2.71871 87.9142 8.83497 68.8415 9.39763 75.4533C9.9603 82.0651 10.0615 82.7281 10.0615 82.7281"
      stroke="black"
      stroke-width="0.5"
      stroke-linecap="round"
      stroke-linejoin="round"
    />
    <path
      d="M30.1647 76.2841C31.2455 76.2841 32.1216 75.0693 32.1216 73.5706C32.1216 72.072 31.2455 70.8571 30.1647 70.8571C29.084 70.8571 28.2078 72.072 28.2078 73.5706C28.2078 75.0693 29.084 76.2841 30.1647 76.2841Z"
      fill="#FA7E58"
    />
    <path
      d="M23.3497 72.773C24.4304 72.773 25.3066 71.5581 25.3066 70.0595C25.3066 68.5609 24.4304 67.346 23.3497 67.346C22.2689 67.346 21.3928 68.5609 21.3928 70.0595C21.3928 71.5581 22.2689 72.773 23.3497 72.773Z"
      fill="#AD7FE1"
    />
    <path
      d="M16.2127 74.237C17.2934 74.237 18.1695 73.0221 18.1695 71.5234C18.1695 70.0248 17.2934 68.8099 16.2127 68.8099C15.1319 68.8099 14.2558 70.0248 14.2558 71.5234C14.2558 73.0221 15.1319 74.237 16.2127 74.237Z"
      fill="#C6E648"
    />
    <path
      d="M17.728 83.5241C18.8088 83.5241 19.6849 82.3092 19.6849 80.8106C19.6849 79.3119 18.8088 78.097 17.728 78.097C16.6473 78.097 15.7712 79.3119 15.7712 80.8106C15.7712 82.3092 16.6473 83.5241 17.728 83.5241Z"
      fill="white"
      stroke="black"
      stroke-width="0.5"
      stroke-miterlimit="10"
    />
  </g>
  <defs>
    <clipPath id="cm">
      <rect width="490" height="301.803" fill="white" />
    </clipPath>
  </defs>
</svg>
