<svg
  xmlns="http://www.w3.org/2000/svg"
  width="295.221"
  height="181.626"
  viewBox="0 0 295.221 181.626"
  class="absolute bottom-0 md:right-0 md:bottom-auto md:mr-35"
>
  <defs>
    <style>
      .a {
        fill: #edeeef;
      }
      .b {
        fill: #e3ab4e;
      }
      .c {
        fill: #fec85c;
      }
      .d {
        fill: #ffe5bb;
      }
      .e,
      .g,
      .i,
      .k {
        fill: none;
      }
      .e,
      .i,
      .p,
      .r {
        stroke: #000;
      }
      .e,
      .k,
      .p {
        stroke-linecap: round;
        stroke-linejoin: round;
      }
      .e,
      .g,
      .i,
      .k,
      .p,
      .r {
        stroke-width: 0.5px;
      }
      .f {
        fill: #fa7e58;
      }
      .g {
        stroke: #fa7e58;
      }
      .g,
      .i,
      .r {
        stroke-miterlimit: 10;
      }
      .h {
        fill: #ff6498;
      }
      .j {
        fill: #ffc9bd;
      }
      .k {
        stroke: #ff6498;
      }
      .l {
        fill: #ee5a98;
      }
      .m {
        fill: #ca256a;
      }
      .n {
        fill: #f9c5db;
      }
      .o {
        fill: #ad7fe1;
      }
      .q {
        fill: #c6e648;
      }
      .r {
        fill: #fff;
      }
    </style>
  </defs>
  <g transform="translate(-33.871 -19.494)">
    <g transform="translate(33.871 19.835)">
      <g transform="translate(65.167 2.237)">
        <path
          class="a"
          d="M229.711,681.261V673.6l-7.068,6.478-2.358-20.324-18.559,13.256-2.355-8.84-6.481,6.482v-10.6l-7.954,9.426-7.068-21.207-8.839,21.812-12.96-16.216-9.722,22.093v-10.6l-5.6,10.312-3.83-13.846-10.6,16.5-16.2-20.327-5.009,20.031-4.713-5.6L96.86,686.3H232.952l1.179-5.33Z"
          transform="translate(-96.86 -507.332)"
        />
        <path
          class="b"
          d="M216.522,388.891s67.1,85.185-52.642,82.123l-4.75,4.071V446.511l41.031-9.071-4.818-52.58"
          transform="translate(-139.911 -325.221)"
        />
        <path
          d="M234.053,504.47c12.389.651,22.309,17.173,22.309,37.463,0,.444,0,.886-.015,1.327-9.136,5.877-23.423,9.83-44.954,10.448a59.184,59.184,0,0,1-1.164-11.781,57.2,57.2,0,0,1,2.429-16.75l22.839-5.049Z"
          transform="translate(-175.238 -407.915)"
        />
        <path
          class="c"
          d="M255.945,399.4s4.565,74.518-8.333,109.8l2.694,3.957h-22.92s-2.506-94.784-2.506-115.24Z"
          transform="translate(-185.368 -334.25)"
        />
        <path
          class="d"
          d="M269.07,201.007v9.685l12,2.948V197.3l-12-2.948Z"
          transform="translate(-215.919 -193.51)"
        />
        <ellipse
          cx="0.321"
          cy="0.321"
          rx="0.321"
          ry="0.321"
          transform="translate(59.608 10.207)"
        />
        <ellipse
          cx="0.321"
          cy="0.321"
          rx="0.321"
          ry="0.321"
          transform="translate(54.679 10.207)"
        />
        <path
          class="e"
          d="M274.2,220.864V215.92H271.72"
          transform="translate(-217.751 -208.423)"
        />
        <line class="e" x1="2.478" transform="translate(58.055 7.497)" />
        <path
          class="d"
          d="M305.38,222.246v1.716a1.676,1.676,0,0,0,1.676-1.676v-.151A.842.842,0,0,0,305.38,222.246Z"
          transform="translate(-241.022 -212.215)"
        />
        <path
          class="e"
          d="M305.38,225.936a1.676,1.676,0,0,0,1.676-1.676"
          transform="translate(-241.022 -214.189)"
        />
        <path
          class="e"
          d="M283.26,232.087a1.7,1.7,0,0,0,1.7-1.7"
          transform="translate(-225.729 -218.427)"
        />
        <line
          class="e"
          x2="11.997"
          y2="2.948"
          transform="translate(53.151 17.182)"
        />
        <line
          class="e"
          x2="1.083"
          y2="0.265"
          transform="translate(56.448 12.444)"
        />
        <path
          class="f"
          d="M261.93,276.821v26.2l-37.037,9.1-.083-29.157a22.473,22.473,0,0,1,17.109-21.824h0a16.148,16.148,0,0,1,20.012,15.682Z"
          transform="translate(-185.32 -239.361)"
        />
        <path
          class="e"
          d="M306.863,402.73s4.565,74.518-8.333,109.8"
          transform="translate(-236.286 -337.576)"
        />
        <path
          class="e"
          d="M276.237,200.88s1.611-5.343-.926-7.546-13.8-1.639-13.8-1.639-.79,7.8,10.8,5.938a2.854,2.854,0,0,0,2.093,2.543"
          transform="translate(-210.687 -191.63)"
        />
        <path
          class="e"
          d="M243.14,363.343l.2-.037,26.012-4.787c1.182-2.411,3.336-3.167,4.392-2.907s-1.093,2.059-1.2,2.16"
          transform="translate(-197.992 -304.967)"
        />
        <path
          class="e"
          d="M250.727,300.164c5.58-3.164,10.1-.9,8.892,1.812a8.887,8.887,0,0,1-1.407,1.62c-7.636,7.552-43.367,35.552-46.231,8.923a63.862,63.862,0,0,1-.33-9.892c1.019-21.991,14.083-30.376,14.083-30.376"
          transform="translate(-176.178 -247.367)"
        />
        <path
          class="e"
          d="M342.64,298.1h26.133l11.46-26.491"
          transform="translate(-266.782 -246.925)"
        />
        <line
          class="g"
          x1="40.484"
          y1="21.938"
          transform="translate(71.361 5.605)"
        />
        <path
          class="e"
          d="M328.91,275.22s9.275,8.753,12.018,25.377"
          transform="translate(-257.29 -249.421)"
        />
        <path
          class="e"
          d="M377.586,357.44s-6.639,18.809-14.346,20.657"
          transform="translate(-281.024 -306.264)"
        />
        <path
          class="e"
          d="M376,344.273s3.275-4.562,5.444-5.617,8.728,1.358,7.9,2.488a2.063,2.063,0,0,1-2.336.528s.377,1.13-.309,1.432"
          transform="translate(-289.846 -293.097)"
        />
      </g>
      <g transform="translate(181.597 0.108)">
        <path
          d="M586.308,320c-.986-2.766-3.882.887-3.882.887s3.486-7.4,0-9.085c-1.722-.83-2.609.146-3.1,1.346,1.784-10.77,2.171-31.538-5.03-32.263-7.864-.788-5.171,19.161-5.171,19.161s-2.171-5.74-4.936-3.162,2.567,19.359,2.567,19.359c-.595-1.779-3.752-3.162-4.936,0s3.36,9.878,3.36,9.878l15.607,2.567S587.294,322.77,586.308,320Z"
          transform="translate(-476.462 -164.615)"
        />
        <path
          class="h"
          d="M581.7,386.03H559.352l-4.942-19.97h32.227Z"
          transform="translate(-473.013 -205.353)"
        />
        <line class="i" x2="32.227" transform="translate(81.396 160.706)" />
        <path
          class="j"
          d="M453.452,297.413v44.161l-2.912,6.272h19.98l6.47-61.866Z"
          transform="translate(-423.344 -167.06)"
        />
        <path
          class="j"
          d="M464.63,182.955l31.016-1.8V297.722H474.68l2.578-4.618Z"
          transform="translate(-430.081 -116.936)"
        />
        <path
          class="j"
          d="M467.54,74.283v4.143a6.961,6.961,0,0,0,5.3,6.784l6.6,1.6V70.63l-5.484-1.346a5.176,5.176,0,0,0-6.408,5Z"
          transform="translate(-431.473 -63.367)"
        />
        <path
          class="e"
          d="M467.54,86.91a6.961,6.961,0,0,0,5.3,6.784l6.6,1.612"
          transform="translate(-431.473 -71.867)"
        />
        <circle
          cx="0.318"
          cy="0.318"
          r="0.318"
          transform="translate(42.47 13.582)"
        />
        <circle
          cx="0.318"
          cy="0.318"
          r="0.318"
          transform="translate(37.585 13.582)"
        />
        <path
          class="e"
          d="M471.552,83.87v-4.9H469.1"
          transform="translate(-432.219 -68.07)"
        />
        <line class="e" x1="2.453" transform="translate(40.93 10.9)" />
        <path
          class="j"
          d="M488.83,83v1.68a1.659,1.659,0,0,0,1.654-1.644v-.151A.83.83,0,0,0,488.83,83Z"
          transform="translate(-441.653 -69.586)"
        />
        <path
          class="e"
          d="M488.83,85.494a1.659,1.659,0,0,0,1.654-1.644"
          transform="translate(-441.653 -70.403)"
        />
        <path
          class="e"
          d="M476.37,91.48a1.1,1.1,0,0,0,1.565,0"
          transform="translate(-435.696 -74.052)"
        />
        <line
          class="e"
          x2="1.075"
          y2="0.266"
          transform="translate(39.334 15.8)"
        />
        <path
          class="k"
          d="M488.93,88.24a1.2,1.2,0,1,1-1.2-1.2"
          transform="translate(-440.553 -71.929)"
        />
        <path
          class="k"
          d="M465.756,89.139A1.2,1.2,0,1,1,464.989,87"
          transform="translate(-429.688 -71.91)"
        />
        <path
          class="l"
          d="M490.362,121.234V147.2l-36.782,9.048V127.324A22.275,22.275,0,0,1,470.536,105.7h0a16,16,0,0,1,19.829,15.545Z"
          transform="translate(-424.797 -80.628)"
        />
        <path
          class="f"
          d="M490.362,185.66,453.58,194.7V251.57l55.9-8.8Z"
          transform="translate(-424.797 -119.088)"
        />
        <path
          class="e"
          d="M479.739,343.523l2.578-4.618L475.21,276.94"
          transform="translate(-435.141 -162.737)"
        />
        <path
          class="e"
          d="M474.6,113.14s17.564,15.174,6.058,36.391-48.565-9.116-49.014-11.506,3.439-2.99,6.726-1.195c0,0-.449-2.447,1.346-1.748a5.672,5.672,0,0,1,2.687,2.792l25.255,1.044-3.287-13.9"
          transform="translate(-414.293 -84.41)"
        />
        <path
          class="e"
          d="M434.921,134.437l-11.1-29.227-25.4,6.909,15.691,35.071,14.037-2.844"
          transform="translate(-398.42 -80.617)"
        />
        <path
          d="M463.15,184.88h0s14.172,18.378,35.123,10.353l-3.4-9.987C488.051,195.379,474.238,191.136,463.15,184.88Z"
          transform="translate(-429.374 -118.715)"
        />
        <line
          class="e"
          x1="6.596"
          y2="5.933"
          transform="translate(29.712 30.004)"
        />
        <path
          class="e"
          d="M409.151,144.22s-4.174,15.581,5.74,22.193,17.027,1.7,17.027,1.7"
          transform="translate(-403.134 -99.272)"
        />
        <path
          class="e"
          d="M465.31,70.108a4.3,4.3,0,0,1-2.369-4.613c.522-3.35,10.342-12.476,16.964-3.726S497.49,87.051,497.49,87.051l-7.232,1.111a11.61,11.61,0,0,1-13.374-11.48V72.127"
          transform="translate(-429.243 -58.08)"
        />
        <path
          class="e"
          d="M467.32,74.654s3.131-1.644,3.689-4.42a.094.094,0,0,1,.183,0c.386,1.205,1.993,4.373,8.25,5.129"
          transform="translate(-431.368 -63.858)"
        />
      </g>
      <g transform="translate(0 0)">
        <path
          class="i"
          d="M95.326,150.19s2.379,12.7-6.058,10.755-15.1-28.632-8.709-31.689,14.762,3.22,14.026,7.133a34.46,34.46,0,0,0-.151,6.783"
          transform="translate(-72.423 -91.619)"
        />
        <path
          class="m"
          d="M72.362,289.276c0-36.61,20.486-97.536,20.486-97.536l13-9.2,6.721,41.145L89.539,298.773,67.3,292.459Z"
          transform="translate(-67.3 -117.488)"
        />
        <path
          d="M121.14,242.309c0-14.256,5.14-26.664,12.722-33.109l4.451,27.233L128.325,269C123.885,262.158,121.14,252.724,121.14,242.309Z"
          transform="translate(-93.045 -130.237)"
        />
        <path
          class="h"
          d="M127.49,179.792,154.2,177.96l4.858,1.978,2.28,116.645H136.528l2.625-4.7Z"
          transform="translate(-96.082 -115.298)"
        />
        <path
          class="n"
          d="M151.7,69.16v4.174a7.081,7.081,0,0,1-5.392,6.878L139.6,81.881V65.4l5.578-1.372a5.265,5.265,0,0,1,6.523,5.114Z"
          transform="translate(-101.873 -60.746)"
        />
        <path
          class="e"
          d="M151.7,82a7.081,7.081,0,0,1-5.392,6.878L139.6,90.547"
          transform="translate(-101.873 -69.411)"
        />
        <circle
          cx="0.324"
          cy="0.324"
          r="0.324"
          transform="translate(42.668 11.128)"
        />
        <circle
          cx="0.324"
          cy="0.324"
          r="0.324"
          transform="translate(47.636 11.128)"
        />
        <path
          class="e"
          d="M156.42,78.953V73.97h2.494"
          transform="translate(-109.916 -65.571)"
        />
        <line class="e" x2="2.499" transform="translate(42.382 8.399)" />
        <path
          class="n"
          d="M139.581,78.033v1.732a1.691,1.691,0,0,1-1.691-1.691q0-.078,0-.151a.847.847,0,0,1,1.691.11Z"
          transform="translate(-101.055 -67.083)"
        />
        <path
          class="e"
          d="M139.581,80.631a1.691,1.691,0,0,1-1.691-1.691"
          transform="translate(-101.055 -67.948)"
        />
        <path
          class="e"
          d="M152.365,84.64a1.122,1.122,0,0,1-1.565,0"
          transform="translate(-107.228 -70.674)"
        />
        <line
          class="e"
          x1="1.096"
          y2="0.266"
          transform="translate(45.408 13.387)"
        />
        <path
          class="o"
          d="M153.7,116.979V143.4l-37.429,9.2V123.178a22.667,22.667,0,0,1,17.254-22.009h0A16.286,16.286,0,0,1,153.7,116.979Z"
          transform="translate(-90.717 -78.352)"
        />
        <path
          class="e"
          d="M152.152,73.623c-5.891-.767-6.784-5.583-6.784-5.583s.5,4.9-5.359,5.171"
          transform="translate(-102.069 -62.736)"
        />
        <path
          class="e"
          d="M137.192,73.813s-7.754-9.147,1.409-14.72c7.765-4.7,15.284,5.354,14.2,10.233s-4.561,4.477-4.561,4.477"
          transform="translate(-99.256 -57.874)"
        />
        <path
          class="k"
          d="M170.707,78.74a7.827,7.827,0,0,1-1.6,3.809"
          transform="translate(-115.984 -67.852)"
        />
        <path
          class="e"
          d="M172.044,80.433s5.808-.4,6.664,4.618,2.51,4.743,2.51,4.743-10.233,1.889-11.068-5.985"
          transform="translate(-116.482 -68.658)"
        />
        <line
          class="e"
          x1="10.807"
          y1="103.856"
          transform="translate(32.264 72.727)"
        />
        <path
          class="e"
          d="M134.923,123.6l1.706,1.665,5.291,5.166-3.24.23c-9.2.663-34.867,2.609-36,3.585-1.367,1.216,3.193,3.345,3.193,3.345h0v.083a10.144,10.144,0,0,0,5.547,7.232c10.817,5.176,24.791,4.968,35.619,2,9.137-2.5,16.04-6.956,16.943-11.793a5.808,5.808,0,0,0-.344-3.314c-2.531-6.262-7.869-11.944-12.654-16.119a79.567,79.567,0,0,0-9.393-7.065"
          transform="translate(-84.094 -82.136)"
        />
        <path
          class="p"
          d="M168.462,144.39l-3.752-7.06,1.706,1.665,5.291,5.166Z"
          transform="translate(-113.88 -95.87)"
        />
        <path
          d="M153.7,179.131v.25c-10.739,2.8-24.368,6.851-34.961,1.779a10.03,10.03,0,0,1-2.463-1.67V176a9.966,9.966,0,0,0,1.811,1.117C128.892,182.314,142.861,182.105,153.7,179.131Z"
          transform="translate(-90.722 -114.361)"
        />
        <path
          class="e"
          d="M119.676,112.91s-5.808,6.345-10.316,18.368"
          transform="translate(-87.412 -84.192)"
        />
        <path
          class="e"
          d="M93.114,178.5s-10.708-1.044-18.008-14.266-.339-24.7,0-20.721.4,4.378.4,4.378"
          transform="translate(-69.444 -98.446)"
        />
        <ellipse
          class="f"
          cx="1.179"
          cy="1.633"
          rx="1.179"
          ry="1.633"
          transform="translate(16.995 42.301)"
        />
        <ellipse
          class="o"
          cx="1.179"
          cy="1.633"
          rx="1.179"
          ry="1.633"
          transform="translate(12.889 40.188)"
        />
        <ellipse
          class="q"
          cx="1.179"
          cy="1.633"
          rx="1.179"
          ry="1.633"
          transform="translate(8.589 41.069)"
        />
        <ellipse
          class="r"
          cx="1.179"
          cy="1.633"
          rx="1.179"
          ry="1.633"
          transform="translate(9.502 46.658)"
        />
      </g>
    </g>
  </g>
</svg>
