<svg
  width="347"
  height="101"
  viewBox="0 0 347 101"
  fill="none"
  xmlns="http://www.w3.org/2000/svg"
  class="block sm:hidden"
>
  <g clip-path="url(#gr)">
    <path
      d="M330.609 97.285C330.609 97.285 337.709 84.716 319.68 81.985C308.964 80.3287 297.999 81.652 287.985 85.81C287.985 85.81 300.554 70.51 280.885 63.952C261.216 57.394 240.993 72.695 240.993 72.695C240.993 72.695 260.666 36.082 245.365 33.35C230.064 30.618 221.865 46.465 221.865 46.465C221.865 46.465 223.503 1.10697 191.808 0.0149693C160.113 -1.07703 163.392 57.94 163.392 57.94C163.392 57.94 149.73 31.71 126.779 30.617C103.828 29.524 115.303 74.555 115.303 74.555C115.303 74.555 110.931 63.955 95.63 62.855C80.329 61.755 81.419 74.59 81.419 74.59C81.419 74.59 61.75 47.01 39.892 48.65C18.034 50.29 27.319 77.612 27.319 77.612C4.91897 75.973 -0.00402832 100.529 -0.00402832 100.529H346.457L330.609 97.285Z"
      fill="#F4F4F4"
    />
  </g>
  <defs>
    <clipPath id="gr">
      <rect width="346.457" height="100.53" fill="white" />
    </clipPath>
  </defs>
</svg>
