<svg
  width="636"
  height="266"
  viewBox="0 0 636 266"
  fill="none"
  xmlns="http://www.w3.org/2000/svg"
>
  <g clip-path="url(#clip0)">
    <path
      d="M110.368 59.986C113.967 56.9139 117.817 54.1483 121.877 51.718"
      stroke="white"
      stroke-width="2"
      stroke-miterlimit="10"
      stroke-linecap="round"
    />
    <path
      d="M153.754 130.603C163.226 135.194 174.017 136.289 184.218 133.693C194.419 131.098 203.374 124.979 209.501 116.419C215.627 107.86 218.53 97.4094 217.696 86.9161C216.862 76.4229 212.345 66.5624 204.944 59.0775C197.542 51.5927 187.733 46.9654 177.25 46.0138C166.767 45.0621 156.285 47.8473 147.656 53.8771C139.028 59.9068 132.81 68.7928 130.1 78.9643C127.39 89.1358 128.363 99.9378 132.848 109.461L129.248 154.961L142.568 165.092C152.734 172.81 165.3 176.688 178.048 176.042C190.796 175.396 202.906 170.268 212.24 161.562L219.668 154.62L212.778 111.431"
      stroke="black"
      stroke-miterlimit="10"
      stroke-linecap="round"
    />
    <path
      d="M226.313 188.123C229.98 188.123 232.953 185.15 232.953 181.483C232.953 177.816 229.98 174.843 226.313 174.843C222.646 174.843 219.673 177.816 219.673 181.483C219.673 185.15 222.646 188.123 226.313 188.123Z"
      fill="#F1448D"
    />
    <path
      d="M160.262 193.057C162.574 193.057 164.448 191.183 164.448 188.871C164.448 186.559 162.574 184.685 160.262 184.685C157.95 184.685 156.076 186.559 156.076 188.871C156.076 191.183 157.95 193.057 160.262 193.057Z"
      fill="#F1448D"
    />
    <path
      d="M189.79 214.567C194.856 214.567 198.963 210.46 198.963 205.394C198.963 200.328 194.856 196.221 189.79 196.221C184.724 196.221 180.617 200.328 180.617 205.394C180.617 210.46 184.724 214.567 189.79 214.567Z"
      fill="#F1448D"
    />
    <path
      d="M205.762 239.331C207.523 239.331 208.951 237.903 208.951 236.142C208.951 234.381 207.523 232.953 205.762 232.953C204.001 232.953 202.573 234.381 202.573 236.142C202.573 237.903 204.001 239.331 205.762 239.331Z"
      fill="#F1448D"
    />
    <path
      d="M60.447 219.686C64.9409 219.686 68.584 216.043 68.584 211.549C68.584 207.055 64.9409 203.412 60.447 203.412C55.9531 203.412 52.31 207.055 52.31 211.549C52.31 216.043 55.9531 219.686 60.447 219.686Z"
      fill="#F1448D"
    />
    <path
      d="M86.85 232.887C88.2197 232.887 89.33 231.777 89.33 230.407C89.33 229.037 88.2197 227.927 86.85 227.927C85.4803 227.927 84.37 229.037 84.37 230.407C84.37 231.777 85.4803 232.887 86.85 232.887Z"
      fill="#F1448D"
    />
    <path
      d="M37.1 187.612C38.3829 187.612 39.423 186.572 39.423 185.289C39.423 184.006 38.3829 182.966 37.1 182.966C35.817 182.966 34.777 184.006 34.777 185.289C34.777 186.572 35.817 187.612 37.1 187.612Z"
      fill="#F1448D"
    />
    <path
      d="M142.021 233.662C145.188 233.662 147.756 231.094 147.756 227.927C147.756 224.76 145.188 222.192 142.021 222.192C138.854 222.192 136.286 224.76 136.286 227.927C136.286 231.094 138.854 233.662 142.021 233.662Z"
      fill="#F1448D"
    />
    <path
      d="M269.121 168.399C272.18 168.399 274.659 165.92 274.659 162.861C274.659 159.802 272.18 157.323 269.121 157.323C266.062 157.323 263.583 159.802 263.583 162.861C263.583 165.92 266.062 168.399 269.121 168.399Z"
      fill="#F1448D"
    />
    <path
      d="M241.444 155.54C242.647 155.54 243.622 154.565 243.622 153.362C243.622 152.159 242.647 151.184 241.444 151.184C240.241 151.184 239.266 152.159 239.266 153.362C239.266 154.565 240.241 155.54 241.444 155.54Z"
      fill="#F1448D"
    />
    <path
      d="M297.297 144.559C299.594 144.559 301.457 142.697 301.457 140.399C301.457 138.102 299.594 136.239 297.297 136.239C294.999 136.239 293.137 138.102 293.137 140.399C293.137 142.697 294.999 144.559 297.297 144.559Z"
      fill="#F1448D"
    />
    <path
      d="M21.47 224.266C24.0867 224.266 26.208 222.145 26.208 219.528C26.208 216.911 24.0867 214.79 21.47 214.79C18.8533 214.79 16.732 216.911 16.732 219.528C16.732 222.145 18.8533 224.266 21.47 224.266Z"
      fill="#F1448D"
    />
    <path
      d="M220.381 154.435C257.271 143.805 295.329 120.183 333.334 136.613"
      stroke="black"
      stroke-miterlimit="10"
      stroke-linecap="round"
    />
    <path
      d="M0.643005 226.85C3.8122 218.295 7.55641 209.964 11.85 201.915C16.0062 194.137 21.2272 186.977 27.362 180.642C28.517 179.474 29.685 178.319 30.892 177.204C48.806 160.5 72.166 150.5 96.706 150.38C99.974 150.38 103.268 150.498 106.562 150.761"
      stroke="black"
      stroke-miterlimit="10"
      stroke-linecap="round"
    />
    <path
      d="M225.171 53.031C225.171 53.031 207.336 82.758 135.827 64.173C130.882 70.5337 127.851 78.172 127.091 86.1931C126.331 94.2142 127.873 102.286 131.536 109.462C144.082 135.381 176.011 219.515 94.489 219.817C-32.822 220.276 100.525 -46.235 225.171 53.031Z"
      fill="#F1448D"
    />
    <path
      d="M81.523 89.123C88.0964 80.743 95.4529 73.0081 103.493 66.023"
      stroke="white"
      stroke-width="2"
      stroke-miterlimit="10"
      stroke-linecap="round"
    />
    <path
      d="M60.446 195.604C58.1196 191.664 56.3904 187.4 55.315 182.953"
      stroke="white"
      stroke-width="2"
      stroke-miterlimit="10"
      stroke-linecap="round"
    />
    <path
      d="M120.147 206.877C104.399 213.006 84.53 214.056 69.989 204.252"
      stroke="white"
      stroke-width="2"
      stroke-miterlimit="10"
      stroke-linecap="round"
    />
    <path
      d="M199.451 83.23C200.344 83.23 201.067 82.5065 201.067 81.614C201.067 80.7215 200.344 79.998 199.451 79.998C198.559 79.998 197.835 80.7215 197.835 81.614C197.835 82.5065 198.559 83.23 199.451 83.23Z"
      fill="black"
    />
    <path
      d="M152.207 83.23C153.099 83.23 153.823 82.5065 153.823 81.614C153.823 80.7215 153.099 79.998 152.207 79.998C151.315 79.998 150.591 80.7215 150.591 81.614C150.591 82.5065 151.315 83.23 152.207 83.23Z"
      fill="black"
    />
    <path
      d="M164.45 107.729L165.631 108.648C168.494 110.883 172.062 112.019 175.69 111.85C179.317 111.681 182.765 110.22 185.408 107.729V107.729"
      stroke="black"
      stroke-miterlimit="10"
      stroke-linecap="round"
    />
    <path
      d="M129.029 96.589C127.815 96.6294 126.606 96.4251 125.473 95.9885C124.339 95.5519 123.305 94.8917 122.433 94.0474C121.56 93.203 120.866 92.1917 120.392 91.0736C119.917 89.9555 119.673 88.7534 119.673 87.539C119.673 86.3246 119.917 85.1225 120.392 84.0044C120.866 82.8863 121.56 81.875 122.433 81.0307C123.305 80.1863 124.339 79.5262 125.473 79.0895C126.606 78.6529 127.815 78.4487 129.029 78.489"
      stroke="black"
      stroke-miterlimit="10"
      stroke-linecap="round"
    />
    <path
      d="M217.836 95.278C220.184 95.1999 222.41 94.2122 224.043 92.5236C225.677 90.8349 226.59 88.5774 226.59 86.228C226.59 83.8785 225.677 81.6211 224.043 79.9324C222.41 78.2437 220.184 77.256 217.836 77.178"
      stroke="black"
      stroke-miterlimit="10"
      stroke-linecap="round"
    />
    <path
      d="M123.032 108.412C125.547 108.412 127.586 106.373 127.586 103.858C127.586 101.343 125.547 99.304 123.032 99.304C120.517 99.304 118.478 101.343 118.478 103.858C118.478 106.373 120.517 108.412 123.032 108.412Z"
      fill="white"
    />
    <path
      d="M225.539 107.008C228.054 107.008 230.093 104.969 230.093 102.454C230.093 99.9389 228.054 97.9 225.539 97.9C223.024 97.9 220.985 99.9389 220.985 102.454C220.985 104.969 223.024 107.008 225.539 107.008Z"
      fill="#F1448D"
    />
    <path
      d="M150.972 95.669C158.822 95.669 165.185 89.3056 165.185 81.456C165.185 73.6064 158.822 67.243 150.972 67.243C143.122 67.243 136.759 73.6064 136.759 81.456C136.759 89.3056 143.122 95.669 150.972 95.669Z"
      stroke="black"
      stroke-miterlimit="10"
      stroke-linecap="round"
    />
    <path
      d="M198.216 95.669C206.066 95.669 212.429 89.3056 212.429 81.456C212.429 73.6064 206.066 67.243 198.216 67.243C190.366 67.243 184.003 73.6064 184.003 81.456C184.003 89.3056 190.366 95.669 198.216 95.669Z"
      stroke="black"
      stroke-miterlimit="10"
      stroke-linecap="round"
    />
    <path
      d="M179.568 76.955L185.29 88.307C185.685 89.0537 185.881 89.8899 185.857 90.7344C185.834 91.579 185.593 92.4031 185.157 93.1268C184.721 93.8506 184.105 94.4493 183.37 94.865C182.634 95.2806 181.804 95.499 180.959 95.499H170.46"
      stroke="black"
      stroke-miterlimit="10"
      stroke-linecap="round"
    />
    <path
      d="M164.449 76.955H184.751"
      stroke="black"
      stroke-miterlimit="10"
      stroke-linecap="round"
    />
    <path
      d="M395.557 78.916L386.966 124.507C417.402 148.991 454.74 148.907 483.376 124.72L479.046 78.916"
      stroke="black"
      stroke-miterlimit="10"
      stroke-linecap="round"
    />
    <path
      d="M391.217 63.048C388.986 62.9648 386.874 62.0199 385.325 60.4121C383.776 58.8043 382.911 56.6586 382.911 54.426C382.911 52.1934 383.776 50.0478 385.325 48.4399C386.874 46.8321 388.986 45.8873 391.217 45.804"
      stroke="black"
      stroke-miterlimit="10"
      stroke-linecap="round"
    />
    <path
      d="M483.475 59.234C483.473 68.3594 480.765 77.2791 475.693 84.8655C470.622 92.4518 463.415 98.3641 454.983 101.855C446.552 105.345 437.275 106.258 428.325 104.476C419.375 102.695 411.155 98.2997 404.703 91.8465C398.251 85.3934 393.857 77.172 392.077 68.2219C390.297 59.2718 391.211 49.995 394.703 41.5642C398.195 33.1335 404.109 25.9276 411.696 20.8575C419.283 15.7874 428.204 13.0808 437.329 13.08C443.39 13.0795 449.391 14.273 454.991 16.5924C460.59 18.9117 465.678 22.3115 469.963 26.5975C474.248 30.8835 477.647 35.9718 479.966 41.5716C482.284 47.1715 483.477 53.1732 483.475 59.234V59.234Z"
      stroke="black"
      stroke-miterlimit="10"
      stroke-linecap="round"
    />
    <path
      d="M426.312 44.341H402.842C401.561 44.341 400.522 45.3797 400.522 46.661V56.914C400.522 58.1953 401.561 59.234 402.842 59.234H426.312C427.593 59.234 428.632 58.1953 428.632 56.914V46.661C428.632 45.3797 427.593 44.341 426.312 44.341Z"
      stroke="black"
      stroke-miterlimit="10"
    />
    <path
      d="M472.228 44.341H448.758C447.477 44.341 446.438 45.3797 446.438 46.661V56.914C446.438 58.1953 447.477 59.234 448.758 59.234H472.228C473.509 59.234 474.548 58.1953 474.548 56.914V46.661C474.548 45.3797 473.509 44.341 472.228 44.341Z"
      stroke="black"
      stroke-miterlimit="10"
    />
    <path d="M428.632 49.768H446.776" stroke="black" stroke-miterlimit="10" />
    <path
      d="M438.148 40.227V46.779C438.145 49.7015 437.159 52.5381 435.348 54.832L429.733 61.932C429.266 62.4864 428.97 63.1641 428.88 63.8833C428.791 64.6024 428.911 65.3322 429.227 65.9843C429.543 66.6364 430.042 67.183 430.662 67.5579C431.282 67.9329 431.998 68.1201 432.722 68.097H447.202"
      stroke="black"
      stroke-miterlimit="10"
      stroke-linecap="round"
    />
    <path
      d="M487.227 40.23C487.227 34.944 486.186 29.7097 484.162 24.8263C482.138 19.943 479.172 15.5064 475.433 11.7702C471.693 8.03398 467.254 5.07138 462.369 3.05178C457.484 1.03217 452.249 -0.004845 446.963 1.70176e-05H376.325C376.325 5.28295 377.365 10.5142 379.386 15.3951C381.408 20.2761 384.371 24.711 388.106 28.4467C391.842 32.1825 396.276 35.1458 401.157 37.1676C406.038 39.1894 411.269 40.23 416.552 40.23H480.975C480.975 41.6296 481.531 42.9718 482.521 43.9614C483.51 44.951 484.852 45.507 486.252 45.507H487.227V40.23Z"
      fill="#FFBD3B"
    />
    <path
      d="M449.326 150.441L436.296 170.161L420.553 150.441L436.021 144.289L449.326 150.441Z"
      fill="#FFBD3B"
    />
    <path
      d="M239.038 225.956C239.038 225.956 278.838 128.256 386.966 125.708L375.366 168.486L436.025 144.286L493.825 171.033L483.384 125.917C483.384 125.917 593.418 125.708 634.93 234.897"
      stroke="black"
      stroke-miterlimit="10"
      stroke-linecap="round"
    />
    <path
      d="M461.012 53.583C461.893 53.583 462.607 52.8689 462.607 51.988C462.607 51.1071 461.893 50.393 461.012 50.393C460.131 50.393 459.417 51.1071 459.417 51.988C459.417 52.8689 460.131 53.583 461.012 53.583Z"
      fill="black"
    />
    <path
      d="M414.745 53.583C415.626 53.583 416.34 52.8689 416.34 51.988C416.34 51.1071 415.626 50.393 414.745 50.393C413.864 50.393 413.15 51.1071 413.15 51.988C413.15 52.8689 413.864 53.583 414.745 53.583Z"
      fill="black"
    />
    <path
      d="M425.105 79.541L426.23 80.416C428.957 82.5459 432.357 83.6287 435.814 83.4682C439.271 83.3077 442.556 81.9145 445.074 79.541V79.541"
      stroke="#131313"
      stroke-miterlimit="10"
      stroke-linecap="round"
    />
    <path
      d="M384.49 6.61499C385.39 11.6526 387.437 16.4156 390.473 20.5354C393.509 24.6553 397.451 28.0216 401.996 30.374"
      stroke="white"
      stroke-width="2"
      stroke-miterlimit="10"
      stroke-linecap="round"
    />
    <path
      d="M484.088 63.048C485.247 63.0912 486.403 62.9002 487.487 62.4864C488.571 62.0726 489.56 61.4445 490.396 60.6396C491.231 59.8347 491.896 58.8696 492.35 57.8019C492.804 56.7343 493.038 55.5861 493.038 54.426C493.038 53.2658 492.804 52.1176 492.35 51.05C491.896 49.9824 491.231 49.0172 490.396 48.2124C489.56 47.4075 488.571 46.7793 487.487 46.3655C486.403 45.9517 485.247 45.7607 484.088 45.804"
      stroke="black"
      stroke-miterlimit="10"
      stroke-linecap="round"
    />
    <path
      d="M436.021 156.544L413.163 239.074L436.021 265.709L459.429 239.074L436.021 156.544Z"
      fill="#FFBD3B"
    />
    <path
      d="M413.163 194.358L452.765 170.524"
      stroke="white"
      stroke-width="5"
      stroke-miterlimit="10"
      stroke-linecap="round"
    />
    <path
      d="M414.238 214.94L453.84 191.106"
      stroke="white"
      stroke-width="5"
      stroke-miterlimit="10"
      stroke-linecap="round"
    />
    <path
      d="M409.474 239.024L454.915 211.689"
      stroke="white"
      stroke-width="5"
      stroke-miterlimit="10"
      stroke-linecap="round"
    />
    <path
      d="M416.389 256.092L464.856 226.932"
      stroke="white"
      stroke-width="5"
      stroke-miterlimit="10"
      stroke-linecap="round"
    />
  </g>
  <defs>
    <clipPath id="clip0">
      <rect width="635.575" height="265.708" fill="white" />
    </clipPath>
  </defs>
</svg>
