<svg
  width="600"
  height="270"
  viewBox="0 0 600 270"
  fill="none"
  xmlns="http://www.w3.org/2000/svg"
>
  <g clip-path="url(#clip0)">
    <path
      d="M387.02 18.106C386.315 25.618 388.043 30.306 389.301 37.398"
      stroke="white"
      stroke-width="2"
      stroke-miterlimit="10"
      stroke-linecap="round"
    />
    <path
      d="M381.26 50.93C376.793 52.106 375.84 56.891 376.981 60.864"
      stroke="white"
      stroke-width="2"
      stroke-miterlimit="10"
      stroke-linecap="round"
    />
    <path
      d="M385.927 158.467C355.913 148.85 322.995 130.04 290.394 144.242"
      stroke="black"
      stroke-miterlimit="10"
      stroke-linecap="round"
    />
    <path
      d="M599.002 225.079C582.813 188.822 551.071 157.079 508.748 154.728C493.465 153.552 479.357 159.428 465.32 162.088"
      stroke="black"
      stroke-miterlimit="10"
      stroke-linecap="round"
    />
    <path
      d="M473.09 95.029C473.09 93.4802 472.784 91.9467 472.19 90.5165C471.595 89.0863 470.724 87.7877 469.626 86.6953C468.528 85.6029 467.225 84.7382 465.792 84.1509C464.359 83.5636 462.824 83.2652 461.275 83.273L460.275 82.273C455.032 65.061 439.536 58.125 420.303 59.348C412.145 59.9093 404.351 62.9412 397.959 68.0403C391.566 73.1394 386.877 80.064 384.516 87.893C381.64 88.2289 378.99 89.6141 377.072 91.7832C375.154 93.9524 374.105 96.7528 374.124 99.648C374.124 105.738 380.284 110.758 386.21 111.404C386.21 113.532 386.292 114.719 386.292 116.589L385.739 164.473C403.256 191.713 445.779 192.689 464.439 162.373L458.267 118.263C460.192 114.7 461.556 110.862 462.311 106.883C465.274 106.636 468.033 105.276 470.033 103.077C472.033 100.877 473.125 98.0016 473.09 95.029V95.029Z"
      stroke="black"
      stroke-miterlimit="10"
    />
    <path
      d="M387.597 84.648C349.577 45.569 382.897 44.676 382.897 44.676C382.897 44.676 370.083 -17.924 385.483 5.07601C400.883 28.076 431.333 18.49 466.532 30.494C501.731 42.498 460.487 85.001 460.487 85.001C401.705 65.579 391.817 75.114 390.207 79.711C389.646 81.4159 388.786 83.0073 387.668 84.411L387.597 84.648Z"
      fill="#005293"
    />
    <path
      d="M411.647 114.498L412.705 115.321C415.272 117.317 418.467 118.33 421.715 118.179C424.963 118.029 428.051 116.723 430.422 114.498V114.498"
      stroke="#131313"
      stroke-miterlimit="10"
      stroke-linecap="round"
    />
    <path
      d="M403.976 93.147C404.804 93.147 405.476 92.4755 405.476 91.647C405.476 90.8186 404.804 90.147 403.976 90.147C403.148 90.147 402.476 90.8186 402.476 91.647C402.476 92.4755 403.148 93.147 403.976 93.147Z"
      fill="black"
    />
    <path
      d="M440.421 93.147C441.249 93.147 441.921 92.4755 441.921 91.647C441.921 90.8186 441.249 90.147 440.421 90.147C439.593 90.147 438.921 90.8186 438.921 91.647C438.921 92.4755 439.593 93.147 440.421 93.147Z"
      fill="black"
    />
    <path
      d="M405.431 135.33C423.701 143.995 446.943 137.082 457.547 119.87"
      stroke="black"
      stroke-miterlimit="10"
      stroke-linecap="round"
    />
    <path
      d="M430.228 87.824L415.002 98.769C414.453 99.174 414.045 99.7413 413.835 100.391C413.626 101.04 413.626 101.739 413.835 102.389C414.044 103.038 414.452 103.606 415.001 104.011C415.55 104.416 416.213 104.639 416.895 104.647H429.075"
      stroke="black"
      stroke-miterlimit="10"
      stroke-linecap="round"
    />
    <path
      d="M378.897 168.002C378.897 168.002 413.673 226.079 467.858 171.893"
      stroke="black"
      stroke-miterlimit="10"
      stroke-linecap="round"
    />
    <path
      d="M465.16 92.252C464.621 92.9271 464.248 93.7189 464.071 94.5641C463.893 95.4093 463.916 96.2843 464.138 97.119L464.291 97.73"
      stroke="black"
      stroke-miterlimit="10"
      stroke-linecap="round"
    />
    <path
      d="M516.801 168.413L530.415 176.878"
      stroke="#005293"
      stroke-width="2"
      stroke-miterlimit="10"
      stroke-linecap="round"
    />
    <path
      d="M492.582 178.123L477.922 184.577"
      stroke="#005293"
      stroke-width="2"
      stroke-miterlimit="10"
      stroke-linecap="round"
    />
    <path
      d="M546.262 193.795L562.098 196.217"
      stroke="#005293"
      stroke-width="2"
      stroke-miterlimit="10"
      stroke-linecap="round"
    />
    <path
      d="M338.161 150.625L347.837 163.393"
      stroke="#005293"
      stroke-width="2"
      stroke-miterlimit="10"
      stroke-linecap="round"
    />
    <path
      d="M410.205 223.715L403.527 238.281"
      stroke="#005293"
      stroke-width="2"
      stroke-miterlimit="10"
      stroke-linecap="round"
    />
    <path
      d="M399.295 200.661L383.565 203.682"
      stroke="#005293"
      stroke-width="2"
      stroke-miterlimit="10"
      stroke-linecap="round"
    />
    <path
      d="M450.753 208.585L437.362 199.791"
      stroke="#005293"
      stroke-width="2"
      stroke-miterlimit="10"
      stroke-linecap="round"
    />
    <path
      d="M498.649 218.906L490.666 205.022"
      stroke="#005293"
      stroke-width="2"
      stroke-miterlimit="10"
      stroke-linecap="round"
    />
    <path
      d="M527.428 225.831L533.389 210.959"
      stroke="#005293"
      stroke-width="2"
      stroke-miterlimit="10"
      stroke-linecap="round"
    />
    <path
      d="M566.213 225.832L582.167 224.315"
      stroke="#005293"
      stroke-width="2"
      stroke-miterlimit="10"
      stroke-linecap="round"
    />
    <path
      d="M441.242 234.002L457.019 231.169"
      stroke="#005293"
      stroke-width="2"
      stroke-miterlimit="10"
      stroke-linecap="round"
    />
    <path
      d="M371.855 172.645L365.483 187.341"
      stroke="#005293"
      stroke-width="2"
      stroke-miterlimit="10"
      stroke-linecap="round"
    />
    <path
      d="M271.405 138.054L257.438 41.112C250.886 17.039 225.79 0 196.831 0C166.431 0 140.482 18.8 135.497 44.418L122.295 137.78L271.405 138.054Z"
      fill="#BDE321"
    />
    <path
      d="M156.969 90.885L148.493 135.871C178.525 160.03 215.367 159.943 243.622 136.081L239.353 90.881"
      fill="white"
    />
    <path
      d="M156.969 90.885L148.493 135.871C178.525 160.03 215.367 159.943 243.622 136.081L239.353 90.881"
      stroke="black"
      stroke-miterlimit="10"
      stroke-linecap="round"
    />
    <path
      d="M152.684 75.228C150.485 75.142 148.405 74.2081 146.88 72.622C145.355 71.036 144.503 68.921 144.503 66.7205C144.503 64.52 145.355 62.405 146.88 60.819C148.405 59.2329 150.485 58.299 152.684 58.213"
      fill="white"
    />
    <path
      d="M152.684 75.228C150.485 75.142 148.405 74.2081 146.88 72.622C145.355 71.036 144.503 68.921 144.503 66.7205C144.503 64.52 145.355 62.405 146.88 60.819C148.405 59.2329 150.485 58.299 152.684 58.213"
      stroke="black"
      stroke-miterlimit="10"
      stroke-linecap="round"
    />
    <path
      d="M244.322 75.227C245.467 75.2718 246.61 75.0849 247.681 74.6775C248.752 74.2701 249.73 73.6507 250.556 72.8563C251.382 72.0619 252.039 71.1089 252.488 70.0544C252.937 68.9999 253.169 67.8656 253.169 66.7195C253.169 65.5734 252.937 64.4392 252.488 63.3847C252.039 62.3302 251.382 61.3771 250.556 60.5827C249.73 59.7883 248.752 59.1689 247.681 58.7615C246.61 58.3541 245.467 58.1672 244.322 58.212"
      fill="white"
    />
    <path
      d="M244.322 75.227C245.467 75.2718 246.61 75.0849 247.681 74.6775C248.752 74.2701 249.73 73.6507 250.556 72.8563C251.382 72.0619 252.039 71.1089 252.488 70.0544C252.937 68.9999 253.169 67.8656 253.169 66.7195C253.169 65.5734 252.937 64.4392 252.488 63.3847C252.039 62.3302 251.382 61.3771 250.556 60.5827C249.73 59.7883 248.752 59.1689 247.681 58.7615C246.61 58.3541 245.467 58.1672 244.322 58.212"
      stroke="black"
      stroke-miterlimit="10"
      stroke-linecap="round"
    />
    <path
      d="M243.717 71.464C243.715 80.4682 241.042 89.2694 236.038 96.755C231.034 104.241 223.923 110.074 215.604 113.518C207.284 116.963 198.13 117.863 189.3 116.105C180.469 114.347 172.357 110.01 165.991 103.643C159.625 97.2752 155.289 89.1629 153.533 80.3317C151.777 71.5005 152.679 62.3468 156.125 54.0281C159.571 45.7094 165.406 38.5993 172.893 33.5967C180.379 28.594 189.181 25.9236 198.185 25.923C204.165 25.9225 210.087 27.1001 215.612 29.3887C221.137 31.6773 226.157 35.0319 230.386 39.261C234.614 43.49 237.968 48.5107 240.255 54.0362C242.543 59.5617 243.72 65.4837 243.718 71.464H243.717Z"
      fill="white"
      stroke="black"
      stroke-miterlimit="10"
      stroke-linecap="round"
    />
    <path
      d="M243.618 136.08C243.618 136.08 352.196 137.055 393.159 244.794Z"
      fill="white"
    />
    <path
      d="M243.618 136.08C243.618 136.08 352.196 137.055 393.159 244.794"
      stroke="black"
      stroke-miterlimit="10"
      stroke-linecap="round"
    />
    <path
      d="M0.650024 240.883C0.650024 240.883 41.86 138.383 148.55 135.871Z"
      fill="white"
    />
    <path
      d="M0.650024 240.883C0.650024 240.883 41.86 138.383 148.55 135.871"
      stroke="black"
      stroke-miterlimit="10"
      stroke-linecap="round"
    />
    <path
      d="M221.498 65.781C222.338 65.781 223.018 65.1005 223.018 64.261C223.018 63.4215 222.338 62.741 221.498 62.741C220.659 62.741 219.978 63.4215 219.978 64.261C219.978 65.1005 220.659 65.781 221.498 65.781Z"
      fill="black"
    />
    <path
      d="M175.846 65.781C176.686 65.781 177.366 65.1005 177.366 64.261C177.366 63.4215 176.686 62.741 175.846 62.741C175.007 62.741 174.326 63.4215 174.326 64.261C174.326 65.1005 175.007 65.781 175.846 65.781Z"
      fill="black"
    />
    <path
      d="M196.652 52.71V59.175C196.655 62.0588 197.629 64.8577 199.416 67.121L204.956 74.129C205.417 74.6758 205.71 75.3446 205.799 76.0544C205.887 76.7641 205.769 77.4844 205.457 78.128C205.145 78.7716 204.653 79.311 204.04 79.6809C203.428 80.0508 202.722 80.2352 202.007 80.212H187.72"
      stroke="black"
      stroke-miterlimit="10"
      stroke-linecap="round"
    />
    <path
      d="M186.121 91.502L187.231 92.366C189.922 94.4676 193.277 95.5358 196.688 95.3773C200.099 95.2189 203.34 93.8441 205.825 91.502V91.502"
      stroke="#131313"
      stroke-miterlimit="10"
      stroke-linecap="round"
    />
    <path
      d="M174.338 204.793L213.414 181.276"
      stroke="white"
      stroke-width="5"
      stroke-miterlimit="10"
      stroke-linecap="round"
    />
    <path
      d="M175.399 225.102L214.475 201.585"
      stroke="white"
      stroke-width="5"
      stroke-miterlimit="10"
      stroke-linecap="round"
    />
    <path
      d="M170.698 248.866L215.536 221.894"
      stroke="white"
      stroke-width="5"
      stroke-miterlimit="10"
      stroke-linecap="round"
    />
    <path
      d="M177.521 265.708L225.345 236.935"
      stroke="white"
      stroke-width="5"
      stroke-miterlimit="10"
      stroke-linecap="round"
    />
    <path
      d="M170.229 18.643C170.229 18.643 166.129 56.102 255.364 62.827C255.389 62.827 271.343 -0.891993 170.229 18.643Z"
      fill="#BDE321"
    />
    <path
      d="M181.63 29.032C181.63 29.032 176.584 49.07 153.252 56.473C153.264 56.473 128.846 14.757 181.63 29.032Z"
      fill="#BDE321"
    />
    <path
      d="M191.538 32.438C204.827 44.0656 221.631 50.9035 239.263 51.859"
      stroke="white"
      stroke-width="2"
      stroke-miterlimit="10"
      stroke-linecap="round"
    />
    <path
      d="M144.183 45.208C144.59 37.808 149.674 30.846 154.609 25.775"
      stroke="white"
      stroke-width="2"
      stroke-miterlimit="10"
      stroke-linecap="round"
    />
    <path
      d="M241.249 137.82C198.065 167.79 161.049 145.22 151.179 137.906C151.051 137.814 150.895 137.769 150.737 137.776C150.579 137.784 150.429 137.846 150.31 137.95C150.191 138.054 150.111 138.195 150.083 138.351C150.055 138.506 150.08 138.667 150.155 138.806L195.97 225.151L242.199 138.779C242.286 138.647 242.325 138.489 242.31 138.331C242.294 138.173 242.225 138.026 242.114 137.913C242.003 137.8 241.856 137.729 241.698 137.712C241.541 137.694 241.382 137.731 241.249 137.817V137.82Z"
      fill="white"
      stroke="black"
      stroke-miterlimit="10"
      stroke-linecap="round"
    />
    <path d="M170.192 176.661L196.892 155.39L221.892 176.661" fill="white" />
    <path
      d="M170.192 176.661L196.892 155.39L221.892 176.661"
      stroke="black"
      stroke-miterlimit="10"
      stroke-linecap="round"
    />
    <path
      d="M196.683 176.588C198.23 176.588 199.484 175.334 199.484 173.787C199.484 172.24 198.23 170.986 196.683 170.986C195.136 170.986 193.882 172.24 193.882 173.787C193.882 175.334 195.136 176.588 196.683 176.588Z"
      fill="#BDE321"
    />
    <path
      d="M196.683 190.431C198.23 190.431 199.484 189.177 199.484 187.63C199.484 186.083 198.23 184.829 196.683 184.829C195.136 184.829 193.882 186.083 193.882 187.63C193.882 189.177 195.136 190.431 196.683 190.431Z"
      fill="#BDE321"
    />
    <path
      d="M196.683 204.275C198.23 204.275 199.484 203.021 199.484 201.474C199.484 199.927 198.23 198.673 196.683 198.673C195.136 198.673 193.882 199.927 193.882 201.474C193.882 203.021 195.136 204.275 196.683 204.275Z"
      fill="#BDE321"
    />
    <path
      d="M390.47 18.059C390.47 18.059 395.054 26.133 416.658 29.407"
      stroke="white"
      stroke-linecap="round"
    />
    <path
      d="M383.764 52.326C383.764 52.326 366.977 53.669 383.764 70.792"
      stroke="white"
      stroke-linecap="round"
    />
  </g>
  <defs>
    <clipPath id="clip0">
      <rect width="599.661" height="269.139" fill="white" />
    </clipPath>
  </defs>
</svg>
