<svg xmlns="http://www.w3.org/2000/svg" width="481.515" height="573.659" viewBox="0 0 481.515 573.659"><defs><style>.a{fill:#edeeef;}.b{fill:#fff;stroke:#1a2e35;}.b,.d,.p{stroke-miterlimit:10;}.c,.d{fill:#aaa;}.d,.k,.p{stroke:#000;}.e,.p{fill:#e3d7ff;}.f,.o{fill:#ad7fe0;}.f,.h{opacity:0.8;}.g{fill:#f3ffab;}.h,.s{fill:#c6e547;}.i{fill:#ca256a;}.j{fill:#ff6498;}.k,.r{fill:none;stroke-linecap:round;stroke-linejoin:round;}.l{fill:#d5775e;}.m{fill:#fa7f58;}.n{fill:#f8d6cc;}.q{fill:#ffd5e8;}.r{stroke:#ff6498;}</style>
</defs><rect class="a" width="289.324" height="546.495" rx="19.43" transform="translate(102.446)"/><rect class="b" width="263.602" height="426.481" transform="translate(115.307 60.007)"/><path class="c" d="M343.812,37.24H286.5a3.91,3.91,0,0,1-3.91-3.91h0a3.91,3.91,0,0,1,3.91-3.91h57.312a3.91,3.91,0,0,1,3.91,3.91h0A3.91,3.91,0,0,1,343.812,37.24Z" transform="translate(-68.048 -7.084)"/><circle class="c" cx="15.632" cy="15.632" r="15.632" transform="translate(231.48 501.543)"/><rect class="d" width="15.845" height="15.845" transform="translate(239.186 509.249)"/><path class="e" d="M230.615,142.02v36.791L209.357,157.2H15.184A15.184,15.184,0,0,1,0,142.02V113.634A15.184,15.184,0,0,1,15.184,98.45H215.431a15.184,15.184,0,0,1,15.184,15.184Z" transform="translate(0 -23.707)"/><rect class="f" width="168.725" height="3.842" rx="1.921" transform="translate(10.28 83.998)"/><path class="f" d="M97.71,130.832H14.5c-.531,0-.972-.858-.972-1.921h0c0-1.063.433-1.921.972-1.921H97.71c.531,0,.972.858.972,1.921h0C98.674,129.974,98.242,130.832,97.71,130.832Z" transform="translate(-3.258 -30.579)"/><path class="f" d="M161.667,146.512H15.24a1.822,1.822,0,0,1-1.7-1.921h0a1.822,1.822,0,0,1,1.7-1.921H161.667a1.822,1.822,0,0,1,1.7,1.921h0a1.822,1.822,0,0,1-1.7,1.921Z" transform="translate(-3.259 -34.355)"/><path class="f" d="M252.388,130.832h-110.8c-.714,0-1.291-.858-1.291-1.921h0c0-1.063.577-1.921,1.291-1.921H252.358c.714,0,1.291.858,1.291,1.921h0C253.679,129.974,253.1,130.832,252.388,130.832Z" transform="translate(-33.784 -30.579)"/><rect class="f" width="31.051" height="3.842" rx="1.921" transform="translate(188.836 83.998)"/><path class="f" d="M135.574,162.192H14.945c-.759,0-1.4-.858-1.4-1.921h0c0-1.063.63-1.921,1.4-1.921H135.574c.759,0,1.4.858,1.4,1.921h0C136.978,161.334,136.348,162.192,135.574,162.192Z" transform="translate(-3.26 -38.131)"/><path class="g" d="M561.1,191.9V220.29a15.184,15.184,0,0,1-15.184,15.184H351.778L330.52,257.089V191.9A15.184,15.184,0,0,1,345.7,176.72H545.92A15.184,15.184,0,0,1,561.1,191.9Z" transform="translate(-79.589 -42.554)"/><rect class="h" width="168.725" height="3.842" rx="1.921" transform="translate(302.519 143.421)"/><path class="h" d="M509.532,209.112h83.2c.531,0,.972-.858.972-1.921h0c0-1.063-.433-1.921-.972-1.921h-83.2c-.531,0-.972.858-.972,1.921h0C508.56,208.246,508.993,209.112,509.532,209.112Z" transform="translate(-122.461 -49.429)"/><path class="h" d="M346.78,224.782H493.207a1.822,1.822,0,0,0,1.7-1.921h0a1.822,1.822,0,0,0-1.7-1.921H346.78a1.822,1.822,0,0,0-1.7,1.921h0A1.822,1.822,0,0,0,346.78,224.782Z" transform="translate(-83.094 -53.202)"/><path class="h" d="M345.9,209.112H456.668c.714,0,1.291-.858,1.291-1.921h0c0-1.063-.577-1.921-1.291-1.921H345.9c-.714,0-1.291.858-1.291,1.921h0C344.61,208.246,345.187,209.112,345.9,209.112Z" transform="translate(-82.982 -49.429)"/><rect class="h" width="31.051" height="3.842" rx="1.921" transform="translate(261.628 143.421)"/><path class="h" d="M346.454,240.472H467.091c.759,0,1.4-.858,1.4-1.921h0c0-1.063-.63-1.921-1.4-1.921H346.454c-.759,0-1.4.858-1.4,1.921h0C345.05,239.606,345.68,240.472,346.454,240.472Z" transform="translate(-83.088 -56.98)"/><path class="i" d="M76.057,699.072c12.906-83.558,88.69-119.8,88.69-119.8l31.552,16.3c1.108,0-5.914,29.935-5.914,29.935l-46.744,20.7-43.274,66.939L67.44,701.759Z" transform="translate(-16.24 -139.488)"/><path d="M155.137,597.6a51.626,51.626,0,0,1,54.776,6.074c-1.518,8.511-5.406,24.963-5.406,24.963l-46.744,20.7L139.08,678.266a51.626,51.626,0,0,1-4.6-62.452A188.908,188.908,0,0,1,155.137,597.6Z" transform="translate(-30.362 -142.65)"/><path class="j" d="M132.446,623.084c1.518-42.728,52.476-49.568,52.476-49.568L243.9,559s9.725,64.426-64.669,65.5l35.181,69.664-32.334,14.076,2.847-9.763S131.543,648.586,132.446,623.084Z" transform="translate(-31.89 -134.607)"/><path class="k" d="M258.739,559s9.725,64.426-64.669,65.5l35.181,69.664" transform="translate(-46.732 -134.607)"/><path class="l" d="M384.992,405.12l1.48,65.58-61.419,5.314L321.5,516.13l8.518-8.518s91.954,19.17,113.258,0S413.629,417.1,413.629,417.1" transform="translate(-77.417 -97.553)"/><path d="M393.421,444.09l.812,35.994L355.946,483.4a109.979,109.979,0,0,0-2.187,22.062,113.118,113.118,0,0,0,.941,14.607c16.885,2.748,43.366,6.233,64.934,5.314a110.99,110.99,0,0,0,1.761-19.906C421.4,474.731,409.318,449.192,393.421,444.09Z" transform="translate(-85.185 -106.937)"/><path class="m" d="M414.9,404.371s7.167,116.978-13.073,172.338l4.229,6.21H370.043s-3.933-148.8-3.933-180.91Z" transform="translate(-88.159 -96.804)"/><path class="k" d="M426.223,405.12S433.39,522.1,413.15,577.458l4.229,6.21" transform="translate(-99.486 -97.553)"/><path class="n" d="M408.648,283.464v15.2l-18.828,4.631V277.641l18.828-4.631Z" transform="translate(-93.869 -65.741)"/><circle cx="0.501" cy="0.501" r="0.501" transform="translate(303.642 221.975)"/><circle cx="0.501" cy="0.501" r="0.501" transform="translate(311.378 221.975)"/><path class="k" d="M407.81,294.539V286.78H411.7" transform="translate(-98.201 -69.057)"/><line class="k" x2="3.887" transform="translate(303.194 217.723)"/><path class="n" d="M390.619,291.584v2.7A2.634,2.634,0,0,1,388,291.66v-.243A1.315,1.315,0,0,1,390.619,291.584Z" transform="translate(-93.43 -69.898)"/><path class="k" d="M390.619,294.727A2.634,2.634,0,0,1,388,292.1" transform="translate(-93.43 -70.338)"/><path class="k" d="M404.725,301.285a2.665,2.665,0,0,1-2.665-2.665" transform="translate(-96.816 -71.908)"/><line class="k" x1="18.828" y2="4.631" transform="translate(295.951 232.923)"/><line class="k" x1="1.701" y2="0.418" transform="translate(307.909 225.49)"/><path class="k" d="M391.45,283.013s3.545-2.111,3.462-5.861l6.43,1.936V276.56l6.415,2.528V276.56l2.657,1.063" transform="translate(-94.261 -66.596)"/><path class="k" d="M407.36,282.686s4.327-2.376,3.265-9.11a22.389,22.389,0,0,0-19.883,0l.949-3.8s-4.882,2.012-4.024,4.851l-3.2.235,2.68,1.913s-3.933,4.388,1.313,8.587" transform="translate(-92.58 -64.963)"/><path class="o" d="M260.794,494.365v42.72l-60.554,14.88v-47.6a36.669,36.669,0,0,1,27.907-35.606h0a26.344,26.344,0,0,1,32.646,25.585Z" transform="translate(-48.218 -112.692)"/><path class="p" d="M211.513,530.184l-4.4-16-16.49,2.035,7.326,24.72,15.366-2.065" transform="translate(-45.901 -123.814)"/><path class="k" d="M258.22,483s30.489,34.164,24.089,62.361S211.028,547.9,209.517,536s10.059-4.274,10.059-4.274-.759-6.362,1.518-3.9,3.887,4.434,3.887,4.434l26.116-2.991-6.537-14.516" transform="translate(-50.419 -116.306)"/><path class="k" d="M187.422,509.777c6.074,3.037,7.326-1.906,7.326-1.906,1.055.372,4.4,4.092,4.024,0a5.611,5.611,0,0,0-4.024-4.98s-16-4.024-17.287,15.427S185.4,550.2,194.749,546.8" transform="translate(-42.704 -121.013)"/><path class="k" d="M213.741,477.68a58.716,58.716,0,0,0-16.8,18.9" transform="translate(-47.423 -115.025)"/><path class="q" d="M225.83,429.438v7.03a11.805,11.805,0,0,0,8.988,11.464l11.191,2.748V423.2l-9.3-2.278a8.776,8.776,0,0,0-10.872,8.526Z" transform="translate(-54.38 -101.296)"/><path class="k" d="M225.83,441.48a11.805,11.805,0,0,0,8.988,11.464l11.191,2.748" transform="translate(-54.38 -106.308)"/><circle cx="0.539" cy="0.539" r="0.539" transform="translate(182.307 332.697)"/><circle cx="0.539" cy="0.539" r="0.539" transform="translate(174.024 332.697)"/><path class="k" d="M231.81,440.533V432.22h-4.16" transform="translate(-54.818 -104.078)"/><line class="k" x1="4.16" transform="translate(179.703 328.142)"/><path class="q" d="M250.66,437.381v2.885a2.817,2.817,0,0,0,2.817-2.817q0-.129,0-.258A1.415,1.415,0,0,0,250.66,437.381Z" transform="translate(-60.359 -104.98)"/><path class="k" d="M250.66,440.737a2.817,2.817,0,0,0,2.817-2.817" transform="translate(-60.359 -105.451)"/><path class="k" d="M236.13,447.93a1.868,1.868,0,0,0,2.642,0" transform="translate(-56.86 -107.861)"/><line class="k" x2="1.822" y2="0.448" transform="translate(176.992 336.462)"/><path class="k" d="M224.583,432.989s-5.755-4.912-3.34-11.251c2.278-5.945,14.2-9.938,20.916-5.747a17.873,17.873,0,0,0,2.984,1.518c4.3,1.678,15.184,8.245,14.577,31.666-.759,29.146-18.578,14.569-16.923,7.972s2.794-12.109,1.966-17.811" transform="translate(-53.133 -99.753)"/><path class="r" d="M251.15,480.66a9.217,9.217,0,0,0,7.167,3.933" transform="translate(-60.477 -115.743)"/><path class="k" d="M245.049,482.31s-11.639,2.665-12.345,15.283a21.3,21.3,0,0,1-2.354,8.564c-1.928,3.735-3.925,9.452-1.883,14.675,3.409,8.708,24.089-16.475,21.766-34.506" transform="translate(-54.808 -116.14)"/><path class="s" d="M366.52,340.774v41.308l58.519,14.379V350.454a35.432,35.432,0,0,0-26.974-34.407h0a25.464,25.464,0,0,0-31.537,24.727Z" transform="translate(-88.258 -75.927)"/><path class="p" d="M425.779,375.383l4.252-15.473,15.936,1.966-7.076,23.892-14.85-2" transform="translate(-102.109 -86.666)"/><path class="k" d="M364.982,329.76s-29.465,33.018-23.254,60.265,68.882,2.46,70.34-9.042-9.718-4.13-9.718-4.13.706-6.15-1.435-3.8-3.8,4.289-3.8,4.289l-25.236-2.893,6.317-14.022" transform="translate(-82.081 -79.406)"/><path class="k" d="M449.434,355.655c-5.884,2.908-7.076-1.837-7.076-1.837-1.017.357-4.252,3.955-3.887,0A5.421,5.421,0,0,1,442.358,349s15.457-3.887,16.7,14.9-7.675,30.793-16.7,27.529" transform="translate(-105.577 -83.96)"/><path class="k" d="M425.42,324.64a56.742,56.742,0,0,1,16.232,18.266" transform="translate(-102.441 -78.173)"/><path class="k" d="M228.47,421.91s12.033,4.5,19.663,3.523l-1.518,4.069" transform="translate(-55.016 -101.596)"/><path d="M405.712,321.887l8.017,41.748-2.953,7.721L403.351,365l.5-42.811-2.612-3.75h6.241Z" transform="translate(-96.618 -76.68)"/></svg>