<svg
  width="492"
  height="431"
  viewBox="0 0 492 431"
  fill="none"
  xmlns="http://www.w3.org/2000/svg"
  class="hidden md:block absolute top-0 right-0 mt-35 mr-4"
>
  <g clip-path="url(#am)">
    <path
      d="M19.5475 402.37H58.6432V385.819H98.5923V366.263L128.333 339.942H173.382V263.972H232.026V169.954L305.963 235.393V360.249H345.059V415.556H361.207V400.112H390.109V430.998H0V419.667L19.5475 402.37Z"
      fill="#EDEEEF"
    />
    <path d="M227.505 283.007H222.166V287.733H227.505V283.007Z" fill="white" />
    <path d="M214.505 283.007H209.165V287.733H214.505V283.007Z" fill="white" />
    <path d="M201.511 283.007H196.172V287.733H201.511V283.007Z" fill="white" />
    <path d="M227.505 295.752H222.166V300.477H227.505V295.752Z" fill="white" />
    <path d="M214.505 295.752H209.165V300.477H214.505V295.752Z" fill="white" />
    <path d="M201.511 295.752H196.172V300.477H201.511V295.752Z" fill="white" />
    <path d="M227.505 308.496H222.166V313.222H227.505V308.496Z" fill="white" />
    <path d="M214.505 308.496H209.165V313.222H214.505V308.496Z" fill="white" />
    <path d="M201.511 308.496H196.172V313.222H201.511V308.496Z" fill="white" />
    <path d="M227.505 321.241H222.166V325.967H227.505V321.241Z" fill="white" />
    <path d="M214.505 321.241H209.165V325.967H214.505V321.241Z" fill="white" />
    <path d="M201.511 321.241H196.172V325.967H201.511V321.241Z" fill="white" />
    <path d="M227.505 333.986H222.166V338.712H227.505V333.986Z" fill="white" />
    <path d="M214.505 333.986H209.165V338.712H214.505V333.986Z" fill="white" />
    <path d="M201.511 333.986H196.172V338.712H201.511V333.986Z" fill="white" />
    <path d="M227.505 346.731H222.166V351.456H227.505V346.731Z" fill="white" />
    <path d="M214.505 346.731H209.165V351.456H214.505V346.731Z" fill="white" />
    <path d="M201.511 346.731H196.172V351.456H201.511V346.731Z" fill="white" />
    <path d="M227.505 359.475H222.166V364.201H227.505V359.475Z" fill="white" />
    <path d="M214.505 359.475H209.165V364.201H214.505V359.475Z" fill="white" />
    <path d="M201.511 359.475H196.172V364.201H201.511V359.475Z" fill="white" />
    <path d="M227.505 372.22H222.166V376.946H227.505V372.22Z" fill="white" />
    <path d="M214.505 372.22H209.165V376.946H214.505V372.22Z" fill="white" />
    <path d="M201.511 372.22H196.172V376.946H201.511V372.22Z" fill="white" />
    <path d="M227.505 384.965H222.166V389.691H227.505V384.965Z" fill="white" />
    <path d="M214.505 384.965H209.165V389.691H214.505V384.965Z" fill="white" />
    <path d="M201.511 384.965H196.172V389.691H201.511V384.965Z" fill="white" />
    <path
      d="M318.371 75.0007C317.576 71.4437 317.93 67.7259 319.384 64.3836C323.565 54.6176 334.922 30.4624 345.863 29.7031C359.572 28.755 355.268 40.8338 350.384 43.7139C349.056 44.5496 347.513 44.9778 345.944 44.9457C344.376 44.9136 342.851 44.4226 341.558 43.5333C341.558 43.5333 328.428 59.4916 329.843 64.4413C329.843 64.4413 337.409 64.4413 334.908 71.6787C332.674 77.9623 321.222 87.1683 318.371 75.0007Z"
      fill="#FA7F58"
    />
    <path
      d="M371.501 21.5477V44.6995L400.171 51.7489V12.6754L371.501 5.62598V21.5477Z"
      fill="#F9D6CB"
    />
    <path
      d="M387.7 29.5598C388.124 29.5598 388.467 29.2162 388.467 28.7924C388.467 28.3686 388.124 28.025 387.7 28.025C387.276 28.025 386.933 28.3686 386.933 28.7924C386.933 29.2162 387.276 29.5598 387.7 29.5598Z"
      fill="black"
    />
    <path
      d="M375.922 29.5598C376.345 29.5598 376.689 29.2162 376.689 28.7924C376.689 28.3686 376.345 28.025 375.922 28.025C375.498 28.025 375.155 28.3686 375.155 28.7924C375.155 29.2162 375.498 29.5598 375.922 29.5598Z"
      fill="black"
    />
    <path
      d="M379.372 33.3645V21.5477H373.454"
      stroke="black"
      stroke-width="1.5"
      stroke-linecap="round"
      stroke-linejoin="round"
    />
    <path
      d="M389.139 21.5477H383.221"
      stroke="black"
      stroke-width="1.5"
      stroke-linecap="round"
      stroke-linejoin="round"
    />
    <path
      d="M398.284 27.5717V31.675C399.341 31.675 400.355 31.2576 401.105 30.5136C401.856 29.7695 402.283 28.759 402.292 27.7019V27.3406C402.053 24.8405 398.284 25.1009 398.284 27.5717Z"
      fill="#FFD5E8"
    />
    <path
      d="M398.284 31.7092C398.81 31.7092 399.332 31.6054 399.818 31.4039C400.304 31.2024 400.746 30.9071 401.118 30.5347C401.49 30.1624 401.786 29.7204 401.987 29.2339C402.189 28.7474 402.292 28.226 402.292 27.6994"
      stroke="black"
      stroke-width="1.5"
      stroke-linecap="round"
      stroke-linejoin="round"
    />
    <path
      d="M381.962 39.1492C383.039 39.1492 384.071 38.7214 384.832 37.96C385.593 37.1985 386.021 36.1658 386.021 35.089"
      stroke="black"
      stroke-width="1.5"
      stroke-linecap="round"
      stroke-linejoin="round"
    />
    <path
      d="M371.501 44.6995L400.171 51.7489"
      stroke="black"
      stroke-width="1.5"
      stroke-linecap="round"
      stroke-linejoin="round"
    />
    <path
      d="M379.38 33.3734L381.963 34.0107"
      stroke="black"
      stroke-width="1.5"
      stroke-linecap="round"
      stroke-linejoin="round"
    />
    <path
      d="M358.761 159.396C358.761 159.396 347.852 337.569 378.671 421.925"
      stroke="black"
      stroke-width="1.5"
      stroke-linecap="round"
      stroke-linejoin="round"
    />
    <path
      d="M396.606 24.4718C396.606 24.4718 391.744 24.204 379.38 15.1429V18.6602C379.38 18.6602 372.283 16.6338 370.257 13.1165"
      stroke="black"
      stroke-width="1.5"
      stroke-linecap="round"
      stroke-linejoin="round"
    />
    <path
      d="M369.605 11.7419C369.605 11.7419 354.305 -8.52241 396.605 5.6268L392.011 0.611177C392.011 0.611177 414.589 7.92098 401.336 25.5957"
      stroke="black"
      stroke-width="1.5"
      stroke-linecap="round"
      stroke-linejoin="round"
    />
    <path
      d="M371.907 26.8457C371.907 26.8457 366.307 19.326 368.558 10.1208"
      stroke="black"
      stroke-width="1.5"
      stroke-linecap="round"
      stroke-linejoin="round"
    />
    <path
      d="M308.655 419.877C306.232 334.955 344.336 177.664 344.336 177.664L395.057 139.799V306.376L346.733 431.001H301.507L308.655 419.877Z"
      fill="#D4775E"
    />
    <path
      d="M343.793 306.746C343.793 243.384 362.429 192.015 385.42 192.015C388.879 192.075 392.242 193.158 395.086 195.127V306.377L359.839 397.26C350.073 376.265 343.793 343.524 343.793 306.746Z"
      fill="black"
    />
    <path
      d="M359.029 157.173C359.029 157.173 348.176 336.547 378.854 421.468L372.445 430.99H427.048C427.048 430.99 433.009 202.837 433.009 153.595L359.029 157.173Z"
      fill="#FA7F58"
    />
    <path
      d="M424.719 69.2632C424.719 69.2632 479.926 113.837 471.28 170.585C462.635 227.332 405.497 231.146 405.497 231.146L396.598 215.463L433.039 155.846L398.312 120.315"
      stroke="black"
      stroke-width="1.5"
      stroke-linecap="round"
      stroke-linejoin="round"
    />
    <path
      d="M405.504 231.174L387.251 198.997"
      stroke="black"
      stroke-width="1.5"
      stroke-linecap="round"
      stroke-linejoin="round"
    />
    <path
      d="M360.729 69.2632C360.729 69.2632 342.273 88.6014 333.237 110.226"
      stroke="black"
      stroke-width="1.5"
      stroke-linecap="round"
      stroke-linejoin="round"
    />
    <path
      d="M345.863 154.568C345.863 154.568 339.033 168.984 320.289 173.674C301.682 178.328 282.003 95.1796 323.725 41.7689C324.618 40.6043 325.868 39.7652 327.284 39.3803C329.86 38.7146 333.173 39.6627 331.806 50.026C331.806 50.026 337.593 47.9776 334.699 54.5924C331.806 61.2072 326.459 86.8485 336.522 103.227"
      stroke="black"
      stroke-width="1.5"
      stroke-linecap="round"
      stroke-linejoin="round"
    />
    <path
      d="M433.039 93.2109V155.849L344.336 177.655V107.902C344.335 95.8819 348.364 84.2087 355.777 74.749C363.19 65.2893 373.561 58.5896 385.229 55.7211H385.225C390.908 54.323 396.835 54.236 402.557 55.4669C408.278 56.6977 413.645 59.2141 418.252 62.8258C422.858 66.4374 426.583 71.0496 429.145 76.3136C431.706 81.5776 433.038 87.3555 433.039 93.2101V93.2109Z"
      fill="#C6E547"
    />
    <path
      d="M472.213 360.828C483.141 360.828 492 351.966 492 341.035C492 330.103 483.141 321.241 472.213 321.241C461.286 321.241 452.427 330.103 452.427 341.035C452.427 351.966 461.286 360.828 472.213 360.828Z"
      fill="#C6E547"
    />
    <path
      d="M452.434 341.035C452.434 346.284 454.519 351.319 458.229 355.031C461.94 358.743 466.973 360.828 472.221 360.828"
      stroke="black"
      stroke-linecap="round"
      stroke-linejoin="round"
    />
    <path
      d="M487.305 341.026C487.305 339.045 486.915 337.083 486.157 335.252C485.399 333.421 484.288 331.758 482.887 330.356C481.486 328.955 479.823 327.844 477.993 327.086C476.163 326.327 474.202 325.937 472.221 325.937"
      stroke="white"
      stroke-width="1.84"
      stroke-linecap="round"
      stroke-linejoin="round"
    />
    <path
      d="M472.213 360.821V430.226"
      stroke="black"
      stroke-linecap="round"
      stroke-linejoin="round"
    />
    <path
      d="M249.78 117.311C253.326 117.304 256.838 117.996 260.116 119.347C263.394 120.698 266.374 122.682 268.885 125.186C271.397 127.689 273.391 130.663 274.753 133.938C276.115 137.212 276.819 140.723 276.825 144.27L222.834 144.364C222.827 140.818 223.518 137.305 224.869 134.026C226.22 130.747 228.203 127.766 230.705 125.254C233.207 122.742 236.18 120.747 239.453 119.384C242.726 118.021 246.235 117.317 249.78 117.311Z"
      fill="#EDEEEF"
    />
    <path
      d="M193.546 129.02C195.567 129.016 197.569 129.411 199.438 130.181C201.307 130.952 203.006 132.083 204.438 133.511C205.869 134.938 207.006 136.634 207.782 138.501C208.559 140.368 208.96 142.37 208.963 144.392L178.18 144.45C178.175 142.427 178.569 140.423 179.338 138.553C180.108 136.682 181.239 134.982 182.666 133.549C184.093 132.116 185.789 130.978 187.655 130.201C189.522 129.424 191.524 129.022 193.546 129.019V129.02Z"
      fill="#EDEEEF"
    />
    <path
      d="M222.781 116.124C226.491 116.116 230.167 116.84 233.597 118.255C237.027 119.67 240.145 121.748 242.772 124.369C245.398 126.991 247.482 130.105 248.904 133.534C250.325 136.962 251.057 140.638 251.057 144.349L194.628 144.45C194.614 140.741 195.332 137.065 196.74 133.633C198.148 130.202 200.218 127.081 202.832 124.45C205.447 121.82 208.554 119.73 211.976 118.302C215.398 116.873 219.068 116.133 222.776 116.124H222.781Z"
      fill="#EDEEEF"
    />
    <path
      d="M152.367 178.986C149.085 178.98 145.935 180.279 143.61 182.595C141.285 184.912 139.974 188.057 139.967 191.34L164.716 191.383C164.72 188.101 163.421 184.952 161.106 182.628C158.79 180.303 155.647 178.994 152.367 178.986V178.986Z"
      fill="#EDEEEF"
    />
    <path
      d="M178.151 184.356C176.28 184.353 174.484 185.093 173.159 186.413C171.833 187.734 171.086 189.527 171.083 191.398H185.19C185.186 189.532 184.443 187.743 183.124 186.423C181.805 185.103 180.016 184.36 178.151 184.356V184.356Z"
      fill="#EDEEEF"
    />
    <path
      d="M164.745 178.444C163.046 178.441 161.362 178.773 159.791 179.421C158.219 180.069 156.791 181.021 155.587 182.221C154.383 183.421 153.427 184.847 152.774 186.417C152.121 187.987 151.784 189.67 151.781 191.37L177.659 191.413C177.665 187.98 176.308 184.686 173.886 182.254C171.465 179.822 168.177 178.452 164.745 178.444V178.444Z"
      fill="#EDEEEF"
    />
  </g>
  <defs>
    <clipPath id="am">
      <rect width="492" height="431" fill="white" />
    </clipPath>
  </defs>
</svg>
