<svg
  viewBox="0 0 349 385"
  fill="none"
  xmlns="http://www.w3.org/2000/svg"
  class="mt-16 mb-32" 
>
  <g clip-path="url(#sp)">
    <path
      d="M331.069 358.89H296.14V344.154H260.451V326.739L233.875 303.295H193.63V235.643H141.236V151.915L75.174 210.189V321.38H40.245V370.634H25.817V356.881H0V384.387H348.534V374.296L331.069 358.89Z"
      fill="#EDEEEF"
    />
    <path d="M150.07 252.592H145.312V256.801H150.07V252.592Z" fill="white" />
    <path d="M161.649 252.592H156.891V256.801H161.649V252.592Z" fill="white" />
    <path d="M173.227 252.592H168.469V256.801H173.227V252.592Z" fill="white" />
    <path d="M150.07 263.941H145.312V268.15H150.07V263.941Z" fill="white" />
    <path d="M161.649 263.941H156.891V268.15H161.649V263.941Z" fill="white" />
    <path d="M173.227 263.941H168.469V268.15H173.227V263.941Z" fill="white" />
    <path d="M150.07 275.291H145.312V279.5H150.07V275.291Z" fill="white" />
    <path d="M161.649 275.291H156.891V279.5H161.649V275.291Z" fill="white" />
    <path d="M173.227 275.291H168.469V279.5H173.227V275.291Z" fill="white" />
    <path d="M150.07 286.641H145.312V290.85H150.07V286.641Z" fill="white" />
    <path d="M161.649 286.641H156.891V290.85H161.649V286.641Z" fill="white" />
    <path d="M173.227 286.641H168.469V290.85H173.227V286.641Z" fill="white" />
    <path d="M150.07 297.991H145.312V302.2H150.07V297.991Z" fill="white" />
    <path d="M161.649 297.991H156.891V302.2H161.649V297.991Z" fill="white" />
    <path d="M173.227 297.991H168.469V302.2H173.227V297.991Z" fill="white" />
    <path d="M150.07 309.34H145.312V313.549H150.07V309.34Z" fill="white" />
    <path d="M161.649 309.34H156.891V313.549H161.649V309.34Z" fill="white" />
    <path d="M173.227 309.34H168.469V313.549H173.227V309.34Z" fill="white" />
    <path d="M150.07 320.69H145.312V324.899H150.07V320.69Z" fill="white" />
    <path d="M161.649 320.69H156.891V324.899H161.649V320.69Z" fill="white" />
    <path d="M173.227 320.69H168.469V324.899H173.227V320.69Z" fill="white" />
    <path d="M150.07 332.04H145.312V336.249H150.07V332.04Z" fill="white" />
    <path d="M161.649 332.04H156.891V336.249H161.649V332.04Z" fill="white" />
    <path d="M173.227 332.04H168.469V336.249H173.227V332.04Z" fill="white" />
    <path d="M150.07 343.39H145.312V347.599H150.07V343.39Z" fill="white" />
    <path d="M161.649 343.39H156.891V347.599H161.649V343.39Z" fill="white" />
    <path d="M173.227 343.39H168.469V347.599H173.227V343.39Z" fill="white" />
    <path
      d="M170.352 100.358L193.452 78.358L172.852 26.386L135.088 60.88L168.199 83.663L166.727 95.211L170.352 100.358Z"
      fill="#AC7FE0"
    />
    <path
      d="M210.373 76.219C210.373 76.219 192.638 97.204 189.829 135.16L184.68 98.212C184.68 98.212 191.08 87.912 182.963 87.601C174.846 87.29 181.714 92.282 181.714 92.282C181.714 92.282 174.536 96.027 174.224 101.021"
      stroke="#131313"
      stroke-width="1.5"
      stroke-linecap="round"
      stroke-linejoin="round"
    />
    <path
      d="M202.139 179.521C202.139 179.521 151.439 192.44 167.358 105.689"
      stroke="#131313"
      stroke-width="1.5"
      stroke-linecap="round"
      stroke-linejoin="round"
    />
    <path
      d="M169.699 108.263C169.699 108.263 157.193 102.246 164.266 80.957"
      stroke="#131313"
      stroke-width="1.5"
      stroke-linecap="round"
      stroke-linejoin="round"
    />
    <path
      d="M207.063 144.997L249.863 149.054L241.406 215.033L348.575 247.539L341.401 293.704L333.083 287.35C133.658 302.097 207.063 144.997 207.063 144.997Z"
      fill="#9068DC"
    />
    <path
      d="M225.703 149.545L283.883 140.093V383.54H238.267L242.949 373.893L225.703 149.545Z"
      fill="#AC7FE0"
    />
    <path
      d="M283.883 210.324V383.54H238.267"
      stroke="#131313"
      stroke-width="1.5"
      stroke-linecap="round"
      stroke-linejoin="round"
    />
    <path
      d="M242.948 373.893L225.703 149.545"
      stroke="#131313"
      stroke-width="1.5"
      stroke-linecap="round"
      stroke-linejoin="round"
    />
    <path
      d="M227.245 29.191V37.844C227.245 41.0949 228.335 44.252 230.341 46.8105C232.346 49.3689 235.152 51.181 238.309 51.957L252.078 55.341V21.516L240.63 18.702C239.039 18.311 237.38 18.2869 235.778 18.6315C234.176 18.9762 232.674 19.6806 231.384 20.6914C230.095 21.7023 229.052 22.9931 228.335 24.4664C227.618 25.9396 227.245 27.5565 227.245 29.195V29.191Z"
      fill="#E3D7FF"
    />
    <path
      d="M227.245 37.84C227.245 41.0909 228.335 44.248 230.341 46.8065C232.346 49.3649 235.152 51.177 238.309 51.953L252.078 55.34"
      stroke="#131313"
      stroke-width="1.5"
      stroke-linecap="round"
      stroke-linejoin="round"
    />
    <path
      d="M241.273 36.127C241.64 36.127 241.937 35.8297 241.937 35.463C241.937 35.0963 241.64 34.799 241.273 34.799C240.906 34.799 240.609 35.0963 240.609 35.463C240.609 35.8297 240.906 36.127 241.273 36.127Z"
      fill="#131313"
    />
    <path
      d="M231.075 36.127C231.442 36.127 231.739 35.8297 231.739 35.463C231.739 35.0963 231.442 34.799 231.075 34.799C230.708 34.799 230.411 35.0963 230.411 35.463C230.411 35.8297 230.708 36.127 231.075 36.127Z"
      fill="#131313"
    />
    <path
      d="M234.067 39.424V29.191H228.941"
      stroke="#131313"
      stroke-width="1.5"
      stroke-linecap="round"
      stroke-linejoin="round"
    />
    <path
      d="M242.524 29.192H237.398"
      stroke="#131313"
      stroke-width="1.5"
      stroke-linecap="round"
      stroke-linejoin="round"
    />
    <path
      d="M250.443 34.435V37.988C251.364 37.988 252.246 37.6223 252.897 36.9714C253.548 36.3204 253.914 35.4376 253.914 34.517C253.914 34.411 253.914 34.305 253.9 34.201C253.705 32.047 250.443 32.271 250.443 34.435Z"
      fill="#E3D7FF"
    />
    <path
      d="M250.443 37.988C251.364 37.988 252.246 37.6223 252.897 36.9714C253.548 36.3205 253.914 35.4376 253.914 34.517"
      stroke="#131313"
      stroke-width="1.5"
      stroke-linecap="round"
      stroke-linejoin="round"
    />
    <path
      d="M235.933 43.426C236.364 43.8565 236.949 44.0983 237.558 44.0983C238.167 44.0983 238.752 43.8565 239.183 43.426"
      stroke="#131313"
      stroke-width="1.5"
      stroke-linecap="round"
      stroke-linejoin="round"
    />
    <path
      d="M234.067 39.432L236.309 39.983"
      stroke="#131313"
      stroke-width="1.5"
      stroke-linecap="round"
      stroke-linejoin="round"
    />
    <path
      d="M226.467 26.226C226.467 26.226 232.79 26.926 235.188 21.895C235.188 21.895 238.171 26.934 246.948 27.516C246.948 27.516 247.319 32.843 250.442 34.434"
      stroke="#131313"
      stroke-width="1.5"
      stroke-linecap="round"
      stroke-linejoin="round"
    />
    <path
      d="M226.467 32.693C226.467 32.693 215.075 27.428 222.722 18.38C230.369 9.33199 255.844 4.806 261.89 21.894C267.751 38.454 252.178 44.911 252.178 44.911"
      stroke="#131313"
      stroke-width="1.5"
      stroke-linecap="round"
      stroke-linejoin="round"
    />
    <path
      d="M260.408 13.819C260.408 13.819 264.387 17.447 263.919 21.309"
      stroke="#AC7FE0"
      stroke-width="1.5"
      stroke-miterlimit="10"
    />
    <path
      d="M263.209 13.819L271.409 0.75C271.409 0.75 287.95 8.24 277.963 24.157L266.103 20.568"
      stroke="#131313"
      stroke-width="1.5"
      stroke-linecap="round"
      stroke-linejoin="round"
    />
    <path
      d="M207.063 90.77V144.997L283.883 163.878V103.484C283.883 93.0781 280.394 82.9726 273.974 74.7832C267.554 66.5939 258.573 60.7937 248.468 58.31V58.31C243.546 57.1012 238.414 57.0273 233.46 58.0939C228.505 59.1606 223.858 61.3398 219.87 64.4668C215.882 67.5938 212.657 71.5867 210.439 76.1436C208.221 80.7005 207.068 85.702 207.068 90.77H207.063Z"
      fill="#FFC85C"
    />
    <path
      d="M273.48 74.165C273.48 74.165 319.726 116.853 312.86 149.545C305.994 182.237 276.968 196.905 276.968 196.905C276.968 196.905 266.044 185.669 263.235 174.122"
      stroke="#131313"
      stroke-width="1.5"
      stroke-linecap="round"
      stroke-linejoin="round"
    />
    <path
      d="M254.793 110.603L278.216 147.593L266.251 181.943"
      stroke="#131313"
      stroke-width="1.5"
      stroke-linecap="round"
      stroke-linejoin="round"
    />
    <path
      d="M259.982 118.797L278.216 147.593L269.544 172.493C275.852 150.885 259.985 118.802 259.982 118.797Z"
      fill="#131313"
    />
    <path
      d="M157.672 29.192L146.395 4.811"
      stroke="#131313"
      stroke-width="1.5"
      stroke-miterlimit="10"
    />
    <path
      d="M149.204 36.253L121.116 4.811"
      stroke="#131313"
      stroke-width="1.5"
      stroke-miterlimit="10"
    />
    <path
      d="M140.075 44.912L113.392 34.824"
      stroke="#131313"
      stroke-width="1.5"
      stroke-miterlimit="10"
    />
    <path
      d="M84.826 66.122C87.7314 66.1168 90.6095 66.6838 93.2958 67.7909C95.982 68.8979 98.424 70.5232 100.482 72.574C102.54 74.6248 104.174 77.0609 105.291 79.7433C106.407 82.4256 106.985 85.3016 106.99 88.207L62.7409 88.286C62.7357 85.3806 63.3028 82.5025 64.4098 79.8162C65.5169 77.1299 67.1422 74.688 69.193 72.6299C71.2438 70.5718 73.6799 68.9377 76.3622 67.8211C79.0445 66.7045 81.9205 66.1271 84.826 66.122Z"
      fill="#EDEEEF"
    />
    <path
      d="M38.736 75.715C42.0813 75.7091 45.2918 77.0324 47.6615 79.3936C50.0312 81.7549 51.3659 84.9607 51.372 88.306L26.144 88.351C26.1411 86.6945 26.4645 85.0537 27.0958 83.5221C27.727 81.9906 28.6537 80.5985 29.823 79.4251C30.9923 78.2517 32.3812 77.3202 33.9105 76.6836C35.4398 76.047 37.0795 75.7179 38.736 75.715Z"
      fill="#EDEEEF"
    />
    <path
      d="M62.7 65.15C65.7383 65.1446 68.7478 65.7377 71.5569 66.8954C74.3659 68.0531 76.9194 69.7528 79.0716 71.8974C81.2238 74.0419 82.9325 76.5894 84.1002 79.3944C85.2679 82.1993 85.8716 85.2067 85.877 88.245L39.605 88.327C39.5996 85.2887 40.1927 82.2792 41.3504 79.4701C42.5081 76.661 44.2078 74.1075 46.3523 71.9554C48.4969 69.8032 51.0444 68.0945 53.8493 66.9268C56.6543 65.7591 59.6617 65.1554 62.7 65.15V65.15Z"
      fill="#EDEEEF"
    />
    <path
      d="M53.9189 123.258C51.229 123.253 48.6474 124.317 46.7419 126.216C44.8364 128.114 43.763 130.692 43.758 133.382L64.043 133.418C64.0453 132.086 63.7853 130.767 63.2778 129.535C62.7703 128.304 62.0253 127.185 61.0852 126.241C60.1451 125.298 59.0283 124.549 57.7988 124.037C56.5692 123.525 55.2508 123.26 53.9189 123.258V123.258Z"
      fill="#EDEEEF"
    />
    <path
      d="M75.046 127.655C74.2866 127.654 73.5343 127.802 72.8322 128.091C72.1301 128.38 71.4919 128.805 70.9539 129.341C70.416 129.877 69.9889 130.514 69.697 131.215C69.4052 131.916 69.2543 132.668 69.253 133.427L80.818 133.448C80.8194 132.689 80.6713 131.936 80.382 131.234C80.0927 130.532 79.6679 129.894 79.1319 129.356C78.5959 128.818 77.9592 128.391 77.2581 128.099C76.557 127.807 75.8053 127.656 75.046 127.655V127.655Z"
      fill="#EDEEEF"
    />
    <path
      d="M64.062 122.812C62.6692 122.81 61.2896 123.081 60.0018 123.612C58.7141 124.143 57.5435 124.922 56.5569 125.905C55.5703 126.888 54.787 128.056 54.2516 129.342C53.7163 130.628 53.4395 132.006 53.437 133.399L74.649 133.436C74.6538 130.623 73.5411 127.924 71.5557 125.932C69.5702 123.939 66.8747 122.817 64.062 122.812Z"
      fill="#EDEEEF"
    />
  </g>
  <defs>
    <clipPath id="sp">
      <rect width="348.573" height="384.386" fill="white" />
    </clipPath>
  </defs>
</svg>
