<svg
  width="58"
  height="29"
  viewBox="0 0 58 29"
  fill="none"
  xmlns="http://www.w3.org/2000/svg"
>
  <g clip-path="url(#vhl)">
    <path d="M26.495 0V18.607L20.3 15.075V3.55701L26.495 0Z" fill="#006CC4" />
    <path
      d="M12.388 28.922V19.6801L18.509 16.0981V14.4771H8.34698L0 22.8011V28.922H12.388Z"
      fill="#0085F4"
    />
    <path
      d="M14.05 20.636L20.3 17.024L26.495 20.636V28.919H14.05V20.636Z"
      fill="#006CC4"
    />
    <path
      d="M28.244 7.58203L35.052 11.517V20.517L28.244 24.356V7.58203Z"
      fill="#0085F4"
    />
    <path
      d="M28.244 26.381L40.829 19.231V28.922H28.244V26.381Z"
      fill="#0085F4"
    />
    <path
      d="M45.388 19.235L45.365 28.922H55.05L45.388 19.235Z"
      fill="#006CC4"
    />
    <path
      d="M36.839 19.512L40.413 17.496H46.096L57.564 28.967V22.795L49.241 14.481H36.841L36.839 19.512Z"
      fill="#0885E4"
    />
    <path
      d="M45.389 19.235H42.573V28.922H45.367L45.389 19.235Z"
      fill="#006CC4"
    />
  </g>
  <defs>
    <clipPath id="vhl">
      <rect width="57.565" height="28.963" fill="white" />
    </clipPath>
  </defs>
</svg>
